<?xml version="1.0" encoding="utf-8"?>
<svg version="1.1" xmlns:xlink="http://www.w3.org/1999/xlink" width="9px" height="7px" xmlns="http://www.w3.org/2000/svg">
  <g transform="matrix(1 0 0 1 -752 -977 )">
    <path d="M 8.90981963927856 6.23188405797101  C 8.96993987975952 6.28019323671498  9 6.33574879227053  9 6.39855072463768  C 9 6.46135265700483  8.96993987975952 6.51690821256039  8.90981963927856 6.56521739130435  L 8.45891783567134 6.92753623188406  C 8.39879759519038 6.97584541062802  8.32965931863728 7  8.25150300601202 7  C 8.17334669338677 7  8.10420841683367 6.97584541062802  8.04408817635271 6.92753623188406  L 4.5 4.07971014492754  L 0.955911823647295 6.92753623188406  C 0.895791583166333 6.97584541062802  0.826653306613227 7  0.748496993987976 7  C 0.670340681362726 7  0.601202404809619 6.97584541062802  0.541082164328657 6.92753623188406  L 0.0901803607214429 6.56521739130435  C 0.030060120240481 6.51690821256039  0 6.46135265700483  0 6.39855072463768  C 0 6.33574879227053  0.030060120240481 6.28019323671498  0.0901803607214429 6.23188405797101  L 4.29258517034068 2.85507246376812  C 4.35270541082164 2.80676328502415  4.42184368737475 2.78260869565217  4.5 2.78260869565217  C 4.57815631262525 2.78260869565217  4.64729458917836 2.80676328502415  4.70741482965932 2.85507246376812  L 8.90981963927856 6.23188405797101  Z M 8.90981963927856 3.44927536231884  C 8.96993987975952 3.4975845410628  9 3.55314009661836  9 3.61594202898551  C 9 3.67874396135266  8.96993987975952 3.73429951690821  8.90981963927856 3.78260869565217  L 8.45891783567134 4.14492753623188  C 8.39879759519038 4.19323671497585  8.32965931863728 4.21739130434783  8.25150300601202 4.21739130434783  C 8.17334669338677 4.21739130434783  8.10420841683367 4.19323671497585  8.04408817635271 4.14492753623188  L 4.5 1.29710144927536  L 0.955911823647295 4.14492753623188  C 0.895791583166333 4.19323671497585  0.826653306613227 4.21739130434783  0.748496993987976 4.21739130434783  C 0.670340681362726 4.21739130434783  0.601202404809619 4.19323671497585  0.541082164328657 4.14492753623188  L 0.0901803607214429 3.78260869565217  C 0.030060120240481 3.73429951690821  0 3.67874396135266  0 3.61594202898551  C 0 3.55314009661836  0.030060120240481 3.4975845410628  0.0901803607214429 3.44927536231884  L 4.29258517034068 0.0724637681159419  C 4.35270541082164 0.0241545893719801  4.42184368737475 0  4.5 0  C 4.57815631262525 0  4.64729458917836 0.0241545893719801  4.70741482965932 0.0724637681159419  L 8.90981963927856 3.44927536231884  Z " fill-rule="nonzero" fill="#000000" stroke="none" transform="matrix(1 0 0 1 752 977 )" />
  </g>
</svg>