<?xml version="1.0" encoding="utf-8"?>
<svg version="1.1" xmlns:xlink="http://www.w3.org/1999/xlink" width="16px" height="16px" xmlns="http://www.w3.org/2000/svg">
  <g transform="matrix(1 0 0 1 -560 -565 )">
    <path d="M 9 13.3958333333333  C 9.18055555555556 13.3958333333333  9.33680555555556 13.3298611111111  9.46875 13.1979166666667  L 10.53125 12.1354166666667  C 10.6631944444444 12.0034722222222  10.7291666666667 11.8472222222222  10.7291666666667 11.6666666666667  C 10.7291666666667 11.4861111111111  10.6631944444444 11.3298611111111  10.53125 11.1979166666667  L 7.33333333333333 8  L 10.53125 4.80208333333333  C 10.6631944444444 4.67013888888889  10.7291666666667 4.51388888888889  10.7291666666667 4.33333333333333  C 10.7291666666667 4.15277777777778  10.6631944444444 3.99652777777778  10.53125 3.86458333333333  L 9.46875 2.80208333333333  C 9.33680555555556 2.67013888888889  9.18055555555556 2.60416666666667  9 2.60416666666667  C 8.81944444444444 2.60416666666667  8.66319444444444 2.67013888888889  8.53125 2.80208333333333  L 3.80208333333333 7.53125  C 3.67013888888889 7.66319444444444  3.60416666666667 7.81944444444444  3.60416666666667 8  C 3.60416666666667 8.18055555555555  3.67013888888889 8.33680555555555  3.80208333333333 8.46875  L 8.53125 13.1979166666667  C 8.66319444444444 13.3298611111111  8.81944444444444 13.3958333333333  9 13.3958333333333  Z M 14.9270833333333 3.984375  C 15.6423611111111 5.21006944444444  16 6.54861111111111  16 8  C 16 9.45138888888889  15.6423611111111 10.7899305555556  14.9270833333333 12.015625  C 14.2118055555556 13.2413194444444  13.2413194444444 14.2118055555556  12.015625 14.9270833333333  C 10.7899305555556 15.6423611111111  9.45138888888889 16  8 16  C 6.54861111111111 16  5.21006944444444 15.6423611111111  3.984375 14.9270833333333  C 2.75868055555556 14.2118055555556  1.78819444444444 13.2413194444444  1.07291666666667 12.015625  C 0.357638888888889 10.7899305555556  0 9.45138888888889  0 8  C 0 6.54861111111111  0.357638888888889 5.21006944444444  1.07291666666667 3.984375  C 1.78819444444444 2.75868055555556  2.75868055555556 1.78819444444444  3.984375 1.07291666666667  C 5.21006944444444 0.357638888888888  6.54861111111111 0  8 0  C 9.45138888888889 0  10.7899305555556 0.357638888888888  12.015625 1.07291666666667  C 13.2413194444444 1.78819444444444  14.2118055555556 2.75868055555556  14.9270833333333 3.984375  Z " fill-rule="nonzero" fill="#000000" stroke="none" transform="matrix(1 0 0 1 560 565 )" />
  </g>
</svg>