<?xml version="1.0" encoding="utf-8"?>
<svg version="1.1" xmlns:xlink="http://www.w3.org/1999/xlink" width="9px" height="9px" xmlns="http://www.w3.org/2000/svg">
  <g transform="matrix(1 0 0 1 -148 -1171 )">
    <path d="M 8.98082386363636 6.97372159090909  C 8.99360795454546 7.00355113636364  9 7.04829545454545  9 7.10795454545455  C 9 7.22301136363636  8.97869318181818 7.37322443181818  8.93607954545454 7.55859375  C 8.89346590909091 7.74396306818182  8.84872159090909 7.88991477272727  8.80184659090909 7.99644886363636  C 8.71235795454546 8.20951704545454  8.45241477272727 8.43536931818182  8.02201704545454 8.67400568181818  C 7.62144886363636 8.89133522727273  7.22514204545455 9  6.83309659090909 9  C 6.71803977272727 9  6.60511363636364 8.99254261363636  6.49431818181818 8.97762784090909  C 6.38352272727273 8.96271306818182  6.26100852272727 8.93607954545454  6.12677556818182 8.89772727272727  C 5.99254261363636 8.859375  5.89240056818182 8.82848011363636  5.82634943181818 8.80504261363636  C 5.76029829545455 8.78160511363636  5.64204545454546 8.73792613636364  5.47159090909091 8.67400568181818  C 5.30113636363636 8.61008522727273  5.19673295454546 8.57173295454546  5.15838068181818 8.55894886363636  C 4.74076704545455 8.40980113636364  4.36789772727273 8.23295454545454  4.03977272727273 8.02840909090909  C 3.49857954545455 7.69176136363636  2.93607954545455 7.23153409090909  2.35227272727273 6.64772727272727  C 1.76846590909091 6.06392045454545  1.30823863636364 5.50142045454546  0.971590909090909 4.96022727272727  C 0.767045454545454 4.63210227272727  0.590198863636364 4.25923295454545  0.441051136363636 3.84161931818182  C 0.428267045454545 3.80326704545454  0.389914772727273 3.69886363636364  0.325994318181818 3.52840909090909  C 0.262073863636364 3.35795454545454  0.218394886363636 3.23970170454545  0.194957386363636 3.17365056818182  C 0.171519886363636 3.10759943181818  0.140625 3.00745738636364  0.102272727272727 2.87322443181818  C 0.0639204545454545 2.73899147727273  0.0372869318181818 2.61647727272727  0.0223721590909091 2.50568181818182  C 0.00745738636363636 2.39488636363636  0 2.28196022727273  0 2.16690340909091  C 0 1.77485795454545  0.108664772727273 1.37855113636364  0.325994318181818 0.977982954545454  C 0.564630681818182 0.547585227272726  0.790482954545455 0.287642045454546  1.00355113636364 0.198153409090909  C 1.11008522727273 0.151278409090908  1.25603693181818 0.10653409090909  1.44140625 0.0639204545454544  C 1.62677556818182 0.0213068181818178  1.77698863636364 0  1.89204545454545 0  C 1.95170454545455 0  1.99644886363636 0.00639204545454564  2.02627840909091 0.0191761363636359  C 2.10298295454545 0.0447443181818185  2.21590909090909 0.206676136363636  2.36505681818182 0.504971590909091  C 2.41193181818182 0.585937499999999  2.47585227272727 0.700994318181817  2.55681818181818 0.850142045454546  C 2.63778409090909 0.999289772727272  2.71235795454545 1.13458806818182  2.78053977272727 1.25603693181818  C 2.84872159090909 1.37748579545455  2.91477272727273 1.49147727272727  2.97869318181818 1.59801136363636  C 2.99147727272727 1.61505681818182  3.02876420454545 1.66832386363636  3.09055397727273 1.7578125  C 3.15234375 1.84730113636364  3.19815340909091 1.92294034090909  3.22798295454545 1.98473011363636  C 3.2578125 2.04651988636364  3.27272727272727 2.10724431818182  3.27272727272727 2.16690340909091  C 3.27272727272727 2.25213068181818  3.21200284090909 2.35866477272727  3.09055397727273 2.48650568181818  C 2.96910511363636 2.61434659090909  2.83700284090909 2.73153409090909  2.69424715909091 2.83806818181818  C 2.55149147727273 2.94460227272727  2.41938920454545 3.05752840909091  2.29794034090909 3.17684659090909  C 2.17649147727273 3.29616477272727  2.11576704545455 3.39417613636364  2.11576704545455 3.47088068181818  C 2.11576704545455 3.50923295454545  2.12642045454545 3.55717329545455  2.14772727272727 3.61470170454545  C 2.16903409090909 3.67223011363636  2.18714488636364 3.71590909090909  2.20205965909091 3.74573863636364  C 2.21697443181818 3.77556818181818  2.24680397727273 3.82670454545455  2.29154829545455 3.89914772727273  C 2.33629261363636 3.97159090909091  2.36079545454545 4.01207386363636  2.36505681818182 4.02059659090909  C 2.68892045454545 4.60440340909091  3.05965909090909 5.10511363636364  3.47727272727273 5.52272727272727  C 3.89488636363636 5.94034090909091  4.39559659090909 6.31107954545454  4.97940340909091 6.63494318181818  C 4.98792613636364 6.63920454545454  5.02840909090909 6.66370738636364  5.10085227272727 6.70845170454545  C 5.17329545454546 6.75319602272727  5.22443181818182 6.78302556818182  5.25426136363636 6.79794034090909  C 5.28409090909091 6.81285511363636  5.32776988636364 6.83096590909091  5.38529829545455 6.85227272727273  C 5.44282670454545 6.87357954545454  5.49076704545455 6.88423295454545  5.52911931818182 6.88423295454545  C 5.60582386363636 6.88423295454545  5.70383522727273 6.82350852272727  5.82315340909091 6.70205965909091  C 5.94247159090909 6.58061079545455  6.05539772727273 6.44850852272727  6.16193181818182 6.30575284090909  C 6.26846590909091 6.16299715909091  6.38565340909091 6.03089488636364  6.51349431818182 5.90944602272727  C 6.64133522727273 5.78799715909091  6.74786931818182 5.72727272727273  6.83309659090909 5.72727272727273  C 6.89275568181818 5.72727272727273  6.95348011363636 5.7421875  7.01526988636364 5.77201704545455  C 7.07705965909091 5.80184659090909  7.15269886363636 5.84765625  7.2421875 5.90944602272727  C 7.33167613636364 5.97123579545454  7.38494318181818 6.00852272727273  7.40198863636364 6.02130681818182  C 7.50852272727273 6.08522727272727  7.62251420454545 6.15127840909091  7.74396306818182 6.21946022727273  C 7.86541193181818 6.28764204545454  8.00071022727273 6.36221590909091  8.14985795454546 6.44318181818182  C 8.29900568181818 6.52414772727273  8.4140625 6.58806818181818  8.49502840909091 6.63494318181818  C 8.79332386363636 6.78409090909091  8.95525568181818 6.89701704545455  8.98082386363636 6.97372159090909  Z " fill-rule="nonzero" fill="#000000" stroke="none" transform="matrix(1 0 0 1 148 1171 )" />
  </g>
</svg>