<?xml version="1.0" encoding="utf-8"?>
<svg version="1.1" xmlns:xlink="http://www.w3.org/1999/xlink" width="15px" height="15px" xmlns="http://www.w3.org/2000/svg">
  <g transform="matrix(1 0 0 1 -145 -1168 )">
    <path d="M 9.9267578125 1.748046875  C 9.1552734375 1.416015625  8.34635416666667 1.25  7.5 1.25  C 6.65364583333333 1.25  5.8447265625 1.416015625  5.0732421875 1.748046875  C 4.3017578125 2.080078125  3.6376953125 2.5244140625  3.0810546875 3.0810546875  C 2.5244140625 3.6376953125  2.080078125 4.3017578125  1.748046875 5.0732421875  C 1.416015625 5.8447265625  1.25 6.65364583333333  1.25 7.5  C 1.25 8.34635416666667  1.416015625 9.1552734375  1.748046875 9.9267578125  C 2.080078125 10.6982421875  2.5244140625 11.3623046875  3.0810546875 11.9189453125  C 3.6376953125 12.4755859375  4.3017578125 12.919921875  5.0732421875 13.251953125  C 5.8447265625 13.583984375  6.65364583333333 13.75  7.5 13.75  C 8.34635416666667 13.75  9.1552734375 13.583984375  9.9267578125 13.251953125  C 10.6982421875 12.919921875  11.3623046875 12.4755859375  11.9189453125 11.9189453125  C 12.4755859375 11.3623046875  12.919921875 10.6982421875  13.251953125 9.9267578125  C 13.583984375 9.1552734375  13.75 8.34635416666667  13.75 7.5  C 13.75 6.65364583333333  13.583984375 5.8447265625  13.251953125 5.0732421875  C 12.919921875 4.3017578125  12.4755859375 3.6376953125  11.9189453125 3.0810546875  C 11.3623046875 2.5244140625  10.6982421875 2.080078125  9.9267578125 1.748046875  Z M 13.994140625 3.7353515625  C 14.6647135416667 4.88444010416667  15 6.13932291666666  15 7.5  C 15 8.86067708333333  14.6647135416667 10.1155598958333  13.994140625 11.2646484375  C 13.3235677083333 12.4137369791667  12.4137369791667 13.3235677083333  11.2646484375 13.994140625  C 10.1155598958333 14.6647135416667  8.86067708333333 15  7.5 15  C 6.13932291666667 15  4.88444010416667 14.6647135416667  3.7353515625 13.994140625  C 2.58626302083333 13.3235677083333  1.67643229166667 12.4137369791667  1.005859375 11.2646484375  C 0.335286458333333 10.1155598958333  0 8.86067708333333  0 7.5  C 0 6.13932291666666  0.335286458333333 4.88444010416667  1.005859375 3.7353515625  C 1.67643229166667 2.58626302083333  2.58626302083333 1.67643229166667  3.7353515625 1.005859375  C 4.88444010416667 0.335286458333332  6.13932291666667 0  7.5 0  C 8.86067708333333 0  10.1155598958333 0.335286458333332  11.2646484375 1.005859375  C 12.4137369791667 1.67643229166667  13.3235677083333 2.58626302083333  13.994140625 3.7353515625  Z " fill-rule="nonzero" fill="#000000" stroke="none" transform="matrix(1 0 0 1 145 1168 )" />
  </g>
</svg>