<?xml version="1.0" encoding="utf-8"?>
<svg version="1.1" xmlns:xlink="http://www.w3.org/1999/xlink" width="226px" height="36px" xmlns="http://www.w3.org/2000/svg">
  <defs>
    <mask fill="white" id="clip84">
      <path d="M 0 36  L 0 8  L 16.0883392226148 8  L 22.4487632508834 0.226148409893995  L 29.1625441696113 8  L 226 8  L 226 36  L 0 36  Z " fill-rule="evenodd" />
    </mask>
  </defs>
  <g transform="matrix(1 0 0 1 -109 -892 )">
    <path d="M 0 36  L 0 8  L 16.0883392226148 8  L 22.4487632508834 0.226148409893995  L 29.1625441696113 8  L 226 8  L 226 36  L 0 36  Z " fill-rule="nonzero" fill="#f2f2f2" stroke="none" transform="matrix(1 0 0 1 109 892 )" />
    <path d="M 0 36  L 0 8  L 16.0883392226148 8  L 22.4487632508834 0.226148409893995  L 29.1625441696113 8  L 226 8  L 226 36  L 0 36  Z " stroke-width="2" stroke="#f2f2f2" fill="none" transform="matrix(1 0 0 1 109 892 )" mask="url(#clip84)" />
  </g>
</svg>