<?xml version="1.0" encoding="utf-8"?>
<svg version="1.1" xmlns:xlink="http://www.w3.org/1999/xlink" width="64px" height="48px" xmlns="http://www.w3.org/2000/svg">
  <defs>
    <mask fill="white" id="clip58">
      <path d="M 663 361  C 657.45 361  653 356.55  653 351  L 653 323  C 653 317.45  657.45 313  663 313  L 707 313  C 712.55 313  717 317.45  717 323  L 717 351  C 717 356.55  712.55 361  707 361  " fill-rule="evenodd" />
    </mask>
  </defs>
  <g transform="matrix(1 0 0 1 -653 -313 )">
    <path d="M 653 313  L 717 313  L 717 361  L 653 361  L 653 313  " fill-rule="nonzero" fill="#cccccc" stroke="none" mask="url(#clip58)" />
    <path d="M 656 316  L 714 316  L 714 358  L 656 358  L 656 316  " fill-rule="nonzero" fill="#ffffff" stroke="none" mask="url(#clip58)" />
    <path d="M 689.88 327.4  C 687.864 327.4  686.28 325.816  686.28 323.8  C 686.28 321.784  687.864 320.2  689.88 320.2  C 691.896 320.2  693.48 321.784  693.48 323.8  C 693.48 325.816  691.896 327.4  689.88 327.4  " fill-rule="nonzero" fill="#cccccc" stroke="none" mask="url(#clip58)" />
    <path d="M 657 357  L 657 335  L 671 325  L 690.6 339  L 701.8 331  L 713 339  L 713 357  L 657 357  " fill-rule="nonzero" fill="#169bd5" stroke="none" mask="url(#clip58)" />
  </g>
</svg>