<?xml version="1.0" encoding="utf-8"?>
<svg version="1.1" xmlns:xlink="http://www.w3.org/1999/xlink" width="30px" height="27px" xmlns="http://www.w3.org/2000/svg">
  <g transform="matrix(1 0 0 1 -1648 -917 )">
    <path d="M 1.875 12  L 28.125 12  C 28.642578125 11.5714285714286  29.08447265625 11.759765625  29.45068359375 12.1364397321429  C 29.81689453125 12.5131138392857  30 12.9676339285714  30 13.5  C 30 14.0323660714286  29.81689453125 14.4868861607143  29.45068359375 14.8635602678571  C 29.08447265625 15.240234375  28.642578125 15.4285714285714  28.125 15.4285714285714  L 27.9052734375 15.4285714285714  L 26.220703125 25.4029017857143  C 26.142578125 25.8649553571429  25.927734375 26.2466517857143  25.576171875 26.5479910714286  C 25.224609375 26.8493303571429  24.82421875 27  24.375 27  L 5.625 27  C 5.17578125 27  4.775390625 26.8493303571429  4.423828125 26.5479910714286  C 4.072265625 26.2466517857143  3.857421875 25.8649553571429  3.779296875 25.4029017857143  L 2.0947265625 15.4285714285714  L 1.875 15.4285714285714  C 1.357421875 15.4285714285714  0.91552734375 15.240234375  0.54931640625 14.8635602678571  C 0.18310546875 14.4868861607143  0 14.0323660714286  0 13.5  C 0 12.9676339285714  0.18310546875 12.5131138392857  0.54931640625 12.1364397321429  C 0.91552734375 11.759765625  1.357421875 11.5714285714286  1.875 12  Z M 7.03125 23.625  L 7.1044921875 23.625  C 7.3583984375 23.6049107142857  7.57080078125 23.4919084821429  7.74169921875 23.2859933035714  C 7.91259765625 23.080078125  7.98828125 22.8465401785714  7.96875 22.5853794642857  L 7.5 16.3175223214286  C 7.48046875 16.0563616071429  7.37060546875 15.837890625  7.17041015625 15.662109375  C 6.97021484375 15.486328125  6.7431640625 15.4084821428571  6.4892578125 15.4285714285714  C 6.2353515625 15.4486607142857  6.02294921875 15.5616629464286  5.85205078125 15.767578125  C 5.68115234375 15.9734933035714  5.60546875 16.20703125  5.625 16.4681919642857  L 6.09375 22.7360491071429  C 6.11328125 22.9871651785714  6.21337890625 23.1981026785714  6.39404296875 23.3688616071429  C 6.57470703125 23.5396205357143  6.787109375 23.625  7.03125 23.625  Z M 12.8466796875 23.3387276785714  C 13.0322265625 23.1478794642857  13.125 22.921875  13.125 22.6607142857143  L 13.125 16.3928571428571  C 13.125 16.1316964285714  13.0322265625 15.9056919642857  12.8466796875 15.71484375  C 12.6611328125 15.5239955357143  12.44140625 15.4285714285714  12.1875 15.4285714285714  C 11.93359375 15.4285714285714  11.7138671875 15.5239955357143  11.5283203125 15.71484375  C 11.3427734375 15.9056919642857  11.25 16.1316964285714  11.25 16.3928571428571  L 11.25 22.6607142857143  C 11.25 22.921875  11.3427734375 23.1478794642857  11.5283203125 23.3387276785714  C 11.7138671875 23.5295758928571  11.93359375 23.625  12.1875 23.625  C 12.44140625 23.625  12.6611328125 23.5295758928571  12.8466796875 23.3387276785714  Z M 18.4716796875 23.3387276785714  C 18.6572265625 23.1478794642857  18.75 22.921875  18.75 22.6607142857143  L 18.75 16.3928571428571  C 18.75 16.1316964285714  18.6572265625 15.9056919642857  18.4716796875 15.71484375  C 18.2861328125 15.5239955357143  18.06640625 15.4285714285714  17.8125 15.4285714285714  C 17.55859375 15.4285714285714  17.3388671875 15.5239955357143  17.1533203125 15.71484375  C 16.9677734375 15.9056919642857  16.875 16.1316964285714  16.875 16.3928571428571  L 16.875 22.6607142857143  C 16.875 22.921875  16.9677734375 23.1478794642857  17.1533203125 23.3387276785714  C 17.3388671875 23.5295758928571  17.55859375 23.625  17.8125 23.625  C 18.06640625 23.625  18.2861328125 23.5295758928571  18.4716796875 23.3387276785714  Z M 23.60595703125 23.3688616071429  C 23.78662109375 23.1981026785714  23.88671875 22.9871651785714  23.90625 22.7360491071429  L 24.375 16.4681919642857  C 24.39453125 16.20703125  24.31884765625 15.9734933035714  24.14794921875 15.767578125  C 23.97705078125 15.5616629464286  23.7646484375 15.4486607142857  23.5107421875 15.4285714285714  C 23.2568359375 15.4084821428571  23.02978515625 15.486328125  22.82958984375 15.662109375  C 22.62939453125 15.837890625  22.51953125 16.0563616071429  22.5 16.3175223214286  L 22.03125 22.5853794642857  C 22.01171875 22.8465401785714  22.08740234375 23.080078125  22.25830078125 23.2859933035714  C 22.42919921875 23.4919084821429  22.6416015625 23.6049107142857  22.8955078125 23.625  L 22.96875 23.625  C 23.212890625 23.625  23.42529296875 23.5396205357143  23.60595703125 23.3688616071429  Z M 7.63916015625 3.31473214285714  C 7.30224609375 3.59598214285714  7.080078125 3.95758928571428  6.97265625 4.39955357142857  L 5.6103515625 10.6071428571429  L 3.6767578125 10.6071428571429  L 5.15625 3.96261160714286  C 5.341796875 3.07868303571428  5.7763671875 2.35797991071429  6.4599609375 1.80050223214286  C 7.1435546875 1.24302455357143  7.9248046875 0.964285714285714  8.8037109375 0.964285714285714  L 11.25 0.964285714285714  C 11.25 0.703124999999999  11.3427734375 0.477120535714282  11.5283203125 0.286272321428572  C 11.7138671875 0.0954241071428594  11.93359375 0  12.1875 0  L 17.8125 0  C 18.06640625 0  18.2861328125 0.0954241071428594  18.4716796875 0.286272321428572  C 18.6572265625 0.477120535714282  18.75 0.703124999999999  18.75 0.964285714285714  L 21.1962890625 0.964285714285714  C 22.0751953125 0.964285714285714  22.8564453125 1.24302455357143  23.5400390625 1.80050223214286  C 24.2236328125 2.35797991071429  24.658203125 3.07868303571428  24.84375 3.96261160714286  L 26.3232421875 10.6071428571429  L 24.3896484375 10.6071428571429  L 23.02734375 4.39955357142857  C 22.919921875 3.95758928571428  22.69775390625 3.59598214285714  22.36083984375 3.31473214285714  C 22.02392578125 3.03348214285714  21.6357421875 2.89285714285714  21.1962890625 2.89285714285714  L 18.75 2.89285714285714  C 18.75 3.15401785714286  18.6572265625 3.38002232142857  18.4716796875 3.57087053571429  C 18.2861328125 3.76171875  18.06640625 3.85714285714286  17.8125 3.85714285714286  L 12.1875 3.85714285714286  C 11.93359375 3.85714285714286  11.7138671875 3.76171875  11.5283203125 3.57087053571429  C 11.3427734375 3.38002232142857  11.25 3.15401785714286  11.25 2.89285714285714  L 8.8037109375 2.89285714285714  C 8.3642578125 2.89285714285714  7.97607421875 3.03348214285714  7.63916015625 3.31473214285714  Z " fill-rule="nonzero" fill="#ffffff" stroke="none" transform="matrix(1 0 0 1 1648 917 )" />
  </g>
</svg>