<?xml version="1.0" encoding="utf-8"?>
<svg version="1.1" xmlns:xlink="http://www.w3.org/1999/xlink" width="49px" height="49px" xmlns="http://www.w3.org/2000/svg">
  <g transform="matrix(1 0 0 1 -1639 -905 )">
    <path d="M 1663.5 905  C 1677.22 905  1688 915.78  1688 929.5  C 1688 943.22  1677.22 954  1663.5 954  C 1649.78 954  1639 943.22  1639 929.5  C 1639 915.78  1649.78 905  1663.5 905  Z " fill-rule="nonzero" fill="#d7d7d7" stroke="none" />
    <path d="M 1663.5 905.5  C 1676.94 905.5  1687.5 916.06  1687.5 929.5  C 1687.5 942.94  1676.94 953.5  1663.5 953.5  C 1650.06 953.5  1639.5 942.94  1639.5 929.5  C 1639.5 916.06  1650.06 905.5  1663.5 905.5  Z " stroke-width="1" stroke="#ffffff" fill="none" />
  </g>
</svg>