<?xml version="1.0" encoding="utf-8"?>
<svg version="1.1" xmlns:xlink="http://www.w3.org/1999/xlink" width="32px" height="32px" xmlns="http://www.w3.org/2000/svg">
  <g transform="matrix(1 0 0 1 -269 -231 )">
    <path d="M 285 231  C 293.96 231  301 238.04  301 247  C 301 255.96  293.96 263  285 263  C 276.04 263  269 255.96  269 247  C 269 238.04  276.04 231  285 231  Z " fill-rule="nonzero" fill="#ffffff" stroke="none" />
    <path d="M 285 231.5  C 293.68 231.5  300.5 238.32  300.5 247  C 300.5 255.68  293.68 262.5  285 262.5  C 276.32 262.5  269.5 255.68  269.5 247  C 269.5 238.32  276.32 231.5  285 231.5  Z " stroke-width="1" stroke="#797979" fill="none" />
  </g>
</svg>