<?xml version="1.0" encoding="utf-8"?>
<svg version="1.1" xmlns:xlink="http://www.w3.org/1999/xlink" width="9px" height="13px" xmlns="http://www.w3.org/2000/svg">
  <g transform="matrix(1 0 0 1 -1989 -735 )">
    <path d="M 8.8330078125 7.85724431818182  C 8.9443359375 7.97419507575757  9 8.11268939393939  9 8.27272727272727  C 9 8.43276515151515  8.9443359375 8.57125946969697  8.8330078125 8.68821022727273  L 4.8955078125 12.8245738636364  C 4.7841796875 12.9415246212121  4.65234375 13  4.5 13  C 4.34765625 13  4.2158203125 12.9415246212121  4.1044921875 12.8245738636364  L 0.1669921875 8.68821022727273  C 0.0556640625 8.57125946969697  0 8.43276515151515  0 8.27272727272727  C 0 8.11268939393939  0.0556640625 7.97419507575757  0.1669921875 7.85724431818182  C 0.2783203125 7.74029356060606  0.41015625 7.68181818181818  0.5625 7.68181818181818  L 8.4375 7.68181818181818  C 8.58984375 7.68181818181818  8.7216796875 7.74029356060606  8.8330078125 7.85724431818182  Z M 8.8330078125 4.31178977272727  C 8.9443359375 4.42874053030303  9 4.56723484848485  9 4.72727272727273  C 9 4.8873106060606  8.9443359375 5.02580492424242  8.8330078125 5.14275568181818  C 8.7216796875 5.25970643939394  8.58984375 5.31818181818182  8.4375 5.31818181818182  L 0.5625 5.31818181818182  C 0.41015625 5.31818181818182  0.2783203125 5.25970643939394  0.1669921875 5.14275568181818  C 0.0556640625 5.02580492424242  0 4.8873106060606  0 4.72727272727273  C 0 4.56723484848485  0.0556640625 4.42874053030303  0.1669921875 4.31178977272727  L 4.1044921875 0.175426136363637  C 4.2158203125 0.0584753787878776  4.34765625 0  4.5 0  C 4.65234375 0  4.7841796875 0.0584753787878776  4.8955078125 0.175426136363637  L 8.8330078125 4.31178977272727  Z " fill-rule="nonzero" fill="#000000" stroke="none" transform="matrix(1 0 0 1 1989 735 )" />
  </g>
</svg>