<?xml version="1.0" encoding="utf-8"?>
<svg version="1.1" xmlns:xlink="http://www.w3.org/1999/xlink" width="20px" height="20px" xmlns="http://www.w3.org/2000/svg">
  <g transform="matrix(1 0 0 1 -244 -290 )">
    <path d="M 254 290  C 259.6 290  264 294.4  264 300  C 264 305.6  259.6 310  254 310  C 248.4 310  244 305.6  244 300  C 244 294.4  248.4 290  254 290  Z " fill-rule="nonzero" fill="#ffffff" stroke="none" />
    <path d="M 254 290.5  C 259.32 290.5  263.5 294.68  263.5 300  C 263.5 305.32  259.32 309.5  254 309.5  C 248.68 309.5  244.5 305.32  244.5 300  C 244.5 294.68  248.68 290.5  254 290.5  Z " stroke-width="1" stroke="#797979" fill="none" />
  </g>
</svg>