<?xml version="1.0" encoding="utf-8"?>
<svg version="1.1" xmlns:xlink="http://www.w3.org/1999/xlink" width="18px" height="18px" xmlns="http://www.w3.org/2000/svg">
  <g transform="matrix(1 0 0 1 -500 -341 )">
    <path d="M 509 341  C 514.04 341  518 344.96  518 350  C 518 355.04  514.04 359  509 359  C 503.96 359  500 355.04  500 350  C 500 344.96  503.96 341  509 341  Z " fill-rule="nonzero" fill="#d7d7d7" stroke="none" />
    <path d="M 509 341.5  C 513.76 341.5  517.5 345.24  517.5 350  C 517.5 354.76  513.76 358.5  509 358.5  C 504.24 358.5  500.5 354.76  500.5 350  C 500.5 345.24  504.24 341.5  509 341.5  Z " stroke-width="1" stroke="#aaaaaa" fill="none" />
  </g>
</svg>