<?xml version="1.0" encoding="utf-8"?>
<svg version="1.1" xmlns:xlink="http://www.w3.org/1999/xlink" width="18px" height="18px" xmlns="http://www.w3.org/2000/svg">
  <g transform="matrix(1 0 0 1 -36 -341 )">
    <path d="M 45 341  C 50.04 341  54 344.96  54 350  C 54 355.04  50.04 359  45 359  C 39.96 359  36 355.04  36 350  C 36 344.96  39.96 341  45 341  Z " fill-rule="nonzero" fill="#ffffff" stroke="none" />
    <path d="M 45 341.5  C 49.76 341.5  53.5 345.24  53.5 350  C 53.5 354.76  49.76 358.5  45 358.5  C 40.24 358.5  36.5 354.76  36.5 350  C 36.5 345.24  40.24 341.5  45 341.5  Z " stroke-width="1" stroke="#797979" fill="none" />
  </g>
</svg>