<?xml version="1.0" encoding="utf-8"?>
<svg version="1.1" xmlns:xlink="http://www.w3.org/1999/xlink" width="24px" height="22px" xmlns="http://www.w3.org/2000/svg">
  <g transform="matrix(1 0 0 1 -2052 -397 )">
    <path d="M 1.5 9.42857142857143  L 22.5 9.42857142857143  C 22.9140625 9.42857142857143  23.267578125 9.58203125  23.560546875 9.88895089285714  C 23.853515625 10.1958705357143  24 10.5662202380952  24 11  C 24 11.4337797619048  23.853515625 11.8041294642857  23.560546875 12.1110491071429  C 23.267578125 12.41796875  22.9140625 12.5714285714286  22.5 12.5714285714286  L 22.32421875 12.5714285714286  L 20.9765625 20.6986607142857  C 20.9140625 21.0751488095238  20.7421875 21.3861607142857  20.4609375 21.6316964285714  C 20.1796875 21.8772321428571  19.859375 22  19.5 22  L 4.5 22  C 4.140625 22  3.8203125 21.8772321428571  3.5390625 21.6316964285714  C 3.2578125 21.3861607142857  3.0859375 21.0751488095238  3.0234375 20.6986607142857  L 1.67578125 12.5714285714286  L 1.5 12.5714285714286  C 1.0859375 12.5714285714286  0.732421875 12.41796875  0.439453125 12.1110491071429  C 0.146484375 11.8041294642857  0 11.4337797619048  0 11  C 0 10.5662202380952  0.146484375 10.1958705357143  0.439453125 9.88895089285714  C 0.732421875 9.58203125  1.0859375 9.42857142857143  1.5 9.42857142857143  Z M 5.625 19.25  L 5.68359375 19.25  C 5.88671875 19.233630952381  6.056640625 19.1415550595238  6.193359375 18.9737723214286  C 6.330078125 18.8059895833333  6.390625 18.6156994047619  6.375 18.4029017857143  L 6 13.2957589285714  C 5.984375 13.0829613095238  5.896484375 12.9049479166667  5.736328125 12.76171875  C 5.576171875 12.6184895833333  5.39453125 12.5550595238095  5.19140625 12.5714285714286  C 4.98828125 12.5877976190476  4.818359375 12.6798735119048  4.681640625 12.84765625  C 4.544921875 13.0154389880952  4.484375 13.2057291666667  4.5 13.4185267857143  L 4.875 18.5256696428571  C 4.890625 18.7302827380952  4.970703125 18.9021577380952  5.115234375 19.0412946428571  C 5.259765625 19.180431547619  5.4296875 19.25  5.625 19.25  Z M 10.27734375 19.0167410714286  C 10.42578125 18.8612351190476  10.5 18.6770833333333  10.5 18.4642857142857  L 10.5 13.3571428571429  C 10.5 13.1443452380952  10.42578125 12.960193452381  10.27734375 12.8046875  C 10.12890625 12.649181547619  9.953125 12.5714285714286  9.75 12.5714285714286  C 9.546875 12.5714285714286  9.37109375 12.649181547619  9.22265625 12.8046875  C 9.07421875 12.960193452381  9 13.1443452380952  9 13.3571428571429  L 9 18.4642857142857  C 9 18.6770833333333  9.07421875 18.8612351190476  9.22265625 19.0167410714286  C 9.37109375 19.1722470238095  9.546875 19.25  9.75 19.25  C 9.953125 19.25  10.12890625 19.1722470238095  10.27734375 19.0167410714286  Z M 14.77734375 19.0167410714286  C 14.92578125 18.8612351190476  15 18.6770833333333  15 18.4642857142857  L 15 13.3571428571429  C 15 13.1443452380952  14.92578125 12.960193452381  14.77734375 12.8046875  C 14.62890625 12.649181547619  14.453125 12.5714285714286  14.25 12.5714285714286  C 14.046875 12.5714285714286  13.87109375 12.649181547619  13.72265625 12.8046875  C 13.57421875 12.960193452381  13.5 13.1443452380952  13.5 13.3571428571429  L 13.5 18.4642857142857  C 13.5 18.6770833333333  13.57421875 18.8612351190476  13.72265625 19.0167410714286  C 13.87109375 19.1722470238095  14.046875 19.25  14.25 19.25  C 14.453125 19.25  14.62890625 19.1722470238095  14.77734375 19.0167410714286  Z M 18.884765625 19.0412946428571  C 19.029296875 18.9021577380952  19.109375 18.7302827380952  19.125 18.5256696428571  L 19.5 13.4185267857143  C 19.515625 13.2057291666667  19.455078125 13.0154389880952  19.318359375 12.84765625  C 19.181640625 12.6798735119048  19.01171875 12.5877976190476  18.80859375 12.5714285714286  C 18.60546875 12.5550595238095  18.423828125 12.6184895833333  18.263671875 12.76171875  C 18.103515625 12.9049479166667  18.015625 13.0829613095238  18 13.2957589285714  L 17.625 18.4029017857143  C 17.609375 18.6156994047619  17.669921875 18.8059895833333  17.806640625 18.9737723214286  C 17.943359375 19.1415550595238  18.11328125 19.233630952381  18.31640625 19.25  L 18.375 19.25  C 18.5703125 19.25  18.740234375 19.180431547619  18.884765625 19.0412946428571  Z M 6.111328125 2.70089285714286  C 5.841796875 2.93005952380952  5.6640625 3.22470238095238  5.578125 3.58482142857143  L 4.48828125 8.64285714285714  L 2.94140625 8.64285714285714  L 4.125 3.22879464285714  C 4.2734375 2.50855654761905  4.62109375 1.92131696428571  5.16796875 1.46707589285714  C 5.71484375 1.01283482142857  6.33984375 0.785714285714285  7.04296875 0.785714285714285  L 9 0.785714285714285  C 9 0.572916666666666  9.07421875 0.388764880952378  9.22265625 0.233258928571429  C 9.37109375 0.0777529761904781  9.546875 0  9.75 0  L 14.25 0  C 14.453125 0  14.62890625 0.0777529761904781  14.77734375 0.233258928571429  C 14.92578125 0.388764880952378  15 0.572916666666666  15 0.785714285714285  L 16.95703125 0.785714285714285  C 17.66015625 0.785714285714285  18.28515625 1.01283482142857  18.83203125 1.46707589285714  C 19.37890625 1.92131696428571  19.7265625 2.50855654761905  19.875 3.22879464285714  L 21.05859375 8.64285714285714  L 19.51171875 8.64285714285714  L 18.421875 3.58482142857143  C 18.3359375 3.22470238095238  18.158203125 2.93005952380952  17.888671875 2.70089285714286  C 17.619140625 2.47172619047619  17.30859375 2.35714285714286  16.95703125 2.35714285714286  L 15 2.35714285714286  C 15 2.56994047619048  14.92578125 2.75409226190476  14.77734375 2.90959821428571  C 14.62890625 3.06510416666667  14.453125 3.14285714285714  14.25 3.14285714285714  L 9.75 3.14285714285714  C 9.546875 3.14285714285714  9.37109375 3.06510416666667  9.22265625 2.90959821428571  C 9.07421875 2.75409226190476  9 2.56994047619048  9 2.35714285714286  L 7.04296875 2.35714285714286  C 6.69140625 2.35714285714286  6.380859375 2.47172619047619  6.111328125 2.70089285714286  Z " fill-rule="nonzero" fill="#e00b35" stroke="none" transform="matrix(1 0 0 1 2052 397 )" />
  </g>
</svg>