<?xml version="1.0" encoding="utf-8"?>
<svg version="1.1" xmlns:xlink="http://www.w3.org/1999/xlink" width="24px" height="21px" xmlns="http://www.w3.org/2000/svg">
  <g transform="matrix(1 0 0 1 -2235 -434 )">
    <path d="M 1.5 9  L 22.5 9  C 22.9140625 9  23.267578125 9.146484375  23.560546875 9.439453125  C 23.853515625 9.732421875  24 10.0859375  24 10.5  C 24 10.9140625  23.853515625 11.267578125  23.560546875 11.560546875  C 23.267578125 11.853515625  22.9140625 12  22.5 12  L 22.32421875 12  L 20.9765625 19.7578125  C 20.9140625 20.1171875  20.7421875 20.4140625  20.4609375 20.6484375  C 20.1796875 20.8828125  19.859375 21  19.5 21  L 4.5 21  C 4.140625 21  3.8203125 20.8828125  3.5390625 20.6484375  C 3.2578125 20.4140625  3.0859375 20.1171875  3.0234375 19.7578125  L 1.67578125 12  L 1.5 12  C 1.0859375 12  0.732421875 11.853515625  0.439453125 11.560546875  C 0.146484375 11.267578125  0 10.9140625  0 10.5  C 0 10.0859375  0.146484375 9.732421875  0.439453125 9.439453125  C 0.732421875 9.146484375  1.0859375 9  1.5 9  Z M 5.625 18.375  L 5.68359375 18.375  C 5.88671875 18.359375  6.056640625 18.271484375  6.193359375 18.111328125  C 6.330078125 17.951171875  6.390625 17.76953125  6.375 17.56640625  L 6 12.69140625  C 5.984375 12.48828125  5.896484375 12.318359375  5.736328125 12.181640625  C 5.576171875 12.044921875  5.39453125 11.984375  5.19140625 12  C 4.98828125 12.015625  4.818359375 12.103515625  4.681640625 12.263671875  C 4.544921875 12.423828125  4.484375 12.60546875  4.5 12.80859375  L 4.875 17.68359375  C 4.890625 17.87890625  4.970703125 18.04296875  5.115234375 18.17578125  C 5.259765625 18.30859375  5.4296875 18.375  5.625 18.375  Z M 10.27734375 18.15234375  C 10.42578125 18.00390625  10.5 17.828125  10.5 17.625  L 10.5 12.75  C 10.5 12.546875  10.42578125 12.37109375  10.27734375 12.22265625  C 10.12890625 12.07421875  9.953125 12  9.75 12  C 9.546875 12  9.37109375 12.07421875  9.22265625 12.22265625  C 9.07421875 12.37109375  9 12.546875  9 12.75  L 9 17.625  C 9 17.828125  9.07421875 18.00390625  9.22265625 18.15234375  C 9.37109375 18.30078125  9.546875 18.375  9.75 18.375  C 9.953125 18.375  10.12890625 18.30078125  10.27734375 18.15234375  Z M 14.77734375 18.15234375  C 14.92578125 18.00390625  15 17.828125  15 17.625  L 15 12.75  C 15 12.546875  14.92578125 12.37109375  14.77734375 12.22265625  C 14.62890625 12.07421875  14.453125 12  14.25 12  C 14.046875 12  13.87109375 12.07421875  13.72265625 12.22265625  C 13.57421875 12.37109375  13.5 12.546875  13.5 12.75  L 13.5 17.625  C 13.5 17.828125  13.57421875 18.00390625  13.72265625 18.15234375  C 13.87109375 18.30078125  14.046875 18.375  14.25 18.375  C 14.453125 18.375  14.62890625 18.30078125  14.77734375 18.15234375  Z M 18.884765625 18.17578125  C 19.029296875 18.04296875  19.109375 17.87890625  19.125 17.68359375  L 19.5 12.80859375  C 19.515625 12.60546875  19.455078125 12.423828125  19.318359375 12.263671875  C 19.181640625 12.103515625  19.01171875 12.015625  18.80859375 12  C 18.60546875 11.984375  18.423828125 12.044921875  18.263671875 12.181640625  C 18.103515625 12.318359375  18.015625 12.48828125  18 12.69140625  L 17.625 17.56640625  C 17.609375 17.76953125  17.669921875 17.951171875  17.806640625 18.111328125  C 17.943359375 18.271484375  18.11328125 18.359375  18.31640625 18.375  L 18.375 18.375  C 18.5703125 18.375  18.740234375 18.30859375  18.884765625 18.17578125  Z M 6.111328125 2.578125  C 5.841796875 2.796875  5.6640625 3.078125  5.578125 3.421875  L 4.48828125 8.25  L 2.94140625 8.25  L 4.125 3.08203125  C 4.2734375 2.39453125  4.62109375 1.833984375  5.16796875 1.400390625  C 5.71484375 0.966796874999999  6.33984375 0.75  7.04296875 0.75  L 9 0.75  C 9 0.546874999999999  9.07421875 0.371093749999997  9.22265625 0.222656250000001  C 9.37109375 0.0742187500000018  9.546875 0  9.75 0  L 14.25 0  C 14.453125 0  14.62890625 0.0742187500000018  14.77734375 0.222656250000001  C 14.92578125 0.371093749999997  15 0.546874999999999  15 0.75  L 16.95703125 0.75  C 17.66015625 0.75  18.28515625 0.966796874999999  18.83203125 1.400390625  C 19.37890625 1.833984375  19.7265625 2.39453125  19.875 3.08203125  L 21.05859375 8.25  L 19.51171875 8.25  L 18.421875 3.421875  C 18.3359375 3.078125  18.158203125 2.796875  17.888671875 2.578125  C 17.619140625 2.359375  17.30859375 2.25  16.95703125 2.25  L 15 2.25  C 15 2.453125  14.92578125 2.62890625  14.77734375 2.77734375  C 14.62890625 2.92578125  14.453125 3  14.25 3  L 9.75 3  C 9.546875 3  9.37109375 2.92578125  9.22265625 2.77734375  C 9.07421875 2.62890625  9 2.453125  9 2.25  L 7.04296875 2.25  C 6.69140625 2.25  6.380859375 2.359375  6.111328125 2.578125  Z " fill-rule="nonzero" fill="#e00b35" stroke="none" transform="matrix(1 0 0 1 2235 434 )" />
  </g>
</svg>