<?xml version="1.0" encoding="utf-8"?>
<svg version="1.1" xmlns:xlink="http://www.w3.org/1999/xlink" width="12px" height="12px" viewBox="368 121  12 12" xmlns="http://www.w3.org/2000/svg">
  <path d="M 374 121  C 377.36 121  380 123.64  380 127  C 380 130.36  377.36 133  374 133  C 370.64 133  368 130.36  368 127  C 368 123.64  370.64 121  374 121  Z " fill-rule="nonzero" fill="#ffffff" stroke="none" />
  <path d="M 374 121.5  C 377.08 121.5  379.5 123.92  379.5 127  C 379.5 130.08  377.08 132.5  374 132.5  C 370.92 132.5  368.5 130.08  368.5 127  C 368.5 123.92  370.92 121.5  374 121.5  Z " stroke-width="1" stroke="#797979" fill="none" />
  <path d="M 374 130  C 372.32 130  371 128.68  371 127  C 371 125.32  372.32 124  374 124  C 375.68 124  377 125.32  377 127  C 377 128.68  375.68 130  374 130  " fill-rule="nonzero" fill="#797979" stroke="none" />
</svg>