<?xml version="1.0" encoding="utf-8"?>
<svg version="1.1" xmlns:xlink="http://www.w3.org/1999/xlink" width="12px" height="12px" viewBox="468 121  12 12" xmlns="http://www.w3.org/2000/svg">
  <path d="M 474 121  C 477.36 121  480 123.64  480 127  C 480 130.36  477.36 133  474 133  C 470.64 133  468 130.36  468 127  C 468 123.64  470.64 121  474 121  Z " fill-rule="nonzero" fill="#ffffff" stroke="none" />
  <path d="M 474 121.5  C 477.08 121.5  479.5 123.92  479.5 127  C 479.5 130.08  477.08 132.5  474 132.5  C 470.92 132.5  468.5 130.08  468.5 127  C 468.5 123.92  470.92 121.5  474 121.5  Z " stroke-width="1" stroke="#797979" fill="none" />
  <path d="M 474 130  C 472.32 130  471 128.68  471 127  C 471 125.32  472.32 124  474 124  C 475.68 124  477 125.32  477 127  C 477 128.68  475.68 130  474 130  " fill-rule="nonzero" fill="#797979" stroke="none" />
</svg>