<?xml version="1.0" encoding="utf-8"?>
<svg version="1.1" xmlns:xlink="http://www.w3.org/1999/xlink" width="10px" height="442px" preserveAspectRatio="xMidYMin meet" viewBox="1026 675  8 442" xmlns="http://www.w3.org/2000/svg">
  <defs>
    <mask fill="white" id="clip92">
      <path d="M 993.5 858  L 1066.5 858  L 1066.5 886  L 993.5 886  Z M 980 661  L 1066.5 661  L 1066.5 1122  L 980 1122  Z " fill-rule="evenodd" />
    </mask>
  </defs>
  <path d="M 983 661  L 983 675  A 5 5 0 0 0 988 680 L 1025 680  A 5 5 0 0 1 1030 685 L 1030 1107  A 5 5 0 0 1 1025 1112 L 1013 1112  " stroke-width="2" stroke="#0099cc" fill="none" mask="url(#clip92)" />
  <path d="M 1018.10710678119 1116.29289321881  L 1013.81421356237 1112  L 1018.10710678119 1107.70710678119  L 1016.69289321881 1106.29289321881  L 1011.69289321881 1111.29289321881  L 1010.98578643763 1112  L 1011.69289321881 1112.70710678119  L 1016.69289321881 1117.70710678119  L 1018.10710678119 1116.29289321881  Z " fill-rule="nonzero" fill="#0099cc" stroke="none" mask="url(#clip92)" />
</svg>