<?xml version="1.0" encoding="utf-8"?>
<svg version="1.1" xmlns:xlink="http://www.w3.org/1999/xlink" width="81px" height="38px" xmlns="http://www.w3.org/2000/svg">
  <g transform="matrix(1 0 0 1 -314 -340 )">
    <path d="M 314 340  L 395 340  L 395 378  L 314 378  L 314 340  " fill-rule="nonzero" fill="#cccccc" stroke="none" />
    <path d="M 317 343  L 392 343  L 392 375  L 317 375  L 317 343  " fill-rule="nonzero" fill="#ffffff" stroke="none" />
    <path d="M 358.97 351.4  C 357.374 351.4  356.12 350.146  356.12 348.55  C 356.12 346.954  357.374 345.7  358.97 345.7  C 360.566 345.7  361.82 346.954  361.82 348.55  C 361.82 350.146  360.566 351.4  358.97 351.4  " fill-rule="nonzero" fill="#cccccc" stroke="none" />
    <path d="M 318 374  L 318 357.5  L 336.25 350  L 361.8 365.555555555556  L 376.4 354.5  L 391 365.555555555556  L 391 374  L 318 374  " fill-rule="nonzero" fill="#169bd5" stroke="none" />
  </g>
</svg>