<?xml version="1.0" encoding="utf-8"?>
<svg version="1.1" xmlns:xlink="http://www.w3.org/1999/xlink" width="12px" height="12px" viewBox="844 235  12 12" xmlns="http://www.w3.org/2000/svg">
  <path d="M 850 235  C 853.36 235  856 237.64  856 241  C 856 244.36  853.36 247  850 247  C 846.64 247  844 244.36  844 241  C 844 237.64  846.64 235  850 235  Z " fill-rule="nonzero" fill="#ffffff" stroke="none" />
  <path d="M 850 235.5  C 853.08 235.5  855.5 237.92  855.5 241  C 855.5 244.08  853.08 246.5  850 246.5  C 846.92 246.5  844.5 244.08  844.5 241  C 844.5 237.92  846.92 235.5  850 235.5  Z " stroke-width="1" stroke="#797979" fill="none" />
  <path d="M 850 244  C 848.32 244  847 242.68  847 241  C 847 239.32  848.32 238  850 238  C 851.68 238  853 239.32  853 241  C 853 242.68  851.68 244  850 244  " fill-rule="nonzero" fill="#797979" stroke="none" />
</svg>