<?xml version="1.0" encoding="utf-8"?>
<svg version="1.1" xmlns:xlink="http://www.w3.org/1999/xlink" width="12px" height="12px" viewBox="964 235  12 12" xmlns="http://www.w3.org/2000/svg">
  <path d="M 970 235  C 973.36 235  976 237.64  976 241  C 976 244.36  973.36 247  970 247  C 966.64 247  964 244.36  964 241  C 964 237.64  966.64 235  970 235  Z " fill-rule="nonzero" fill="#ffffff" stroke="none" />
  <path d="M 970 235.5  C 973.08 235.5  975.5 237.92  975.5 241  C 975.5 244.08  973.08 246.5  970 246.5  C 966.92 246.5  964.5 244.08  964.5 241  C 964.5 237.92  966.92 235.5  970 235.5  Z " stroke-width="1" stroke="#797979" fill="none" />
  <path d="M 970 244  C 968.32 244  967 242.68  967 241  C 967 239.32  968.32 238  970 238  C 971.68 238  973 239.32  973 241  C 973 242.68  971.68 244  970 244  " fill-rule="nonzero" fill="#797979" stroke="none" />
</svg>