<?xml version="1.0" encoding="utf-8"?>
<svg version="1.1" xmlns:xlink="http://www.w3.org/1999/xlink" width="149px" height="91px" xmlns="http://www.w3.org/2000/svg">
  <g transform="matrix(1 0 0 1 -173 -366 )">
    <path d="M 173 366  L 322 366  L 322 457  L 173 457  L 173 366  " fill-rule="nonzero" fill="#cccccc" stroke="none" />
    <path d="M 179 372  L 316 372  L 316 451  L 179 451  L 179 372  " fill-rule="nonzero" fill="#ffffff" stroke="none" />
    <path d="M 257.305 393.3  C 253.483 393.3  250.48 390.297  250.48 386.475  C 250.48 382.653  253.483 379.65  257.305 379.65  C 261.127 379.65  264.13 382.653  264.13 386.475  C 264.13 390.297  261.127 393.3  257.305 393.3  " fill-rule="nonzero" fill="#cccccc" stroke="none" />
    <path d="M 182 449  L 182 408.3  L 215 389.8  L 261.2 421.88322147651  L 287.6 400.9  L 314 421.88322147651  L 314 449  L 182 449  " fill-rule="nonzero" fill="#169bd5" stroke="none" />
  </g>
</svg>