<?xml version="1.0" encoding="utf-8"?>
<svg version="1.1" xmlns:xlink="http://www.w3.org/1999/xlink" width="32px" height="39px" xmlns="http://www.w3.org/2000/svg">
  <defs>
    <filter x="1409px" y="487px" width="32px" height="39px" filterUnits="userSpaceOnUse" id="filter77">
      <feOffset dx="1" dy="1" in="SourceAlpha" result="shadowOffsetInner" />
      <feGaussianBlur stdDeviation="2.5" in="shadowOffsetInner" result="shadowGaussian" />
      <feComposite in2="shadowGaussian" operator="atop" in="SourceAlpha" result="shadowComposite" />
      <feColorMatrix type="matrix" values="0 0 0 0 0  0 0 0 0 0  0 0 0 0 0  0 0 0 0.698039215686274 0  " in="shadowComposite" />
    </filter>
    <g id="widget78">
      <path d="M 1424 519.044323059352  C 1419.8 512.161891113447  1413.5 508.032431945905  1413.5 501.15  C 1413.5 497.565714285714  1415.6 491.5  1424 491.5  C 1432.4 491.5  1434.5 497.565714285714  1434.5 501.15  C 1434.5 508.032431945905  1428.2 512.161891113447  1424 519.044323059352  Z " fill-rule="nonzero" fill="#009dd9" stroke="none" />
      <path d="M 1424 520  C 1419.6 512.75  1413 508.4  1413 501.15  C 1413 497.38  1415.2 491  1424 491  C 1432.8 491  1435 497.38  1435 501.15  C 1435 508.4  1428.4 512.75  1424 520  Z M 1424 518.088646118704  C 1428 511.573782226895  1434 507.664863891809  1434 501.15  C 1434 497.751428571429  1432 492  1424 492  C 1416 492  1414 497.751428571429  1414 501.15  C 1414 507.664863891809  1420 511.573782226895  1424 518.088646118704  Z " fill-rule="nonzero" fill="#ffffff" stroke="none" />
    </g>
  </defs>
  <g transform="matrix(1 0 0 1 -1409 -487 )">
    <use xlink:href="#widget78" filter="url(#filter77)" />
    <use xlink:href="#widget78" />
  </g>
</svg>