<?xml version="1.0" encoding="utf-8"?>
<svg version="1.1" xmlns:xlink="http://www.w3.org/1999/xlink" width="90px" height="90px" xmlns="http://www.w3.org/2000/svg">
  <defs>
    <linearGradient gradientUnits="userSpaceOnUse" x1="45" y1="0" x2="45" y2="90" id="LinearGradient28">
      <stop id="Stop29" stop-color="#ffffff" offset="0" />
      <stop id="Stop30" stop-color="#f2f2f2" offset="0" />
      <stop id="Stop31" stop-color="#e4e4e4" offset="1" />
      <stop id="Stop32" stop-color="#ffffff" offset="1" />
    </linearGradient>
    <mask fill="white" id="clip33">
      <path d="M 74.1430700447094 79  C 74.1430700447094 79  90.1562775713547 63.6256142120224  89.3966922310491 44.7764349563909  C 88.3467536547125 18.7221137594906  69.4069959479529 -0.125371122474963  44.2514442965201 0.000627982520480685  C 19.3461904151504 0.125373396265271  0.0625741884316717 19.6403946306658  0.000161667625031114 44.7764349563909  C -0.0625668281671619 70.0397311576305  18.1467555361344 82.0367647058824  23.8450074515802 85.125  C 29.5432593670264 88.2132352941176  39.8658718330849 90  39.8658718330849 90  L 89.3966922310491 90  L 89.3966922310491 79  L 74.1430700447094 79  Z " fill-rule="evenodd" />
    </mask>
  </defs>
  <g transform="matrix(1 0 0 1 -988 -796 )">
    <path d="M 74.1430700447094 79  C 74.1430700447094 79  90.1562775713547 63.6256142120224  89.3966922310491 44.7764349563909  C 88.3467536547125 18.7221137594906  69.4069959479529 -0.125371122474963  44.2514442965201 0.000627982520480685  C 19.3461904151504 0.125373396265271  0.0625741884316717 19.6403946306658  0.000161667625031114 44.7764349563909  C -0.0625668281671619 70.0397311576305  18.1467555361344 82.0367647058824  23.8450074515802 85.125  C 29.5432593670264 88.2132352941176  39.8658718330849 90  39.8658718330849 90  L 89.3966922310491 90  L 89.3966922310491 79  L 74.1430700447094 79  Z " fill-rule="nonzero" fill="url(#LinearGradient28)" stroke="none" transform="matrix(1 0 0 1 988 796 )" />
    <path d="M 74.1430700447094 79  C 74.1430700447094 79  90.1562775713547 63.6256142120224  89.3966922310491 44.7764349563909  C 88.3467536547125 18.7221137594906  69.4069959479529 -0.125371122474963  44.2514442965201 0.000627982520480685  C 19.3461904151504 0.125373396265271  0.0625741884316717 19.6403946306658  0.000161667625031114 44.7764349563909  C -0.0625668281671619 70.0397311576305  18.1467555361344 82.0367647058824  23.8450074515802 85.125  C 29.5432593670264 88.2132352941176  39.8658718330849 90  39.8658718330849 90  L 89.3966922310491 90  L 89.3966922310491 79  L 74.1430700447094 79  Z " stroke-width="2" stroke="#797979" fill="none" transform="matrix(1 0 0 1 988 796 )" mask="url(#clip33)" />
  </g>
</svg>