<?xml version="1.0" encoding="utf-8"?>
<svg version="1.1" xmlns:xlink="http://www.w3.org/1999/xlink" width="58px" height="60px" xmlns="http://www.w3.org/2000/svg">
  <defs>
    <linearGradient gradientUnits="userSpaceOnUse" x1="1684" y1="180" x2="1684" y2="240" id="LinearGradient35">
      <stop id="Stop36" stop-color="#ffffff" offset="0" />
      <stop id="Stop37" stop-color="#f2f2f2" offset="0" />
      <stop id="Stop38" stop-color="#e4e4e4" offset="1" />
      <stop id="Stop39" stop-color="#ffffff" offset="1" />
    </linearGradient>
  </defs>
  <g transform="matrix(1 0 0 1 -1655 -180 )">
    <path d="M 1684 180  C 1700.24 180  1713 193.2  1713 210  C 1713 226.8  1700.24 240  1684 240  C 1667.76 240  1655 226.8  1655 210  C 1655 193.2  1667.76 180  1684 180  Z " fill-rule="nonzero" fill="url(#LinearGradient35)" stroke="none" />
    <path d="M 1684 180.5  C 1699.96 180.5  1712.5 193.48  1712.5 210  C 1712.5 226.52  1699.96 239.5  1684 239.5  C 1668.04 239.5  1655.5 226.52  1655.5 210  C 1655.5 193.48  1668.04 180.5  1684 180.5  Z " stroke-width="1" stroke="#797979" fill="none" />
  </g>
</svg>