<?xml version="1.0" encoding="utf-8"?>
<svg version="1.1" xmlns:xlink="http://www.w3.org/1999/xlink" width="100px" height="60px" xmlns="http://www.w3.org/2000/svg">
  <defs>
    <mask fill="white" id="clip45">
      <path d="M 53.921568627451 0.490196078431367  L 0.490196078431367 0.490196078431367  L 0.490196078431367 59.0686274509804  L 53.921568627451 59.0686274509804  C 53.921568627451 59.0686274509804  100 61.2745098039216  100 29.9019607843137  C 100 -1.47058823529412  53.921568627451 0.490196078431367  53.921568627451 0.490196078431367  Z " fill-rule="evenodd" />
    </mask>
  </defs>
  <g transform="matrix(1 0 0 1 -1972 -598 )">
    <path d="M 53.921568627451 0.490196078431367  L 0.490196078431367 0.490196078431367  L 0.490196078431367 59.0686274509804  L 53.921568627451 59.0686274509804  C 53.921568627451 59.0686274509804  100 61.2745098039216  100 29.9019607843137  C 100 -1.47058823529412  53.921568627451 0.490196078431367  53.921568627451 0.490196078431367  Z " fill-rule="nonzero" fill="#ffff80" stroke="none" transform="matrix(1 0 0 1 1972 598 )" />
    <path d="M 53.921568627451 0.490196078431367  L 0.490196078431367 0.490196078431367  L 0.490196078431367 59.0686274509804  L 53.921568627451 59.0686274509804  C 53.921568627451 59.0686274509804  100 61.2745098039216  100 29.9019607843137  C 100 -1.47058823529412  53.921568627451 0.490196078431367  53.921568627451 0.490196078431367  Z " stroke-width="2" stroke="#797979" fill="none" transform="matrix(1 0 0 1 1972 598 )" mask="url(#clip45)" />
  </g>
</svg>