<?xml version="1.0" encoding="utf-8"?>
<svg version="1.1" xmlns:xlink="http://www.w3.org/1999/xlink" width="486px" height="40px" xmlns="http://www.w3.org/2000/svg">
  <defs>
    <linearGradient gradientUnits="userSpaceOnUse" x1="243" y1="0" x2="243" y2="40" id="LinearGradient45">
      <stop id="Stop46" stop-color="#ffffff" offset="0" />
      <stop id="Stop47" stop-color="#f2f2f2" offset="0" />
      <stop id="Stop48" stop-color="#e4e4e4" offset="1" />
      <stop id="Stop49" stop-color="#ffffff" offset="1" />
    </linearGradient>
    <mask fill="white" id="clip50">
      <path d="M 419.836633663367 0.169491525423736  L 345.06 0.169491525423736  L 58.9455445544549 0.169491525423736  C 58.9455445544549 0.169491525423736  3.72283188868389 8.88863143551771  3.60891089108919 20  C 3.49414608921457 31.1936696375067  58.9455445544549 40  58.9455445544549 40  L 419.836633663367 40  C 419.836633663367 40  481.311583286799 31.1924495293299  481.188118811882 20  C 481.065535367018 8.8874186629652  419.836633663367 0.169491525423736  419.836633663367 0.169491525423736  Z " fill-rule="evenodd" />
    </mask>
  </defs>
  <g transform="matrix(1 0 0 1 -2032 -822 )">
    <path d="M 419.836633663367 0.169491525423736  L 345.06 0.169491525423736  L 58.9455445544549 0.169491525423736  C 58.9455445544549 0.169491525423736  3.72283188868389 8.88863143551771  3.60891089108919 20  C 3.49414608921457 31.1936696375067  58.9455445544549 40  58.9455445544549 40  L 419.836633663367 40  C 419.836633663367 40  481.311583286799 31.1924495293299  481.188118811882 20  C 481.065535367018 8.8874186629652  419.836633663367 0.169491525423736  419.836633663367 0.169491525423736  Z " fill-rule="nonzero" fill="url(#LinearGradient45)" stroke="none" transform="matrix(1 0 0 1 2032 822 )" />
    <path d="M 419.836633663367 0.169491525423736  L 345.06 0.169491525423736  L 58.9455445544549 0.169491525423736  C 58.9455445544549 0.169491525423736  3.72283188868389 8.88863143551771  3.60891089108919 20  C 3.49414608921457 31.1936696375067  58.9455445544549 40  58.9455445544549 40  L 419.836633663367 40  C 419.836633663367 40  481.311583286799 31.1924495293299  481.188118811882 20  C 481.065535367018 8.8874186629652  419.836633663367 0.169491525423736  419.836633663367 0.169491525423736  Z " stroke-width="2" stroke="#797979" fill="none" transform="matrix(1 0 0 1 2032 822 )" mask="url(#clip50)" />
  </g>
</svg>