<?xml version="1.0" encoding="utf-8"?>
<svg version="1.1" xmlns:xlink="http://www.w3.org/1999/xlink" width="123px" height="69px" xmlns="http://www.w3.org/2000/svg">
  <defs>
    <linearGradient gradientUnits="userSpaceOnUse" x1="61.5" y1="0" x2="61.5" y2="69" id="LinearGradient6">
      <stop id="Stop7" stop-color="#ffffff" offset="0" />
      <stop id="Stop8" stop-color="#f2f2f2" offset="0" />
      <stop id="Stop9" stop-color="#e4e4e4" offset="1" />
      <stop id="Stop10" stop-color="#ffffff" offset="1" />
    </linearGradient>
    <mask fill="white" id="clip11">
      <path d="M 0 69  L 0 0  L 123 0  L 123 31  L 123 69  L 0 69  Z " fill-rule="evenodd" />
    </mask>
  </defs>
  <g transform="matrix(1 0 0 1 -426 -433 )">
    <path d="M 0 69  L 0 0  L 123 0  L 123 31  L 123 69  L 0 69  Z " fill-rule="nonzero" fill="url(#LinearGradient6)" stroke="none" transform="matrix(1 0 0 1 426 433 )" />
    <path d="M 0 69  L 0 0  L 123 0  L 123 31  L 123 69  L 0 69  Z " stroke-width="2" stroke="#797979" fill="none" transform="matrix(1 0 0 1 426 433 )" mask="url(#clip11)" />
  </g>
</svg>