<?xml version="1.0" encoding="utf-8"?>
<svg version="1.1" xmlns:xlink="http://www.w3.org/1999/xlink" width="100px" height="45px" xmlns="http://www.w3.org/2000/svg">
  <defs>
    <linearGradient gradientUnits="userSpaceOnUse" x1="50" y1="0" x2="50" y2="45" id="LinearGradient12">
      <stop id="Stop13" stop-color="#ffffff" offset="0" />
      <stop id="Stop14" stop-color="#f2f2f2" offset="0" />
      <stop id="Stop15" stop-color="#e4e4e4" offset="1" />
      <stop id="Stop16" stop-color="#ffffff" offset="1" />
    </linearGradient>
    <mask fill="white" id="clip17">
      <path d="M 86.3861386138614 0.190677966101699  L 12.1287128712871 0.190677966101699  C 12.1287128712871 0.190677966101699  0.766014791910351 9.99971036495738  0.742574257425744 22.5  C 0.718960100661477 35.0928783421951  12.1287128712871 45  12.1287128712871 45  L 86.3861386138614 45  C 86.3861386138614 45  99.0353052030451 35.0915057204961  99.009900990099 22.5  C 98.9846780590572 9.99834599583583  86.3861386138614 0.190677966101699  86.3861386138614 0.190677966101699  Z " fill-rule="evenodd" />
    </mask>
  </defs>
  <g transform="matrix(1 0 0 1 -562 -553 )">
    <path d="M 86.3861386138614 0.190677966101699  L 12.1287128712871 0.190677966101699  C 12.1287128712871 0.190677966101699  0.766014791910351 9.99971036495738  0.742574257425744 22.5  C 0.718960100661477 35.0928783421951  12.1287128712871 45  12.1287128712871 45  L 86.3861386138614 45  C 86.3861386138614 45  99.0353052030451 35.0915057204961  99.009900990099 22.5  C 98.9846780590572 9.99834599583583  86.3861386138614 0.190677966101699  86.3861386138614 0.190677966101699  Z " fill-rule="nonzero" fill="url(#LinearGradient12)" stroke="none" transform="matrix(1 0 0 1 562 553 )" />
    <path d="M 86.3861386138614 0.190677966101699  L 12.1287128712871 0.190677966101699  C 12.1287128712871 0.190677966101699  0.766014791910351 9.99971036495738  0.742574257425744 22.5  C 0.718960100661477 35.0928783421951  12.1287128712871 45  12.1287128712871 45  L 86.3861386138614 45  C 86.3861386138614 45  99.0353052030451 35.0915057204961  99.009900990099 22.5  C 98.9846780590572 9.99834599583583  86.3861386138614 0.190677966101699  86.3861386138614 0.190677966101699  Z " stroke-width="2" stroke="#797979" fill="none" transform="matrix(1 0 0 1 562 553 )" mask="url(#clip17)" />
  </g>
</svg>