<?xml version="1.0" encoding="utf-8"?>
<svg version="1.1" xmlns:xlink="http://www.w3.org/1999/xlink" width="51px" height="81px" xmlns="http://www.w3.org/2000/svg">
  <defs>
    <linearGradient gradientUnits="userSpaceOnUse" x1="1482" y1="553" x2="1482" y2="633" id="LinearGradient23">
      <stop id="Stop24" stop-color="#ffffff" offset="0" />
      <stop id="Stop25" stop-color="#f2f2f2" offset="0" />
      <stop id="Stop26" stop-color="#e4e4e4" offset="1" />
      <stop id="Stop27" stop-color="#ffffff" offset="1" />
    </linearGradient>
  </defs>
  <g transform="matrix(1 0 0 1 -1457 -553 )">
    <path d="M 1482 553.5  C 1487.32 553.5  1491.5 557.68  1491.5 563  C 1491.5 568.32  1487.32 572.5  1482 572.5  C 1476.68 572.5  1472.5 568.32  1472.5 563  C 1472.5 557.68  1476.68 553.5  1482 553.5  Z " fill-rule="nonzero" fill="url(#LinearGradient23)" stroke="none" />
    <path d="M 1482 553.5  C 1487.32 553.5  1491.5 557.68  1491.5 563  C 1491.5 568.32  1487.32 572.5  1482 572.5  C 1476.68 572.5  1472.5 568.32  1472.5 563  C 1472.5 557.68  1476.68 553.5  1482 553.5  Z " stroke-width="1" stroke="#797979" fill="none" />
    <path d="M 1457 583  L 1507 583  M 1482 573  L 1482 608  M 1462 633  L 1482 608  M 1482 608  L 1502 633  " stroke-width="1" stroke="#797979" fill="none" />
  </g>
</svg>