<?xml version="1.0" encoding="utf-8"?>
<svg version="1.1" xmlns:xlink="http://www.w3.org/1999/xlink" width="45px" height="41px" xmlns="http://www.w3.org/2000/svg">
  <g transform="matrix(1 0 0 1 -351 -946 )">
    <path d="M 351 946  L 396 946  L 396 987  L 351 987  L 351 946  " fill-rule="nonzero" fill="#cccccc" stroke="none" />
    <path d="M 354 949  L 393 949  L 393 984  L 354 984  L 354 949  " fill-rule="nonzero" fill="#ffffff" stroke="none" />
    <path d="M 377.475 958.3  C 375.753 958.3  374.4 956.947  374.4 955.225  C 374.4 953.503  375.753 952.15  377.475 952.15  C 379.197 952.15  380.55 953.503  380.55 955.225  C 380.55 956.947  379.197 958.3  377.475 958.3  " fill-rule="nonzero" fill="#cccccc" stroke="none" />
    <path d="M 355 983  L 355 964.85  L 364.25 956.6  L 377.2 964.96  L 384.6 961.55  L 392 964.96  L 392 983  L 355 983  " fill-rule="nonzero" fill="#169bd5" stroke="none" />
  </g>
</svg>