<?xml version="1.0" encoding="utf-8"?>
<svg version="1.1" xmlns:xlink="http://www.w3.org/1999/xlink" width="62px" height="62px" xmlns="http://www.w3.org/2000/svg">
  <g transform="matrix(1 0 0 1 -267 -445 )">
    <path d="M 298 445  C 315.36 445  329 458.64  329 476  C 329 493.36  315.36 507  298 507  C 280.64 507  267 493.36  267 476  C 267 458.64  280.64 445  298 445  Z " fill-rule="nonzero" fill="#ffffff" stroke="none" />
    <path d="M 298 445.5  C 315.08 445.5  328.5 458.92  328.5 476  C 328.5 493.08  315.08 506.5  298 506.5  C 280.92 506.5  267.5 493.08  267.5 476  C 267.5 458.92  280.92 445.5  298 445.5  Z " stroke-width="1" stroke="#797979" fill="none" />
  </g>
</svg>