<?xml version="1.0" encoding="utf-8"?>
<svg version="1.1" xmlns:xlink="http://www.w3.org/1999/xlink" width="115px" height="20px" xmlns="http://www.w3.org/2000/svg">
  <defs>
    <mask fill="white" id="clip76">
      <path d="M 0 15  L 0 5  C 0 2.19999999999999  2.20000000000005 0  5 0  L 68.9879518072316 0  L 89.5294117647076 0  L 97.7999999999993 0  L 110 0  C 112.8 0  115 2.19999999999999  115 5  L 115 15  C 115 17.8  112.8 20  110 20  L 5 20  C 2.20000000000005 20  0 17.8  0 15  Z " fill-rule="evenodd" />
    </mask>
  </defs>
  <g transform="matrix(1 0 0 1 -298 -321 )">
    <path d="M 0 15  L 0 5  C 0 2.19999999999999  2.20000000000005 0  5 0  L 68.9879518072316 0  L 89.5294117647076 0  L 97.7999999999993 0  L 110 0  C 112.8 0  115 2.19999999999999  115 5  L 115 15  C 115 17.8  112.8 20  110 20  L 5 20  C 2.20000000000005 20  0 17.8  0 15  Z " fill-rule="nonzero" fill="#ffffff" stroke="none" transform="matrix(1 0 0 1 298 321 )" />
    <path d="M 0 15  L 0 5  C 0 2.19999999999999  2.20000000000005 0  5 0  L 68.9879518072316 0  L 89.5294117647076 0  L 97.7999999999993 0  L 110 0  C 112.8 0  115 2.19999999999999  115 5  L 115 15  C 115 17.8  112.8 20  110 20  L 5 20  C 2.20000000000005 20  0 17.8  0 15  Z " stroke-width="2" stroke="#797979" fill="none" transform="matrix(1 0 0 1 298 321 )" mask="url(#clip76)" />
  </g>
</svg>