<?xml version="1.0" encoding="utf-8"?>
<svg version="1.1" xmlns:xlink="http://www.w3.org/1999/xlink" width="21px" height="21px" xmlns="http://www.w3.org/2000/svg">
  <g transform="matrix(1 0 0 1 -135 -709 )">
    <path d="M 145.5 709  C 151.38 709  156 713.62  156 719.5  C 156 725.38  151.38 730  145.5 730  C 139.62 730  135 725.38  135 719.5  C 135 713.62  139.62 709  145.5 709  Z " fill-rule="nonzero" fill="#ffffff" stroke="none" />
    <path d="M 145.5 709.5  C 151.1 709.5  155.5 713.9  155.5 719.5  C 155.5 725.1  151.1 729.5  145.5 729.5  C 139.9 729.5  135.5 725.1  135.5 719.5  C 135.5 713.9  139.9 709.5  145.5 709.5  Z " stroke-width="1" stroke="#797979" fill="none" />
  </g>
</svg>