<?xml version="1.0" encoding="utf-8"?>
<svg version="1.1" xmlns:xlink="http://www.w3.org/1999/xlink" width="13px" height="13px" xmlns="http://www.w3.org/2000/svg">
  <g transform="matrix(1 0 0 1 -105 -412 )">
    <path d="M 111.5 412  C 115.14 412  118 414.86  118 418.5  C 118 422.14  115.14 425  111.5 425  C 107.86 425  105 422.14  105 418.5  C 105 414.86  107.86 412  111.5 412  Z " fill-rule="nonzero" fill="#ffffff" stroke="none" />
    <path d="M 111.5 412.5  C 114.86 412.5  117.5 415.14  117.5 418.5  C 117.5 421.86  114.86 424.5  111.5 424.5  C 108.14 424.5  105.5 421.86  105.5 418.5  C 105.5 415.14  108.14 412.5  111.5 412.5  Z " stroke-width="1" stroke="#70b603" fill="none" />
  </g>
</svg>