<?xml version="1.0" encoding="utf-8"?>
<svg version="1.1" xmlns:xlink="http://www.w3.org/1999/xlink" width="80px" height="15px" xmlns="http://www.w3.org/2000/svg">
  <defs>
    <mask fill="white" id="clip85">
      <path d="M 0 11.4705882352941  L 0 3.52941176470589  C 0 1.55294117647055  1.75999999999999 0  4 0  L 24.6521739130435 0  L 47.3333333333353 0  L 59.6410256410257 0  L 60.3247863247889 0  L 76 0  C 78.24 0  80 1.55294117647055  80 3.52941176470589  L 80 11.4705882352941  C 80 13.4470588235294  78.24 15  76 15  L 51.608695652174 15  L 35.0869565217392 15  L 4 15  C 1.75999999999999 15  0 13.4470588235294  0 11.4705882352941  Z " fill-rule="evenodd" />
    </mask>
  </defs>
  <g transform="matrix(1 0 0 1 -687 -415 )">
    <path d="M 0 11.4705882352941  L 0 3.52941176470589  C 0 1.55294117647055  1.75999999999999 0  4 0  L 24.6521739130435 0  L 47.3333333333353 0  L 59.6410256410257 0  L 60.3247863247889 0  L 76 0  C 78.24 0  80 1.55294117647055  80 3.52941176470589  L 80 11.4705882352941  C 80 13.4470588235294  78.24 15  76 15  L 51.608695652174 15  L 35.0869565217392 15  L 4 15  C 1.75999999999999 15  0 13.4470588235294  0 11.4705882352941  Z " fill-rule="nonzero" fill="#ffffff" stroke="none" transform="matrix(1 0 0 1 687 415 )" />
    <path d="M 0 11.4705882352941  L 0 3.52941176470589  C 0 1.55294117647055  1.75999999999999 0  4 0  L 24.6521739130435 0  L 47.3333333333353 0  L 59.6410256410257 0  L 60.3247863247889 0  L 76 0  C 78.24 0  80 1.55294117647055  80 3.52941176470589  L 80 11.4705882352941  C 80 13.4470588235294  78.24 15  76 15  L 51.608695652174 15  L 35.0869565217392 15  L 4 15  C 1.75999999999999 15  0 13.4470588235294  0 11.4705882352941  Z " stroke-width="2" stroke="#666666" fill="none" transform="matrix(1 0 0 1 687 415 )" mask="url(#clip85)" />
  </g>
</svg>