<?xml version="1.0" encoding="utf-8"?>
<svg version="1.1" xmlns:xlink="http://www.w3.org/1999/xlink" width="57px" height="17px" xmlns="http://www.w3.org/2000/svg">
  <defs>
    <mask fill="white" id="clip86">
      <path d="M 0 13  L 0 4  C 0 1.75999999999999  1.75999999999999 0  4 0  L 26.6000000000022 0  L 53 0  C 55.24 0  57 1.75999999999999  57 4  L 57 13  C 57 15.24  55.24 17  53 17  L 4 17  C 1.75999999999999 17  0 15.24  0 13  Z " fill-rule="evenodd" />
    </mask>
  </defs>
  <g transform="matrix(1 0 0 1 -500 -413 )">
    <path d="M 0 13  L 0 4  C 0 1.75999999999999  1.75999999999999 0  4 0  L 26.6000000000022 0  L 53 0  C 55.24 0  57 1.75999999999999  57 4  L 57 13  C 57 15.24  55.24 17  53 17  L 4 17  C 1.75999999999999 17  0 15.24  0 13  Z " fill-rule="nonzero" fill="#ffffff" stroke="none" transform="matrix(1 0 0 1 500 413 )" />
    <path d="M 0 13  L 0 4  C 0 1.75999999999999  1.75999999999999 0  4 0  L 26.6000000000022 0  L 53 0  C 55.24 0  57 1.75999999999999  57 4  L 57 13  C 57 15.24  55.24 17  53 17  L 4 17  C 1.75999999999999 17  0 15.24  0 13  Z " stroke-width="2" stroke="#666666" fill="none" transform="matrix(1 0 0 1 500 413 )" mask="url(#clip86)" />
  </g>
</svg>