<?xml version="1.0" encoding="utf-8"?>
<svg version="1.1" xmlns:xlink="http://www.w3.org/1999/xlink" width="43px" height="40px" xmlns="http://www.w3.org/2000/svg">
  <g transform="matrix(1 0 0 1 -1324 -344 )">
    <path d="M 0 8.57142857142857  L 21.5 0  L 43 8.57142857142857  L 43 11.4285714285714  L 40.1333333333333 11.4285714285714  C 40.1333333333333 11.8154761904762  39.9802951388889 12.1502976190476  39.67421875 12.4330357142857  C 39.3681423611111 12.7157738095238  39.0060763888889 12.8571428571429  38.5880208333333 13  L 4.41197916666667 13  C 3.99392361111111 12.8571428571429  3.63185763888889 12.7157738095238  3.32578125 12.4330357142857  C 3.01970486111111 12.1502976190476  2.86666666666667 11.8154761904762  2.86666666666667 11.4285714285714  L 0 11.4285714285714  L 0 8.57142857142857  Z M 6 31.4285714285714  L 6 14.2857142857143  L 12 14.2857142857143  L 12 31.4285714285714  L 15 31.4285714285714  L 15 14.2857142857143  L 20 14.2857142857143  L 20 31.4285714285714  L 23 31.4285714285714  L 23 14.2857142857143  L 28 14.2857142857143  L 28 31.4285714285714  L 31 31.4285714285714  L 31 14.2857142857143  L 37 14.2857142857143  L 37 31.4285714285714  L 38.5880208333333 31.4285714285714  C 39.0060763888889 31.4285714285714  39.3681423611111 31.5699404761905  39.67421875 31.8526785714286  C 39.9802951388889 32.1354166666667  40.1333333333333 32.4702380952381  40.1333333333333 32.8571428571429  L 40.1333333333333 34  L 2.86666666666667 34  L 2.86666666666667 32.8571428571429  C 2.86666666666667 32.4702380952381  3.01970486111111 32.1354166666667  3.32578125 31.8526785714286  C 3.63185763888889 31.5699404761905  3.99392361111111 31.4285714285714  4.41197916666667 31.4285714285714  L 6 31.4285714285714  Z M 1.5453125 35  L 41.4546875 35  C 41.8727430555556 35.7142857142857  42.2348090277778 35.8556547619048  42.5408854166667 36.1383928571429  C 42.8469618055556 36.421130952381  43 36.7559523809524  43 37.1428571428571  L 43 40  L 0 40  L 0 37.1428571428571  C 0 36.7559523809524  0.153038194444444 36.421130952381  0.459114583333333 36.1383928571429  C 0.765190972222222 35.8556547619048  1.12725694444444 35.7142857142857  1.5453125 35  Z " fill-rule="nonzero" fill="#000000" stroke="none" transform="matrix(1 0 0 1 1324 344 )" />
  </g>
</svg>