<?xml version="1.0" encoding="utf-8"?>
<svg version="1.1" xmlns:xlink="http://www.w3.org/1999/xlink" width="40px" height="40px" xmlns="http://www.w3.org/2000/svg">
  <g transform="matrix(1 0 0 1 -1219 -344 )">
    <path d="M 30.9895833333333 30.9895833333333  C 34.0335648148148 27.9456018518519  35.5555555555556 24.2824074074074  35.5555555555556 20  C 35.5555555555556 15.7175925925926  34.0335648148148 12.0543981481481  30.9895833333333 9.01041666666666  C 27.9456018518519 5.96643518518518  24.2824074074074 4.44444444444445  20 4.44444444444445  C 15.7175925925926 4.44444444444445  12.0543981481481 5.96643518518518  9.01041666666667 9.01041666666666  C 5.96643518518519 12.0543981481481  4.44444444444444 15.7175925925926  4.44444444444444 20  C 4.44444444444444 24.2824074074074  5.96643518518519 27.9456018518519  9.01041666666667 30.9895833333333  C 12.0543981481481 34.0335648148148  15.7175925925926 35.5555555555556  20 35.5555555555556  C 24.2824074074074 35.5555555555556  27.9456018518519 34.0335648148148  30.9895833333333 30.9895833333333  Z M 38.4201388888889 12.2395833333333  C 39.4733796296296 14.7048611111111  40 17.2916666666667  40 20  C 40 22.7083333333333  39.4733796296296 25.2951388888889  38.4201388888889 27.7604166666667  C 37.3668981481482 30.2256944444444  35.943287037037 32.3553240740741  34.1493055555556 34.1493055555556  C 32.3553240740741 35.943287037037  30.2256944444444 37.3668981481482  27.7604166666667 38.4201388888889  C 25.2951388888889 39.4733796296296  22.7083333333333 40  20 40  C 17.2916666666667 40  14.7048611111111 39.4733796296296  12.2395833333333 38.4201388888889  C 9.77430555555556 37.3668981481482  7.64467592592593 35.943287037037  5.85069444444444 34.1493055555556  C 4.05671296296296 32.3553240740741  2.63310185185185 30.2256944444444  1.57986111111111 27.7604166666667  C 0.52662037037037 25.2951388888889  0 22.7083333333333  0 20  C 0 17.2916666666667  0.52662037037037 14.7048611111111  1.57986111111111 12.2395833333333  C 2.63310185185185 9.77430555555555  4.05671296296296 7.64467592592592  5.85069444444444 5.85069444444445  C 7.64467592592593 4.05671296296296  9.77430555555556 2.63310185185185  12.2395833333333 1.57986111111111  C 14.7048611111111 0.526620370370363  17.2916666666667 0  20 0  C 22.7083333333333 0  25.2951388888889 0.526620370370363  27.7604166666667 1.57986111111111  C 30.2256944444444 2.63310185185185  32.3553240740741 4.05671296296296  34.1493055555556 5.85069444444445  C 35.943287037037 7.64467592592592  37.3668981481482 9.77430555555555  38.4201388888889 12.2395833333333  Z " fill-rule="nonzero" fill="#000000" stroke="none" transform="matrix(1 0 0 1 1219 344 )" />
  </g>
</svg>