<?xml version="1.0" encoding="utf-8"?>
<svg version="1.1" xmlns:xlink="http://www.w3.org/1999/xlink" width="40px" height="40px" xmlns="http://www.w3.org/2000/svg">
  <g transform="matrix(1 0 0 1 -1219 -454 )">
    <path d="M 9.44807121661721 23.026706231454  L 23.026706231454 9.44807121661721  L 30.5281899109792 16.9495548961424  L 16.9495548961424 30.5281899109792  L 9.44807121661721 23.026706231454  Z M 16.9495548961424 33.1157270029674  C 17.3768545994065 33.1157270029674  17.7329376854599 32.973293768546  18.0178041543027 32.6884272997033  L 32.6884272997033 18.0178041543027  C 32.9891196834817 17.7171117705242  33.1394658753709 17.3610286844708  33.1394658753709 16.9495548961424  C 33.1394658753709 16.538081107814  32.9891196834817 16.1819980217606  32.6884272997033 15.8813056379822  L 24.0949554896142 7.28783382789318  C 23.8100890207715 7.00296735905045  23.4540059347181 6.86053412462908  23.026706231454 6.86053412462908  C 22.5994065281899 6.86053412462908  22.2433234421365 7.00296735905045  21.9584569732938 7.28783382789318  L 7.28783382789318 21.9584569732938  C 6.98714144411474 22.2591493570722  6.83679525222552 22.6152324431256  6.83679525222552 23.026706231454  C 6.83679525222552 23.4381800197824  6.98714144411474 23.7942631058358  7.28783382789318 24.0949554896142  L 15.8813056379822 32.6884272997033  C 16.1661721068249 32.973293768546  16.5222551928783 33.1157270029674  16.9495548961424 33.1157270029674  Z M 40 15.4183976261128  C 40 16.2650840751731  39.7072205736894 16.9812067260138  39.1216617210683 17.566765578635  L 17.5905044510386 39.1216617210683  C 17.0049455984174 39.7072205736894  16.2888229475767 40  15.4421364985163 40  C 14.595450049456 40  13.8793273986152 39.7072205736894  13.2937685459941 39.1216617210683  L 10.3026706231454 36.1305637982196  C 11.188921859545 35.24431256182  11.6320474777448 34.1681503461919  11.6320474777448 32.9020771513353  C 11.6320474777448 31.6360039564787  11.188921859545 30.5598417408506  10.3026706231454 29.673590504451  C 9.4164193867458 28.7873392680514  8.34025717111771 28.3442136498516  7.07418397626113 28.3442136498516  C 5.80811078140455 28.3442136498516  4.73194856577646 28.7873392680514  3.84569732937686 29.673590504451  L 0.878338278931751 26.6824925816024  C 0.292779426310584 26.0969337289812  0 25.3808110781404  0 24.5341246290801  C 0 23.6874381800198  0.292779426310584 22.971315529179  0.878338278931751 22.3857566765579  L 22.4094955489614 0.878338278931752  C 22.9950544015826 0.292779426310581  23.7111770524233 0  24.5578635014837 0  C 25.404549950544 0  26.1206726013848 0.292779426310581  26.7062314540059 0.878338278931752  L 29.673590504451 3.84569732937686  C 28.7873392680514 4.73194856577646  28.3442136498516 5.80811078140455  28.3442136498516 7.07418397626113  C 28.3442136498516 8.3402571711177  28.7873392680514 9.41641938674579  29.673590504451 10.3026706231454  C 30.5598417408506 11.188921859545  31.6360039564787 11.6320474777448  32.9020771513353 11.6320474777448  C 34.1681503461919 11.6320474777448  35.24431256182 11.188921859545  36.1305637982196 10.3026706231454  L 39.1216617210683 13.2700296735905  C 39.7072205736894 13.8555885262117  40 14.5717111770524  40 15.4183976261128  Z " fill-rule="nonzero" fill="#000000" stroke="none" transform="matrix(1 0 0 1 1219 454 )" />
  </g>
</svg>