<?xml version="1.0" encoding="utf-8"?>
<svg version="1.1" xmlns:xlink="http://www.w3.org/1999/xlink" width="82px" height="64px" xmlns="http://www.w3.org/2000/svg">
  <g transform="matrix(1 0 0 1 -293 -487 )">
    <path d="M 24.9416666666667 13  C 26.5361111111111 14.5555555555556  27.3333333333333 16.4444444444444  27.3333333333333 18.6666666666667  C 27.3333333333333 20.8888888888889  26.5361111111111 22.7777777777778  24.9416666666667 24.3333333333333  C 23.3472222222222 25.8888888888889  21.4111111111111 26.6666666666667  19.1333333333333 26.6666666666667  C 16.8555555555556 26.6666666666667  14.9194444444444 25.8888888888889  13.325 24.3333333333333  C 11.7305555555556 22.7777777777778  10.9333333333333 20.8888888888889  10.9333333333333 18.6666666666667  C 10.9333333333333 16.4444444444444  11.7305555555556 14.5555555555556  13.325 13  C 14.9194444444444 11.4444444444444  16.8555555555556 10.6666666666667  19.1333333333333 10.6666666666667  C 21.4111111111111 10.6666666666667  23.3472222222222 11.4444444444444  24.9416666666667 13  Z M 53.3 17.3333333333333  L 71 34.6666666666667  L 71 53  L 10.9333333333333 53  L 10.9333333333333 45.3333333333333  L 24.6 32  L 31.4333333333333 38.6666666666667  L 53.3 17.3333333333333  Z M 76.1276041666667 5.72916666666666  C 75.8571180555556 5.46527777777777  75.5368055555556 5.33333333333334  75.1666666666667 6  L 6.83333333333333 6  C 6.46319444444445 5.33333333333334  6.14288194444445 5.46527777777777  5.87239583333333 5.72916666666666  C 5.60190972222222 5.99305555555555  5.46666666666667 6.30555555555555  6 6.66666666666666  L 6 57.3333333333333  C 5.46666666666667 57.6944444444444  5.60190972222222 58.0069444444444  5.87239583333333 58.2708333333333  C 6.14288194444445 58.5347222222222  6.46319444444445 58.6666666666667  6.83333333333333 58  L 75.1666666666667 58  C 75.5368055555556 58.6666666666667  75.8571180555556 58.5347222222222  76.1276041666667 58.2708333333333  C 76.3980902777778 58.0069444444444  76.5333333333333 57.6944444444444  76 57.3333333333333  L 76 6.66666666666666  C 76.5333333333333 6.30555555555555  76.3980902777778 5.99305555555555  76.1276041666667 5.72916666666666  Z M 79.9927083333333 1.95833333333334  C 81.3309027777778 3.26388888888889  82 4.83333333333334  82 6.66666666666666  L 82 57.3333333333333  C 82 59.1666666666667  81.3309027777778 60.7361111111111  79.9927083333333 62.0416666666667  C 78.6545138888889 63.3472222222222  77.0458333333333 64  75.1666666666667 64  L 6.83333333333333 64  C 4.95416666666667 64  3.34548611111111 63.3472222222222  2.00729166666667 62.0416666666667  C 0.669097222222222 60.7361111111111  0 59.1666666666667  0 57.3333333333333  L 0 6.66666666666666  C 0 4.83333333333334  0.669097222222222 3.26388888888889  2.00729166666667 1.95833333333334  C 3.34548611111111 0.652777777777771  4.95416666666667 0  6.83333333333333 0  L 75.1666666666667 0  C 77.0458333333333 0  78.6545138888889 0.652777777777771  79.9927083333333 1.95833333333334  Z " fill-rule="nonzero" fill="#d7d7d7" stroke="none" transform="matrix(1 0 0 1 293 487 )" />
  </g>
</svg>