<?xml version="1.0" encoding="utf-8"?>
<svg version="1.1" xmlns:xlink="http://www.w3.org/1999/xlink" width="22px" height="22px" xmlns="http://www.w3.org/2000/svg">
  <g transform="matrix(1 0 0 1 -259 -951 )">
    <path d="M 17.0442708333333 4.95572916666667  C 18.7184606481481 6.62991898148148  19.5555555555556 8.64467592592593  19.5555555555556 11  C 19.5555555555556 13.3553240740741  18.7184606481481 15.3700810185185  17.0442708333333 17.0442708333333  C 15.3700810185185 18.7184606481481  13.3553240740741 19.5555555555556  11 19.5555555555556  C 8.64467592592593 19.5555555555556  6.62991898148148 18.7184606481481  4.95572916666667 17.0442708333333  C 3.28153935185185 15.3700810185185  2.44444444444445 13.3553240740741  2.44444444444445 11  C 2.44444444444445 8.64467592592593  3.28153935185185 6.62991898148148  4.95572916666667 4.95572916666667  C 6.62991898148148 3.28153935185185  8.64467592592593 2.44444444444445  11 2.44444444444445  C 13.3553240740741 2.44444444444445  15.3700810185185 3.28153935185185  17.0442708333333 4.95572916666667  Z M 21.1310763888889 15.2682291666667  C 21.7103587962963 13.9123263888889  22 12.4895833333333  22 11  C 22 9.51041666666667  21.7103587962963 8.08767361111111  21.1310763888889 6.73177083333333  C 20.5517939814815 5.37586805555555  19.7688078703704 4.20457175925926  18.7821180555556 3.21788194444445  C 17.7954282407407 2.23119212962963  16.6241319444444 1.44820601851852  15.2682291666667 0.868923611111111  C 13.9123263888889 0.289641203703705  12.4895833333333 0  11 0  C 9.51041666666667 0  8.08767361111111 0.289641203703705  6.73177083333333 0.868923611111111  C 5.37586805555555 1.44820601851852  4.20457175925926 2.23119212962963  3.21788194444445 3.21788194444445  C 2.23119212962963 4.20457175925926  1.44820601851852 5.37586805555555  0.868923611111111 6.73177083333333  C 0.289641203703705 8.08767361111111  0 9.51041666666667  0 11  C 0 12.4895833333333  0.289641203703705 13.9123263888889  0.868923611111111 15.2682291666667  C 1.44820601851852 16.6241319444444  2.23119212962963 17.7954282407407  3.21788194444445 18.7821180555556  C 4.20457175925926 19.7688078703704  5.37586805555555 20.5517939814815  6.73177083333333 21.1310763888889  C 8.08767361111111 21.7103587962963  9.51041666666667 22  11 22  C 12.4895833333333 22  13.9123263888889 21.7103587962963  15.2682291666667 21.1310763888889  C 16.6241319444444 20.5517939814815  17.7954282407407 19.7688078703704  18.7821180555556 18.7821180555556  C 19.7688078703704 17.7954282407407  20.5517939814815 16.6241319444444  21.1310763888889 15.2682291666667  Z " fill-rule="nonzero" fill="#000000" stroke="none" transform="matrix(1 0 0 1 259 951 )" />
  </g>
</svg>