<?xml version="1.0" encoding="utf-8"?>
<svg version="1.1" xmlns:xlink="http://www.w3.org/1999/xlink" width="73px" height="14px" xmlns="http://www.w3.org/2000/svg">
  <defs>
    <mask fill="white" id="clip96">
      <path d="M 5.68831168831169 14  L 5.68831168831169 4.19999999999999  L 0.758441558441515 3.16842105263159  L 5.68831168831169 1.98947368421052  L 5.68831168831169 0  L 73 0  L 73 14  L 5.68831168831169 14  Z " fill-rule="evenodd" />
    </mask>
  </defs>
  <g transform="matrix(1 0 0 1 -643 -240 )">
    <path d="M 5.68831168831169 14  L 5.68831168831169 4.19999999999999  L 0.758441558441515 3.16842105263159  L 5.68831168831169 1.98947368421052  L 5.68831168831169 0  L 73 0  L 73 14  L 5.68831168831169 14  Z " fill-rule="nonzero" fill="#ffffff" stroke="none" transform="matrix(1 0 0 1 643 240 )" />
    <path d="M 5.68831168831169 14  L 5.68831168831169 4.19999999999999  L 0.758441558441515 3.16842105263159  L 5.68831168831169 1.98947368421052  L 5.68831168831169 0  L 73 0  L 73 14  L 5.68831168831169 14  Z " stroke-width="2" stroke="#797979" fill="none" transform="matrix(1 0 0 1 643 240 )" mask="url(#clip96)" />
  </g>
</svg>