<?xml version="1.0" encoding="utf-8"?>
<svg version="1.1" xmlns:xlink="http://www.w3.org/1999/xlink" width="78px" height="17px" xmlns="http://www.w3.org/2000/svg">
  <defs>
    <mask fill="white" id="clip88">
      <path d="M 0 13  L 0 4  C 0 1.75999999999999  1.71599999999999 0  3.9 0  L 46.1500000000019 0  L 58.1500000000001 0  L 58.8166666666691 0  L 74.1 0  C 76.284 0  78 1.75999999999999  78 4  L 78 13  C 78 15.24  76.284 17  74.1 17  L 3.9 17  C 1.71599999999999 17  0 15.24  0 13  Z " fill-rule="evenodd" />
    </mask>
  </defs>
  <g transform="matrix(1 0 0 1 -839 -421 )">
    <path d="M 0 13  L 0 4  C 0 1.75999999999999  1.71599999999999 0  3.9 0  L 46.1500000000019 0  L 58.1500000000001 0  L 58.8166666666691 0  L 74.1 0  C 76.284 0  78 1.75999999999999  78 4  L 78 13  C 78 15.24  76.284 17  74.1 17  L 3.9 17  C 1.71599999999999 17  0 15.24  0 13  Z " fill-rule="nonzero" fill="#ffffff" stroke="none" transform="matrix(1 0 0 1 839 421 )" />
    <path d="M 0 13  L 0 4  C 0 1.75999999999999  1.71599999999999 0  3.9 0  L 46.1500000000019 0  L 58.1500000000001 0  L 58.8166666666691 0  L 74.1 0  C 76.284 0  78 1.75999999999999  78 4  L 78 13  C 78 15.24  76.284 17  74.1 17  L 3.9 17  C 1.71599999999999 17  0 15.24  0 13  Z " stroke-width="2" stroke="#666666" fill="none" transform="matrix(1 0 0 1 839 421 )" mask="url(#clip88)" />
  </g>
</svg>