<?xml version="1.0" encoding="utf-8"?>
<svg version="1.1" xmlns:xlink="http://www.w3.org/1999/xlink" width="22px" height="20px" xmlns="http://www.w3.org/2000/svg">
  <g transform="matrix(1 0 0 1 -714 -620 )">
    <path d="M 14.5377604166667 16.5494791666667  C 14.6236979166667 16.4713541666667  14.6666666666667 16.3715277777778  14.6666666666667 16.25  L 14.6666666666667 14.1666666666667  C 14.6666666666667 14.0451388888889  14.6236979166667 13.9453125  14.5377604166667 13.8671875  C 14.4518229166667 13.7890625  14.3420138888889 13.75  14.2083333333333 13.75  L 12.8333333333333 13.75  L 12.8333333333333 7.08333333333333  C 12.8333333333333 6.96180555555556  12.7903645833333 6.86197916666667  12.7044270833333 6.78385416666667  C 12.6184895833333 6.70572916666667  12.5086805555556 6.66666666666667  12.375 6.66666666666667  L 7.79166666666667 6.66666666666667  C 7.65798611111111 6.66666666666667  7.54817708333333 6.70572916666667  7.46223958333333 6.78385416666667  C 7.37630208333333 6.86197916666667  7.33333333333333 6.96180555555556  7.33333333333333 7.08333333333333  L 7.33333333333333 9.16666666666667  C 7.33333333333333 9.28819444444444  7.37630208333333 9.38802083333333  7.46223958333333 9.46614583333333  C 7.54817708333333 9.54427083333333  7.65798611111111 9.58333333333333  7.79166666666667 9.58333333333333  L 9.16666666666667 9.58333333333333  L 9.16666666666667 13.75  L 7.79166666666667 13.75  C 7.65798611111111 13.75  7.54817708333333 13.7890625  7.46223958333333 13.8671875  C 7.37630208333333 13.9453125  7.33333333333333 14.0451388888889  7.33333333333333 14.1666666666667  L 7.33333333333333 16.25  C 7.33333333333333 16.3715277777778  7.37630208333333 16.4713541666667  7.46223958333333 16.5494791666667  C 7.54817708333333 16.6276041666667  7.65798611111111 16.6666666666667  7.79166666666667 16.6666666666667  L 14.2083333333333 16.6666666666667  C 14.3420138888889 16.6666666666667  14.4518229166667 16.6276041666667  14.5377604166667 16.5494791666667  Z M 12.7044270833333 4.8828125  C 12.7903645833333 4.8046875  12.8333333333333 4.70486111111111  12.8333333333333 4.58333333333333  L 12.8333333333333 2.5  C 12.8333333333333 2.37847222222222  12.7903645833333 2.27864583333333  12.7044270833333 2.20052083333333  C 12.6184895833333 2.12239583333333  12.5086805555556 2.08333333333333  12.375 2.08333333333333  L 9.625 2.08333333333333  C 9.49131944444445 2.08333333333333  9.38151041666667 2.12239583333333  9.29557291666667 2.20052083333333  C 9.20963541666667 2.27864583333333  9.16666666666667 2.37847222222222  9.16666666666667 2.5  L 9.16666666666667 4.58333333333333  C 9.16666666666667 4.70486111111111  9.20963541666667 4.8046875  9.29557291666667 4.8828125  C 9.38151041666667 4.9609375  9.49131944444445 5  9.625 5  L 12.375 5  C 12.5086805555556 5  12.6184895833333 4.9609375  12.7044270833333 4.8828125  Z M 20.5247395833333 4.98046875  C 21.5082465277778 6.51258680555555  22 8.18576388888889  22 10  C 22 11.8142361111111  21.5082465277778 13.4874131944444  20.5247395833333 15.01953125  C 19.5412326388889 16.5516493055556  18.2068142361111 17.7647569444444  16.521484375 18.6588541666667  C 14.8361545138889 19.5529513888889  12.9956597222222 20  11 20  C 9.00434027777778 20  7.16384548611111 19.5529513888889  5.478515625 18.6588541666667  C 3.79318576388889 17.7647569444444  2.45876736111111 16.5516493055556  1.47526041666667 15.01953125  C 0.491753472222222 13.4874131944444  0 11.8142361111111  0 10  C 0 8.18576388888889  0.491753472222222 6.51258680555555  1.47526041666667 4.98046875  C 2.45876736111111 3.44835069444444  3.79318576388889 2.23524305555555  5.478515625 1.34114583333333  C 7.16384548611111 0.447048611111109  9.00434027777778 0  11 0  C 12.9956597222222 0  14.8361545138889 0.447048611111109  16.521484375 1.34114583333333  C 18.2068142361111 2.23524305555555  19.5412326388889 3.44835069444444  20.5247395833333 4.98046875  Z " fill-rule="nonzero" fill="#000000" stroke="none" transform="matrix(1 0 0 1 714 620 )" />
  </g>
</svg>