<?xml version="1.0" encoding="utf-8"?>
<svg version="1.1" xmlns:xlink="http://www.w3.org/1999/xlink" width="42px" height="42px" xmlns="http://www.w3.org/2000/svg">
  <g transform="matrix(1 0 0 1 -39 -78 )">
    <path d="M 60 78  C 71.76 78  81 87.24  81 99  C 81 110.76  71.76 120  60 120  C 48.24 120  39 110.76  39 99  C 39 87.24  48.24 78  60 78  Z " fill-rule="nonzero" fill="#ffffff" stroke="none" />
    <path d="M 60 78.5  C 71.48 78.5  80.5 87.52  80.5 99  C 80.5 110.48  71.48 119.5  60 119.5  C 48.52 119.5  39.5 110.48  39.5 99  C 39.5 87.52  48.52 78.5  60 78.5  Z " stroke-width="1" stroke="#797979" fill="none" />
  </g>
</svg>