<?xml version="1.0" encoding="utf-8"?>
<svg version="1.1" xmlns:xlink="http://www.w3.org/1999/xlink" width="29px" height="29px" xmlns="http://www.w3.org/2000/svg">
  <g transform="matrix(1 0 0 1 -59 -319 )">
    <path d="M 73.5 319  C 81.62 319  88 325.38  88 333.5  C 88 341.62  81.62 348  73.5 348  C 65.38 348  59 341.62  59 333.5  C 59 325.38  65.38 319  73.5 319  Z " fill-rule="nonzero" fill="#ffffff" stroke="none" />
    <path d="M 73.5 319.5  C 81.34 319.5  87.5 325.66  87.5 333.5  C 87.5 341.34  81.34 347.5  73.5 347.5  C 65.66 347.5  59.5 341.34  59.5 333.5  C 59.5 325.66  65.66 319.5  73.5 319.5  Z " stroke-width="1" stroke="#797979" fill="none" />
  </g>
</svg>