<?xml version="1.0" encoding="utf-8"?>
<svg version="1.1" xmlns:xlink="http://www.w3.org/1999/xlink" width="60px" height="60px" xmlns="http://www.w3.org/2000/svg">
  <g transform="matrix(1 0 0 1 -323 -573 )">
    <path d="M 353 575  C 368.68 575  381 587.32  381 603  C 381 618.68  368.68 631  353 631  C 337.32 631  325 618.68  325 603  C 325 587.32  337.32 575  353 575  Z " fill-rule="nonzero" fill="#ffffff" stroke="none" fill-opacity="0" />
    <path d="M 353 574.5  C 368.96 574.5  381.5 587.04  381.5 603  C 381.5 618.96  368.96 631.5  353 631.5  C 337.04 631.5  324.5 618.96  324.5 603  C 324.5 587.04  337.04 574.5  353 574.5  Z " stroke-width="3" stroke="#797979" fill="none" />
  </g>
</svg>