<?xml version="1.0" encoding="utf-8"?>
<svg version="1.1" xmlns:xlink="http://www.w3.org/1999/xlink" width="60px" height="60px" xmlns="http://www.w3.org/2000/svg">
  <g transform="matrix(1 0 0 1 -763 -177 )">
    <path d="M 793 179  C 808.68 179  821 191.32  821 207  C 821 222.68  808.68 235  793 235  C 777.32 235  765 222.68  765 207  C 765 191.32  777.32 179  793 179  Z " fill-rule="nonzero" fill="#ffffff" stroke="none" fill-opacity="0" />
    <path d="M 793 178.5  C 808.96 178.5  821.5 191.04  821.5 207  C 821.5 222.96  808.96 235.5  793 235.5  C 777.04 235.5  764.5 222.96  764.5 207  C 764.5 191.04  777.04 178.5  793 178.5  Z " stroke-width="3" stroke="#797979" fill="none" />
  </g>
</svg>