<?xml version="1.0" encoding="utf-8"?>
<svg version="1.1" xmlns:xlink="http://www.w3.org/1999/xlink" width="16px" height="9px" xmlns="http://www.w3.org/2000/svg">
  <g transform="matrix(1 0 0 1 -379 -254 )">
    <path d="M 0.160320641282567 0.927835051546481  C 0.0534402137608367 1.03092783505144  0 1.14948453608235  0 1.28350515463921  C 0 1.41752577319585  0.0534402137608367 1.53608247422676  0.160320641282567 1.63917525773195  L 7.63126252505009 8.84536082474233  C 7.73814295257182 8.94845360824752  7.86105544422179 9  8 9  C 8.13894455577821 9  8.26185704742818 8.94845360824752  8.36873747494991 8.84536082474233  L 15.8396793587174 1.63917525773195  C 15.9465597862392 1.53608247422676  16 1.41752577319585  16 1.28350515463921  C 16 1.14948453608235  15.9465597862392 1.03092783505144  15.8396793587174 0.927835051546481  L 15.0380761523046 0.154639175257671  C 14.9311957247829 0.0515463917524812  14.808283233133 0  14.6693386773547 0  C 14.5303941215765 0  14.4074816299265 0.0515463917524812  14.3006012024048 0.154639175257671  L 8 6.23195876288651  L 1.69939879759517 0.154639175257671  C 1.59251837007349 0.0515463917524812  1.46960587842352 0  1.33066132264526 0  C 1.19171676686705 0  1.06880427521708 0.0515463917524812  0.961923847695402 0.154639175257671  L 0.160320641282567 0.927835051546481  Z " fill-rule="nonzero" fill="#000000" stroke="none" transform="matrix(1 0 0 1 379 254 )" />
  </g>
</svg>