<?xml version="1.0" encoding="utf-8"?>
<svg version="1.1" xmlns:xlink="http://www.w3.org/1999/xlink" width="17px" height="18px" xmlns="http://www.w3.org/2000/svg">
  <g transform="matrix(1 0 0 1 -1260 -25 )">
    <path d="M 16.1090494791667 5.98197115384615  C 16.7030164930557 7.14302884615385  17 8.37980769230769  17 9.69230769230769  C 17 10.8173076923077  16.7749565972222 11.8918269230769  16.3248697916667 12.9158653846154  C 15.8747829861111 13.9399038461538  15.2697482638889 14.8233173076923  14.509765625 15.5661057692308  C 13.7497829861111 16.3088942307692  12.8459201388889 16.9002403846154  11.7981770833333 17.3401442307692  C 10.7504340277778 17.7800480769231  9.65104166666674 18  8.5 18  C 7.34895833333326 18  6.24956597222217 17.7800480769231  5.20182291666674 17.3401442307692  C 4.15407986111109 16.9002403846154  3.25021701388891 16.3088942307692  2.490234375 15.5661057692308  C 1.73025173611109 14.8233173076923  1.12521701388891 13.9399038461538  0.675130208333258 12.9158653846154  C 0.225043402777828 11.8918269230769  0 10.8173076923077  0 9.69230769230769  C 0 8.37980769230769  0.296983506944343 7.14302884615385  0.890950520833258 5.98197115384615  C 1.48491753472217 4.82091346153846  2.32052951388891 3.84735576923077  3.39778645833326 3.06129807692308  C 3.71506076388891 2.83052884615384  4.0673828125 2.74038461538461  4.45475260416674 2.79086538461538  C 4.84212239583326 2.84134615384615  5.15017361111109 3.02163461538461  5.37890625 3.33173076923077  C 5.61501736111109 3.63461538461538  5.70540364583326 3.97536057692308  5.65006510416674 4.35396634615385  C 5.5947265625 4.73257211538462  5.412109375 5.03725961538461  5.10221354166674 5.26802884615385  C 4.37912326388891 5.80168269230769  3.82020399305566 6.45432692307692  3.42545572916674 7.22596153846154  C 3.03070746527783 7.99759615384615  2.83333333333326 8.81971153846154  2.83333333333326 9.69230769230769  C 2.83333333333326 10.4423076923077  2.98274739583326 11.1580528846154  3.28157552083326 11.8395432692308  C 3.58040364583326 12.5210336538462  3.984375 13.1105769230769  4.49348958333326 13.6081730769231  C 5.00260416666674 14.1057692307692  5.60579427083326 14.5006009615385  6.30305989583326 14.7926682692308  C 7.00032552083326 15.0847355769231  7.73263888888891 15.2307692307692  8.5 15.2307692307692  C 9.26736111111109 15.2307692307692  9.99967447916674 15.0847355769231  10.6969401041667 14.7926682692308  C 11.3942057291667 14.5006009615385  11.9973958333333 14.1057692307692  12.5065104166667 13.6081730769231  C 13.015625 13.1105769230769  13.4195963541667 12.5210336538462  13.7184244791667 11.8395432692308  C 14.0172526041667 11.1580528846154  14.1666666666667 10.4423076923077  14.1666666666667 9.69230769230769  C 14.1666666666667 8.81971153846154  13.9692925347222 7.99759615384615  13.5745442708333 7.22596153846154  C 13.1797960069443 6.45432692307692  12.6208767361111 5.80168269230769  11.8977864583333 5.26802884615385  C 11.587890625 5.03725961538461  11.4052734375 4.73257211538462  11.3499348958333 4.35396634615385  C 11.2945963541667 3.97536057692308  11.3849826388889 3.63461538461538  11.62109375 3.33173076923077  C 11.8498263888889 3.02163461538461  12.1597222222222 2.84134615384615  12.55078125 2.79086538461538  C 12.9418402777778 2.74038461538461  13.2923177083333 2.83052884615384  13.6022135416667 3.06129807692308  C 14.6794704861111 3.84735576923077  15.5150824652778 4.82091346153846  16.1090494791667 5.98197115384615  Z M 9.49609375 0.411057692307693  C 9.77647569444434 0.685096153846153  9.91666666666674 1.00961538461538  9.91666666666674 1.38461538461538  L 9.91666666666674 8.30769230769231  C 9.91666666666674 8.68269230769231  9.77647569444434 9.00721153846153  9.49609375 9.28125  C 9.21571180555566 9.55528846153846  8.88368055555566 9.69230769230769  8.5 9.69230769230769  C 8.11631944444434 9.69230769230769  7.78428819444434 9.55528846153846  7.50390625 9.28125  C 7.22352430555566 9.00721153846153  7.08333333333326 8.68269230769231  7.08333333333326 8.30769230769231  L 7.08333333333326 1.38461538461538  C 7.08333333333326 1.00961538461538  7.22352430555566 0.685096153846153  7.50390625 0.411057692307693  C 7.78428819444434 0.13701923076923  8.11631944444434 0  8.5 0  C 8.88368055555566 0  9.21571180555566 0.13701923076923  9.49609375 0.411057692307693  Z " fill-rule="nonzero" fill="#000000" stroke="none" transform="matrix(1 0 0 1 1260 25 )" />
  </g>
</svg>