<?xml version="1.0" encoding="utf-8"?>
<svg version="1.1" xmlns:xlink="http://www.w3.org/1999/xlink" width="21px" height="12px" xmlns="http://www.w3.org/2000/svg">
  <g transform="matrix(1 0 0 1 -152 -67 )">
    <path d="M 20.7895791583167 1.23711340206187  C 20.9298597194389 1.37457044673539  21 1.53264604810997  21 1.71134020618557  C 21 1.89003436426117  20.9298597194389 2.04810996563573  20.7895791583167 2.18556701030927  L 10.9839679358718 11.7938144329897  C 10.8436873747495 11.9312714776632  10.6823647294589 12  10.5 12  C 10.3176352705411 12  10.1563126252505 11.9312714776632  10.0160320641282 11.7938144329897  L 0.210420841683373 2.18556701030927  C 0.0701402805611337 2.04810996563573  0 1.89003436426117  0 1.71134020618557  C 0 1.53264604810997  0.0701402805611337 1.37457044673539  0.210420841683373 1.23711340206187  L 1.26252505010021 0.206185567010309  C 1.40280561122245 0.0687285223367695  1.56412825651302 0  1.74649298597194 0  C 1.92885771543087 0  2.09018036072146 0.0687285223367695  2.23046092184367 0.206185567010309  L 10.5 8.30927835051547  L 18.7695390781563 0.206185567010309  C 18.9098196392786 0.0687285223367695  19.0711422845691 0  19.2535070140281 0  C 19.435871743487 0  19.5971943887776 0.0687285223367695  19.7374749498998 0.206185567010309  L 20.7895791583167 1.23711340206187  Z " fill-rule="nonzero" fill="#000000" stroke="none" transform="matrix(1 0 0 1 152 67 )" />
  </g>
</svg>