<?xml version="1.0" encoding="utf-8"?>
<svg version="1.1" xmlns:xlink="http://www.w3.org/1999/xlink" width="26px" height="23px" xmlns="http://www.w3.org/2000/svg">
  <g transform="matrix(1 0 0 1 -250 -8 )">
    <path d="M 1.625 10  L 24.375 10  C 24.8235677083333 9.85714285714286  25.20654296875 10.017578125  25.52392578125 10.3384486607143  C 25.84130859375 10.6593191964286  26 11.0465029761905  26 11.5  C 26 11.9534970238095  25.84130859375 12.3406808035714  25.52392578125 12.6615513392857  C 25.20654296875 12.982421875  24.8235677083333 13.1428571428571  24.375 13.1428571428571  L 24.1845703125 13.1428571428571  L 22.724609375 21.6395089285714  C 22.6569010416667 22.0331101190476  22.470703125 22.3582589285714  22.166015625 22.6149553571429  C 21.861328125 22.8716517857143  21.5143229166667 23  21.125 23  L 4.875 23  C 4.48567708333333 23  4.138671875 22.8716517857143  3.833984375 22.6149553571429  C 3.529296875 22.3582589285714  3.34309895833333 22.0331101190476  3.275390625 21.6395089285714  L 1.8154296875 13.1428571428571  L 1.625 13.1428571428571  C 1.17643229166667 13.1428571428571  0.79345703125 12.982421875  0.47607421875 12.6615513392857  C 0.15869140625 12.3406808035714  0 11.9534970238095  0 11.5  C 0 11.0465029761905  0.15869140625 10.6593191964286  0.47607421875 10.3384486607143  C 0.79345703125 10.017578125  1.17643229166667 9.85714285714286  1.625 10  Z M 6.09375 20.125  L 6.1572265625 20.125  C 6.37727864583333 20.1078869047619  6.56136067708333 20.0116257440476  6.70947265625 19.8362165178571  C 6.85758463541667 19.6608072916667  6.92317708333333 19.4618675595238  6.90625 19.2393973214286  L 6.5 13.9001116071429  C 6.48307291666667 13.6776413690476  6.38785807291667 13.4915364583333  6.21435546875 13.341796875  C 6.04085286458333 13.1920572916667  5.84407552083333 13.125744047619  5.6240234375 13.1428571428571  C 5.40397135416667 13.1599702380952  5.21988932291667 13.2562313988095  5.07177734375 13.431640625  C 4.92366536458333 13.6070498511905  4.85807291666667 13.8059895833333  4.875 14.0284598214286  L 5.28125 19.3677455357143  C 5.29817708333333 19.5816592261905  5.38492838541667 19.7613467261905  5.54150390625 19.9068080357143  C 5.69807942708333 20.0522693452381  5.88216145833333 20.125  6.09375 20.125  Z M 11.1337890625 19.8811383928571  C 11.2945963541667 19.7185639880952  11.375 19.5260416666667  11.375 19.3035714285714  L 11.375 13.9642857142857  C 11.375 13.7418154761905  11.2945963541667 13.5492931547619  11.1337890625 13.38671875  C 10.9729817708333 13.2241443452381  10.7825520833333 13.1428571428571  10.5625 13.1428571428571  C 10.3424479166667 13.1428571428571  10.1520182291667 13.2241443452381  9.9912109375 13.38671875  C 9.83040364583333 13.5492931547619  9.75 13.7418154761905  9.75 13.9642857142857  L 9.75 19.3035714285714  C 9.75 19.5260416666667  9.83040364583333 19.7185639880952  9.9912109375 19.8811383928571  C 10.1520182291667 20.043712797619  10.3424479166667 20.125  10.5625 20.125  C 10.7825520833333 20.125  10.9729817708333 20.043712797619  11.1337890625 19.8811383928571  Z M 16.0087890625 19.8811383928571  C 16.1695963541667 19.7185639880952  16.25 19.5260416666667  16.25 19.3035714285714  L 16.25 13.9642857142857  C 16.25 13.7418154761905  16.1695963541667 13.5492931547619  16.0087890625 13.38671875  C 15.8479817708333 13.2241443452381  15.6575520833333 13.1428571428571  15.4375 13.1428571428571  C 15.2174479166667 13.1428571428571  15.0270182291667 13.2241443452381  14.8662109375 13.38671875  C 14.7054036458333 13.5492931547619  14.625 13.7418154761905  14.625 13.9642857142857  L 14.625 19.3035714285714  C 14.625 19.5260416666667  14.7054036458333 19.7185639880952  14.8662109375 19.8811383928571  C 15.0270182291667 20.043712797619  15.2174479166667 20.125  15.4375 20.125  C 15.6575520833333 20.125  15.8479817708333 20.043712797619  16.0087890625 19.8811383928571  Z M 20.45849609375 19.9068080357143  C 20.6150716145833 19.7613467261905  20.7018229166667 19.5816592261905  20.71875 19.3677455357143  L 21.125 14.0284598214286  C 21.1419270833333 13.8059895833333  21.0763346354167 13.6070498511905  20.92822265625 13.431640625  C 20.7801106770833 13.2562313988095  20.5960286458333 13.1599702380952  20.3759765625 13.1428571428571  C 20.1559244791667 13.125744047619  19.9591471354167 13.1920572916667  19.78564453125 13.341796875  C 19.6121419270833 13.4915364583333  19.5169270833333 13.6776413690476  19.5 13.9001116071429  L 19.09375 19.2393973214286  C 19.0768229166667 19.4618675595238  19.1424153645833 19.6608072916667  19.29052734375 19.8362165178571  C 19.4386393229167 20.0116257440476  19.6227213541667 20.1078869047619  19.8427734375 20.125  L 19.90625 20.125  C 20.1178385416667 20.125  20.3019205729167 20.0522693452381  20.45849609375 19.9068080357143  Z M 6.62060546875 2.82366071428571  C 6.32861328125 3.06324404761905  6.13606770833333 3.37127976190476  6.04296875 3.74776785714286  L 4.8623046875 9.03571428571429  L 3.1865234375 9.03571428571429  L 4.46875 3.37555803571429  C 4.62955729166667 2.62258184523809  5.00618489583333 2.00864955357143  5.5986328125 1.53376116071429  C 6.19108072916667 1.05887276785714  6.8681640625 0.821428571428571  7.6298828125 0.821428571428571  L 9.75 0.821428571428571  C 9.75 0.598958333333332  9.83040364583333 0.406436011904759  9.9912109375 0.243861607142858  C 10.1520182291667 0.0812872023809543  10.3424479166667 0  10.5625 0  L 15.4375 0  C 15.6575520833333 0  15.8479817708333 0.0812872023809543  16.0087890625 0.243861607142858  C 16.1695963541667 0.406436011904759  16.25 0.598958333333332  16.25 0.821428571428571  L 18.3701171875 0.821428571428571  C 19.1318359375 0.821428571428571  19.8089192708333 1.05887276785714  20.4013671875 1.53376116071429  C 20.9938151041667 2.00864955357143  21.3704427083333 2.62258184523809  21.53125 3.37555803571429  L 22.8134765625 9.03571428571429  L 21.1376953125 9.03571428571429  L 19.95703125 3.74776785714286  C 19.8639322916667 3.37127976190476  19.67138671875 3.06324404761905  19.37939453125 2.82366071428571  C 19.08740234375 2.58407738095238  18.7509765625 2.46428571428571  18.3701171875 2.46428571428571  L 16.25 2.46428571428571  C 16.25 2.68675595238095  16.1695963541667 2.87927827380952  16.0087890625 3.04185267857143  C 15.8479817708333 3.20442708333333  15.6575520833333 3.28571428571429  15.4375 3.28571428571429  L 10.5625 3.28571428571429  C 10.3424479166667 3.28571428571429  10.1520182291667 3.20442708333333  9.9912109375 3.04185267857143  C 9.83040364583333 2.87927827380952  9.75 2.68675595238095  9.75 2.46428571428571  L 7.6298828125 2.46428571428571  C 7.2490234375 2.46428571428571  6.91259765625 2.58407738095238  6.62060546875 2.82366071428571  Z " fill-rule="nonzero" fill="#000000" stroke="none" transform="matrix(1 0 0 1 250 8 )" />
  </g>
</svg>