<?xml version="1.0" encoding="utf-8"?>
<svg version="1.1" xmlns:xlink="http://www.w3.org/1999/xlink" width="307px" height="201px" xmlns="http://www.w3.org/2000/svg">
  <defs>
    <mask fill="white" id="clip95">
      <path d="M 0 201  L 0 14  L 17.980079681275 14  L 25.5498007968129 0.334661354581684  L 32.3227091633466 14  L 307 14  L 307 201  L 0 201  Z " fill-rule="evenodd" />
    </mask>
  </defs>
  <g transform="matrix(1 0 0 1 -1006 -173 )">
    <path d="M 0 201  L 0 14  L 17.980079681275 14  L 25.5498007968129 0.334661354581684  L 32.3227091633466 14  L 307 14  L 307 201  L 0 201  Z " fill-rule="nonzero" fill="#ffffff" stroke="none" transform="matrix(1 0 0 1 1006 173 )" />
    <path d="M 0 201  L 0 14  L 17.980079681275 14  L 25.5498007968129 0.334661354581684  L 32.3227091633466 14  L 307 14  L 307 201  L 0 201  Z " stroke-width="2" stroke="#797979" fill="none" transform="matrix(1 0 0 1 1006 173 )" mask="url(#clip95)" />
  </g>
</svg>