<?xml version="1.0" encoding="utf-8"?>
<svg version="1.1" xmlns:xlink="http://www.w3.org/1999/xlink" width="42px" height="42px" xmlns="http://www.w3.org/2000/svg">
  <g transform="matrix(1 0 0 1 -1391 -845 )">
    <path d="M 1412 845  C 1423.76 845  1433 854.24  1433 866  C 1433 877.76  1423.76 887  1412 887  C 1400.24 887  1391 877.76  1391 866  C 1391 854.24  1400.24 845  1412 845  Z " fill-rule="nonzero" fill="#d7d7d7" stroke="none" />
    <path d="M 1412 845.5  C 1423.48 845.5  1432.5 854.52  1432.5 866  C 1432.5 877.48  1423.48 886.5  1412 886.5  C 1400.52 886.5  1391.5 877.48  1391.5 866  C 1391.5 854.52  1400.52 845.5  1412 845.5  Z " stroke-width="1" stroke="#ffffff" fill="none" />
  </g>
</svg>