<?xml version="1.0" encoding="utf-8"?>
<svg version="1.1" xmlns:xlink="http://www.w3.org/1999/xlink" width="18px" height="16px" xmlns="http://www.w3.org/2000/svg">
  <g transform="matrix(1 0 0 1 -562 -274 )">
    <path d="M 17.666015625 0.527777777777779  C 17.888671875 0.879629629629628  18 1.29629629629629  18 1.77777777777778  C 18 2.25925925925926  17.888671875 2.67592592592592  17.666015625 3.02777777777778  L 9.791015625 15.4722222222222  C 9.568359375 15.8240740740741  9.3046875 16  9 16  C 8.6953125 16  8.431640625 15.8240740740741  8.208984375 15.4722222222222  L 0.333984375 3.02777777777778  C 0.111328125 2.67592592592592  0 2.25925925925926  0 1.77777777777778  C 0 1.29629629629629  0.111328125 0.879629629629628  0.333984375 0.527777777777779  C 0.556640625 0.175925925925924  0.8203125 0  1.125 0  L 16.875 0  C 17.1796875 0  17.443359375 0.175925925925924  17.666015625 0.527777777777779  Z " fill-rule="nonzero" fill="#000000" stroke="none" transform="matrix(1 0 0 1 562 274 )" />
  </g>
</svg>