<?xml version="1.0" encoding="utf-8"?>
<svg version="1.1" xmlns:xlink="http://www.w3.org/1999/xlink" width="22px" height="22px" xmlns="http://www.w3.org/2000/svg">
  <defs>
    <filter x="394px" y="705px" width="22px" height="22px" filterUnits="userSpaceOnUse" id="filter105">
      <feOffset dx="0" dy="0" in="SourceAlpha" result="shadowOffsetInner" />
      <feGaussianBlur stdDeviation="0.5" in="shadowOffsetInner" result="shadowGaussian" />
      <feComposite in2="shadowGaussian" operator="atop" in="SourceAlpha" result="shadowComposite" />
      <feColorMatrix type="matrix" values="0 0 0 0 0  0 0 0 0 0  0 0 0 0 0  0 0 0 0.349019607843137 0  " in="shadowComposite" />
    </filter>
    <g id="widget106">
      <path d="M 405 706  C 410.6 706  415 710.4  415 716  C 415 721.6  410.6 726  405 726  C 399.4 726  395 721.6  395 716  C 395 710.4  399.4 706  405 706  Z " fill-rule="nonzero" fill="#009999" stroke="none" />
      <path d="M 405 706.5  C 410.32 706.5  414.5 710.68  414.5 716  C 414.5 721.32  410.32 725.5  405 725.5  C 399.68 725.5  395.5 721.32  395.5 716  C 395.5 710.68  399.68 706.5  405 706.5  Z " stroke-width="1" stroke="#009999" fill="none" />
    </g>
  </defs>
  <g transform="matrix(1 0 0 1 -394 -705 )">
    <use xlink:href="#widget106" filter="url(#filter105)" />
    <use xlink:href="#widget106" />
  </g>
</svg>