<?xml version="1.0" encoding="utf-8"?>
<svg version="1.1" xmlns:xlink="http://www.w3.org/1999/xlink" width="22px" height="22px" xmlns="http://www.w3.org/2000/svg">
  <defs>
    <filter x="502px" y="705px" width="22px" height="22px" filterUnits="userSpaceOnUse" id="filter107">
      <feOffset dx="0" dy="0" in="SourceAlpha" result="shadowOffsetInner" />
      <feGaussianBlur stdDeviation="0.5" in="shadowOffsetInner" result="shadowGaussian" />
      <feComposite in2="shadowGaussian" operator="atop" in="SourceAlpha" result="shadowComposite" />
      <feColorMatrix type="matrix" values="0 0 0 0 0  0 0 0 0 0  0 0 0 0 0  0 0 0 0.349019607843137 0  " in="shadowComposite" />
    </filter>
    <g id="widget108">
      <path d="M 513 706  C 518.6 706  523 710.4  523 716  C 523 721.6  518.6 726  513 726  C 507.4 726  503 721.6  503 716  C 503 710.4  507.4 706  513 706  Z " fill-rule="nonzero" fill="#ffffff" stroke="none" />
      <path d="M 513 706.5  C 518.32 706.5  522.5 710.68  522.5 716  C 522.5 721.32  518.32 725.5  513 725.5  C 507.68 725.5  503.5 721.32  503.5 716  C 503.5 710.68  507.68 706.5  513 706.5  Z " stroke-width="1" stroke="#e4e4e4" fill="none" />
    </g>
  </defs>
  <g transform="matrix(1 0 0 1 -502 -705 )">
    <use xlink:href="#widget108" filter="url(#filter107)" />
    <use xlink:href="#widget108" />
  </g>
</svg>