<?xml version="1.0" encoding="utf-8"?>
<svg version="1.1" xmlns:xlink="http://www.w3.org/1999/xlink" width="18px" height="18px" xmlns="http://www.w3.org/2000/svg">
  <g transform="matrix(1 0 0 1 -467 -1248 )">
    <path d="M 476 1248  C 481.04 1248  485 1251.96  485 1257  C 485 1262.04  481.04 1266  476 1266  C 470.96 1266  467 1262.04  467 1257  C 467 1251.96  470.96 1248  476 1248  Z " fill-rule="nonzero" fill="#d9001b" stroke="none" />
    <path d="M 476 1248.5  C 480.76 1248.5  484.5 1252.24  484.5 1257  C 484.5 1261.76  480.76 1265.5  476 1265.5  C 471.24 1265.5  467.5 1261.76  467.5 1257  C 467.5 1252.24  471.24 1248.5  476 1248.5  Z " stroke-width="1" stroke="#d9001b" fill="none" />
  </g>
</svg>