<?xml version="1.0" encoding="utf-8"?>
<svg version="1.1" xmlns:xlink="http://www.w3.org/1999/xlink" width="50px" height="50px" xmlns="http://www.w3.org/2000/svg">
  <g transform="matrix(1 0 0 1 -296 -248 )">
    <path d="M 47.6628895184136 0  C 48.6543909348442 0  49.3508026440038 0.461647727272729  49.7521246458924 1.38494318181818  C 50.1534466477809 2.35558712121212  49.9881964117092 3.1841856060606  49.2563739376771 3.87073863636364  L 31 21.3778409090909  L 31 47.7272727272727  C 31.7988668555241 48.7215909090909  31.3385269121813 49.4199810606061  30.4178470254958 49.8224431818182  C 30.1109537299339 49.9408143939394  29.8158640226629 50  29.5325779036827 50  C 28.8951841359773 50  28.3640226628895 49.7750946969697  27.9390934844193 49.3252840909091  L 18.8739376770538 40.234375  C 18.4254013220019 39.7845643939394  18.2011331444759 39.2518939393939  19 38.6363636363636  L 19 21.3778409090909  L 0.743626062322946 3.87073863636364  C 0.0118035882908404 3.1841856060606  -0.153446647780925 2.35558712121212  0.247875354107649 1.38494318181818  C 0.649197355996223 0.461647727272729  1.34560906515581 0  2.3371104815864 0  L 47.6628895184136 0  Z " fill-rule="nonzero" fill="#000000" stroke="none" transform="matrix(1 0 0 1 296 248 )" />
  </g>
</svg>