<?xml version="1.0" encoding="utf-8"?>
<svg version="1.1" xmlns:xlink="http://www.w3.org/1999/xlink" width="50px" height="50px" xmlns="http://www.w3.org/2000/svg">
  <g transform="matrix(1 0 0 1 -675 -40 )">
    <path d="M 32.4869791666667 31.9661458333333  C 34.4835069444444 30.0998263888889  36.8489583333333 29.1666666666667  39.5833333333333 29.1666666666667  C 42.4696180555556 29.1666666666667  44.9273003472222 30.1812065972222  46.9563802083333 32.2102864583333  C 48.9854600694444 34.2393663194444  50 36.6970486111111  50 39.5833333333333  C 50 42.4696180555556  48.9854600694444 44.9273003472222  46.9563802083333 46.9563802083333  C 44.9273003472222 48.9854600694444  42.4696180555556 50  39.5833333333333 50  C 36.6970486111111 50  34.2393663194444 48.9854600694444  32.2102864583333 46.9563802083333  C 30.1812065972222 44.9273003472222  29.1666666666667 42.4696180555556  29.1666666666667 39.5833333333333  C 29.1666666666667 39.3229166666667  29.1883680555556 38.9539930555556  29.2317708333333 38.4765625  L 17.5130208333333 32.6171875  C 15.5164930555556 34.4835069444444  13.1510416666667 35.4166666666667  10.4166666666667 35.4166666666667  C 7.53038194444444 35.4166666666667  5.07269965277778 34.4021267361111  3.04361979166667 32.373046875  C 1.01453993055556 30.3439670138889  0 27.8862847222222  0 25  C 0 22.1137152777778  1.01453993055556 19.6560329861111  3.04361979166667 17.626953125  C 5.07269965277778 15.5978732638889  7.53038194444444 14.5833333333333  10.4166666666667 14.5833333333333  C 13.1510416666667 14.5833333333333  15.5164930555556 15.5164930555556  17.5130208333333 17.3828125  L 29.2317708333333 11.5234375  C 29.1883680555556 11.0460069444444  29.1666666666667 10.6770833333333  29.1666666666667 10.4166666666667  C 29.1666666666667 7.53038194444444  30.1812065972222 5.07269965277777  32.2102864583333 3.04361979166667  C 34.2393663194444 1.01453993055555  36.6970486111111 0  39.5833333333333 0  C 42.4696180555556 0  44.9273003472222 1.01453993055555  46.9563802083333 3.04361979166667  C 48.9854600694444 5.07269965277777  50 7.53038194444444  50 10.4166666666667  C 50 13.3029513888889  48.9854600694444 15.7606336805556  46.9563802083333 17.7897135416667  C 44.9273003472222 19.8187934027778  42.4696180555556 20.8333333333333  39.5833333333333 20.8333333333333  C 36.8489583333333 20.8333333333333  34.4835069444444 19.9001736111111  32.4869791666667 18.0338541666667  L 20.7682291666667 23.8932291666667  C 20.8116319444444 24.3706597222222  20.8333333333333 24.7395833333333  20.8333333333333 25  C 20.8333333333333 25.2604166666667  20.8116319444444 25.6293402777778  20.7682291666667 26.1067708333333  L 32.4869791666667 31.9661458333333  Z " fill-rule="nonzero" fill="#000000" stroke="none" transform="matrix(1 0 0 1 675 40 )" />
  </g>
</svg>