<?xml version="1.0" encoding="utf-8"?>
<svg version="1.1" xmlns:xlink="http://www.w3.org/1999/xlink" width="50px" height="44px" xmlns="http://www.w3.org/2000/svg">
  <g transform="matrix(1 0 0 1 -75 -452 )">
    <path d="M 3.125 19  L 46.875 19  C 47.7376302083333 18.8571428571429  48.47412109375 19.1640625  49.08447265625 19.7779017857143  C 49.69482421875 20.3917410714286  50 21.1324404761905  50 22  C 50 22.8675595238095  49.69482421875 23.6082589285714  49.08447265625 24.2220982142857  C 48.47412109375 24.8359375  47.7376302083333 25.1428571428571  46.875 25.1428571428571  L 46.5087890625 25.1428571428571  L 43.701171875 41.3973214285714  C 43.5709635416667 42.1502976190476  43.212890625 42.7723214285714  42.626953125 43.2633928571429  C 42.041015625 43.7544642857143  41.3736979166667 44  40.625 44  L 9.375 44  C 8.62630208333333 44  7.958984375 43.7544642857143  7.373046875 43.2633928571429  C 6.787109375 42.7723214285714  6.42903645833333 42.1502976190476  6.298828125 41.3973214285714  L 3.4912109375 25.1428571428571  L 3.125 25.1428571428571  C 2.26236979166667 25.1428571428571  1.52587890625 24.8359375  0.91552734375 24.2220982142857  C 0.30517578125 23.6082589285714  0 22.8675595238095  0 22  C 0 21.1324404761905  0.30517578125 20.3917410714286  0.91552734375 19.7779017857143  C 1.52587890625 19.1640625  2.26236979166667 18.8571428571429  3.125 19  Z M 11.71875 38.5  L 11.8408203125 38.5  C 12.2639973958333 38.4672619047619  12.6180013020833 38.2831101190476  12.90283203125 37.9475446428571  C 13.1876627604167 37.6119791666667  13.3138020833333 37.2313988095238  13.28125 36.8058035714286  L 12.5 26.5915178571429  C 12.4674479166667 26.1659226190476  12.2843424479167 25.8098958333333  11.95068359375 25.5234375  C 11.6170247395833 25.2369791666667  11.2386067708333 25.110119047619  10.8154296875 25.1428571428571  C 10.3922526041667 25.1755952380952  10.0382486979167 25.3597470238095  9.75341796875 25.6953125  C 9.46858723958333 26.0308779761905  9.34244791666667 26.4114583333333  9.375 26.8370535714286  L 10.15625 37.0513392857143  C 10.1888020833333 37.4605654761905  10.3556315104167 37.8043154761905  10.65673828125 38.0825892857143  C 10.9578450520833 38.3608630952381  11.3118489583333 38.5  11.71875 38.5  Z M 21.4111328125 38.0334821428571  C 21.7203776041667 37.7224702380952  21.875 37.3541666666667  22 36.9285714285714  L 22 26.7142857142857  C 21.875 26.2886904761905  21.7203776041667 25.9203869047619  21.4111328125 25.609375  C 21.1018880208333 25.2983630952381  20.7356770833333 25.1428571428571  20.3125 25.1428571428571  C 19.8893229166667 25.1428571428571  19.5231119791667 25.2983630952381  19.2138671875 25.609375  C 18.9046223958333 25.9203869047619  18.75 26.2886904761905  19 26.7142857142857  L 19 36.9285714285714  C 18.75 37.3541666666667  18.9046223958333 37.7224702380952  19.2138671875 38.0334821428571  C 19.5231119791667 38.3444940476191  19.8893229166667 38.5  20.3125 38.5  C 20.7356770833333 38.5  21.1018880208333 38.3444940476191  21.4111328125 38.0334821428571  Z M 30.7861328125 38.0334821428571  C 31.0953776041667 37.7224702380952  31.25 37.3541666666667  31 36.9285714285714  L 31 26.7142857142857  C 31.25 26.2886904761905  31.0953776041667 25.9203869047619  30.7861328125 25.609375  C 30.4768880208333 25.2983630952381  30.1106770833333 25.1428571428571  29.6875 25.1428571428571  C 29.2643229166667 25.1428571428571  28.8981119791667 25.2983630952381  28.5888671875 25.609375  C 28.2796223958333 25.9203869047619  28.125 26.2886904761905  28 26.7142857142857  L 28 36.9285714285714  C 28.125 37.3541666666667  28.2796223958333 37.7224702380952  28.5888671875 38.0334821428571  C 28.8981119791667 38.3444940476191  29.2643229166667 38.5  29.6875 38.5  C 30.1106770833333 38.5  30.4768880208333 38.3444940476191  30.7861328125 38.0334821428571  Z M 39.34326171875 38.0825892857143  C 39.6443684895833 37.8043154761905  39.8111979166667 37.4605654761905  39.84375 37.0513392857143  L 40.625 26.8370535714286  C 40.6575520833333 26.4114583333333  40.5314127604167 26.0308779761905  40.24658203125 25.6953125  C 39.9617513020833 25.3597470238095  39.6077473958333 25.1755952380952  39.1845703125 25.1428571428571  C 38.7613932291667 25.110119047619  38.3829752604167 25.2369791666667  38.04931640625 25.5234375  C 37.7156575520833 25.8098958333333  37.5325520833333 26.1659226190476  37.5 26.5915178571429  L 36.71875 36.8058035714286  C 36.6861979166667 37.2313988095238  36.8123372395833 37.6119791666667  37.09716796875 37.9475446428571  C 37.3819986979167 38.2831101190476  37.7360026041667 38.4672619047619  38.1591796875 38.5  L 38.28125 38.5  C 38.6881510416667 38.5  39.0421549479167 38.3608630952381  39.34326171875 38.0825892857143  Z M 12.73193359375 5.40178571428571  C 12.17041015625 5.86011904761904  11.8001302083333 6.44940476190476  11.62109375 7.16964285714286  L 9.3505859375 17.2857142857143  L 6.1279296875 17.2857142857143  L 8.59375 6.45758928571429  C 8.90299479166667 5.01711309523809  9.62727864583333 3.84263392857143  10.7666015625 2.93415178571429  C 11.9059244791667 2.02566964285714  13.2080078125 1.57142857142857  14.6728515625 1.57142857142857  L 18.75 1.57142857142857  C 18.75 1.14583333333333  18.9046223958333 0.777529761904756  19.2138671875 0.466517857142859  C 19.5231119791667 0.155505952380956  19.8893229166667 0  20.3125 0  L 29.6875 0  C 30.1106770833333 0  30.4768880208333 0.155505952380956  30.7861328125 0.466517857142859  C 31.0953776041667 0.777529761904756  31.25 1.14583333333333  31.25 1.57142857142857  L 35.3271484375 1.57142857142857  C 36.7919921875 1.57142857142857  38.0940755208333 2.02566964285714  39.2333984375 2.93415178571429  C 40.3727213541667 3.84263392857143  41.0970052083333 5.01711309523809  41.40625 6.45758928571429  L 43.8720703125 17.2857142857143  L 40.6494140625 17.2857142857143  L 38.37890625 7.16964285714286  C 38.1998697916667 6.44940476190476  37.82958984375 5.86011904761904  37.26806640625 5.40178571428571  C 36.70654296875 4.94345238095238  36.0595703125 4.71428571428571  35.3271484375 4.71428571428571  L 31.25 4.71428571428571  C 31.25 5.13988095238095  31.0953776041667 5.50818452380952  30.7861328125 5.81919642857143  C 30.4768880208333 6.13020833333333  30.1106770833333 6.28571428571429  29.6875 6.28571428571429  L 20.3125 6.28571428571429  C 19.8893229166667 6.28571428571429  19.5231119791667 6.13020833333333  19.2138671875 5.81919642857143  C 18.9046223958333 5.50818452380952  18.75 5.13988095238095  18.75 4.71428571428571  L 14.6728515625 4.71428571428571  C 13.9404296875 4.71428571428571  13.29345703125 4.94345238095238  12.73193359375 5.40178571428571  Z " fill-rule="nonzero" fill="#000000" stroke="none" transform="matrix(1 0 0 1 75 452 )" />
  </g>
</svg>