<?xml version="1.0" encoding="utf-8"?>
<svg version="1.1" xmlns:xlink="http://www.w3.org/1999/xlink" width="36px" height="50px" xmlns="http://www.w3.org/2000/svg">
  <g transform="matrix(1 0 0 1 -299 -449 )">
    <path d="M 35.33203125 30.2201704545455  C 35.77734375 30.6699810606061  36 31.2026515151515  36 31.8181818181818  C 36 32.4337121212121  35.77734375 32.9663825757576  35.33203125 33.4161931818182  L 19.58203125 49.3252840909091  C 19.13671875 49.7750946969697  18.609375 50  18 50  C 17.390625 50  16.86328125 49.7750946969697  16.41796875 49.3252840909091  L 0.66796875 33.4161931818182  C 0.22265625 32.9663825757576  0 32.4337121212121  0 31.8181818181818  C 0 31.2026515151515  0.22265625 30.6699810606061  0.66796875 30.2201704545455  C 1.11328125 29.7703598484848  1.640625 29.5454545454545  2.25 29  L 33.75 29  C 34.359375 29.5454545454545  34.88671875 29.7703598484848  35.33203125 30.2201704545455  Z M 35.33203125 16.5838068181818  C 35.77734375 17.0336174242424  36 17.5662878787879  36 18.1818181818182  C 36 18.7973484848485  35.77734375 19.3300189393939  35.33203125 19.7798295454545  C 34.88671875 20.2296401515152  34.359375 20.4545454545455  33.75 21  L 2.25 21  C 1.640625 20.4545454545455  1.11328125 20.2296401515152  0.66796875 19.7798295454545  C 0.22265625 19.3300189393939  0 18.7973484848485  0 18.1818181818182  C 0 17.5662878787879  0.22265625 17.0336174242424  0.66796875 16.5838068181818  L 16.41796875 0.674715909090912  C 16.86328125 0.224905303030298  17.390625 0  18 0  C 18.609375 0  19.13671875 0.224905303030298  19.58203125 0.674715909090912  L 35.33203125 16.5838068181818  Z " fill-rule="nonzero" fill="#000000" stroke="none" transform="matrix(1 0 0 1 299 449 )" />
  </g>
</svg>