<?xml version="1.0" encoding="utf-8"?>
<svg version="1.1" xmlns:xlink="http://www.w3.org/1999/xlink" width="50px" height="50px" xmlns="http://www.w3.org/2000/svg">
  <g transform="matrix(1 0 0 1 -75 -554 )">
    <path d="M 13.5478547854785 13.5478547854785  C 14.3729372937294 12.7227722772277  14.7854785478548 11.7271727172717  14.7854785478548 10.5610561056106  C 14.7854785478548 9.39493949394939  14.3729372937294 8.3993399339934  13.5478547854785 7.57425742574258  C 12.7227722772277 6.74917491749175  11.7271727172717 6.33663366336634  10.5610561056106 6.33663366336634  C 9.3949394939494 6.33663366336634  8.3993399339934 6.74917491749175  7.57425742574257 7.57425742574258  C 6.74917491749175 8.3993399339934  6.33663366336634 9.39493949394939  6.33663366336634 10.5610561056106  C 6.33663366336634 11.7271727172717  6.74917491749175 12.7227722772277  7.57425742574257 13.5478547854785  C 8.3993399339934 14.3729372937294  9.3949394939494 14.7854785478548  10.5610561056106 14.7854785478548  C 11.7271727172717 14.7854785478548  12.7227722772277 14.3729372937294  13.5478547854785 13.5478547854785  Z M 48.7788778877888 26.5676567656766  C 49.5929592959296 27.4257425742574  50 28.4268426842684  50 29.5709570957096  C 50 30.7370737073707  49.5929592959296 31.7271727172717  48.7788778877888 32.5412541254125  L 32.5742574257426 48.7788778877888  C 31.7161716171617 49.5929592959296  30.7150715071507 50  29.5709570957096 50  C 28.4048404840484 50  27.4147414741474 49.5929592959296  26.6006600660066 48.7788778877888  L 3.003300330033 25.1485148514851  C 2.16721672167217 24.3344334433443  1.45764576457646 23.2233223322332  0.874587458745875 21.8151815181518  C 0.291529152915292 20.4070407040704  0 19.1199119911991  0 17.953795379538  L 0 4.22442244224422  C 0 3.08030803080308  0.418041804180418 2.09020902090209  1.25412541254125 1.25412541254125  C 2.09020902090209 0.418041804180413  3.08030803080308 0  4.22442244224422 0  L 17.953795379538 0  C 19.1199119911991 0  20.4070407040704 0.291529152915287  21.8151815181518 0.874587458745874  C 23.2233223322332 1.45764576457645  24.3454345434543 2.16721672167216  25.1815181518152 3.003300330033  L 48.7788778877888 26.5676567656766  Z " fill-rule="nonzero" fill="#000000" stroke="none" transform="matrix(1 0 0 1 75 554 )" />
  </g>
</svg>