<?xml version="1.0" encoding="utf-8"?>
<svg version="1.1" xmlns:xlink="http://www.w3.org/1999/xlink" width="42px" height="51px" xmlns="http://www.w3.org/2000/svg">
  <g transform="matrix(1 0 0 1 -410 -554 )">
    <path d="M 41.72109375 36.8720703125  C 41.90703125 38.5432942708333  42 40.3196614583333  42 42.201171875  C 42 44.6139322916667  41.31640625 46.68359375  39.94921875 48.41015625  C 38.58203125 50.13671875  36.9359375 51  35.0109375 51  L 6.9890625 51  C 5.0640625 51  3.41796875 50.13671875  2.05078125 48.41015625  C 0.68359375 46.68359375  0 44.6139322916667  0 42.201171875  C 0 40.3196614583333  0.0929687500000002 38.5432942708333  0.27890625 36.8720703125  C 0.46484375 35.2008463541667  0.809375 33.5185546875  1.3125 31.8251953125  C 1.815625 30.1318359375  2.45546875 28.6819661458333  3.23203125 27.4755859375  C 4.00859375 26.2692057291667  5.03671875 25.2841796875  6.31640625 24.5205078125  C 7.59609375 23.7568359375  9.0671875 23.375  10.7296875 23.375  C 13.5953125 26.2083333333333  17.01875 27.625  21 27.625  C 24.98125 27.625  28.4046875 26.2083333333333  31.2703125 23.375  C 32.9328125 23.375  34.40390625 23.7568359375  35.68359375 24.5205078125  C 36.96328125 25.2841796875  37.99140625 26.2692057291667  38.76796875 27.4755859375  C 39.54453125 28.6819661458333  40.184375 30.1318359375  40.6875 31.8251953125  C 41.190625 33.5185546875  41.53515625 35.2008463541667  41.72109375 36.8720703125  Z M 29.90859375 3.7353515625  C 32.36953125 6.2255859375  33.6 9.23046875  33.6 12.75  C 33.6 16.26953125  32.36953125 19.2744140625  29.90859375 21.7646484375  C 27.44765625 24.2548828125  24.478125 25.5  21 25.5  C 17.521875 25.5  14.55234375 24.2548828125  12.09140625 21.7646484375  C 9.63046875 19.2744140625  8.4 16.26953125  8.4 12.75  C 8.4 9.23046875  9.63046875 6.2255859375  12.09140625 3.7353515625  C 14.55234375 1.2451171875  17.521875 0  21 0  C 24.478125 0  27.44765625 1.2451171875  29.90859375 3.7353515625  Z " fill-rule="nonzero" fill="#000000" stroke="none" transform="matrix(1 0 0 1 410 554 )" />
  </g>
</svg>