<?xml version="1.0" encoding="utf-8"?>
<svg version="1.1" xmlns:xlink="http://www.w3.org/1999/xlink" width="50px" height="14px" xmlns="http://www.w3.org/2000/svg">
  <g transform="matrix(1 0 0 1 -406 -684 )">
    <path d="M 48.6886160714286 1.28515625  C 49.5628720238095 2.14192708333333  50 3.171875  50 4.375  L 50 9.625  C 50 10.828125  49.5628720238095 11.8580729166667  48.6886160714286 12.71484375  C 47.8143601190476 13.5716145833333  46.7633928571429 14  45.5357142857143 14  L 4.46428571428571 14  C 3.23660714285714 14  2.18563988095238 13.5716145833333  1.31138392857143 12.71484375  C 0.437127976190476 11.8580729166667  0 10.828125  0 9.625  L 0 4.375  C 0 3.171875  0.437127976190476 2.14192708333333  1.31138392857143 1.28515625  C 2.18563988095238 0.428385416666669  3.23660714285714 0  4.46428571428571 0  L 45.5357142857143 0  C 46.7633928571429 0  47.8143601190476 0.428385416666669  48.6886160714286 1.28515625  Z " fill-rule="nonzero" fill="#000000" stroke="none" transform="matrix(1 0 0 1 406 684 )" />
  </g>
</svg>