<?xml version="1.0" encoding="utf-8"?>
<svg version="1.1" xmlns:xlink="http://www.w3.org/1999/xlink" width="87px" height="17px" xmlns="http://www.w3.org/2000/svg">
  <defs>
    <mask fill="white" id="clip63">
      <path d="M 0 13  L 0 4  C 0 1.75999999999999  1.91399999999999 0  4.35000000000002 0  L 26.4545454545447 0  L 41.7032608695681 0  L 51.4750000000022 0  L 64.8596153846156 0  L 65.6032051282079 0  L 82.65 0  C 85.086 0  87 1.75999999999999  87 4  L 87 13  C 87 15.24  85.086 17  82.65 17  L 4.35000000000002 17  C 1.91399999999999 17  0 15.24  0 13  Z " fill-rule="evenodd" />
    </mask>
  </defs>
  <g transform="matrix(1 0 0 1 -902 -358 )">
    <path d="M 0 13  L 0 4  C 0 1.75999999999999  1.91399999999999 0  4.35000000000002 0  L 26.4545454545447 0  L 41.7032608695681 0  L 51.4750000000022 0  L 64.8596153846156 0  L 65.6032051282079 0  L 82.65 0  C 85.086 0  87 1.75999999999999  87 4  L 87 13  C 87 15.24  85.086 17  82.65 17  L 4.35000000000002 17  C 1.91399999999999 17  0 15.24  0 13  Z " fill-rule="nonzero" fill="#ffffff" stroke="none" transform="matrix(1 0 0 1 902 358 )" />
    <path d="M 0 13  L 0 4  C 0 1.75999999999999  1.91399999999999 0  4.35000000000002 0  L 26.4545454545447 0  L 41.7032608695681 0  L 51.4750000000022 0  L 64.8596153846156 0  L 65.6032051282079 0  L 82.65 0  C 85.086 0  87 1.75999999999999  87 4  L 87 13  C 87 15.24  85.086 17  82.65 17  L 4.35000000000002 17  C 1.91399999999999 17  0 15.24  0 13  Z " stroke-width="2" stroke="#666666" fill="none" transform="matrix(1 0 0 1 902 358 )" mask="url(#clip63)" />
  </g>
</svg>