<?xml version="1.0" encoding="utf-8"?>
<svg version="1.1" xmlns:xlink="http://www.w3.org/1999/xlink" width="12px" height="12px" viewBox="183 255  12 12" xmlns="http://www.w3.org/2000/svg">
  <path d="M 189 255  C 192.36 255  195 257.64  195 261  C 195 264.36  192.36 267  189 267  C 185.64 267  183 264.36  183 261  C 183 257.64  185.64 255  189 255  Z " fill-rule="nonzero" fill="#ffffff" stroke="none" />
  <path d="M 189 255.5  C 192.08 255.5  194.5 257.92  194.5 261  C 194.5 264.08  192.08 266.5  189 266.5  C 185.92 266.5  183.5 264.08  183.5 261  C 183.5 257.92  185.92 255.5  189 255.5  Z " stroke-width="1" stroke="#797979" fill="none" />
  <path d="M 189 264  C 187.32 264  186 262.68  186 261  C 186 259.32  187.32 258  189 258  C 190.68 258  192 259.32  192 261  C 192 262.68  190.68 264  189 264  " fill-rule="nonzero" fill="#797979" stroke="none" />
</svg>