<?xml version="1.0" encoding="utf-8"?>
<svg version="1.1" xmlns:xlink="http://www.w3.org/1999/xlink" width="16px" height="9px" xmlns="http://www.w3.org/2000/svg">
  <g transform="matrix(1 0 0 1 -1258 -265 )">
    <path d="M 15.8396793587174 0.927835051546367  C 15.946559786239 1.03092783505156  16 1.14948453608247  16 1.28350515463922  C 16 1.41752577319585  15.946559786239 1.53608247422676  15.8396793587174 1.63917525773195  L 8.36873747494997 8.84536082474222  C 8.26185704742829 8.94845360824741  8.13894455577815 9  8 9  C 7.86105544422185 9  7.73814295257171 8.94845360824741  7.63126252505003 8.84536082474222  L 0.160320641282624 1.63917525773195  C 0.0534402137609504 1.53608247422676  0 1.41752577319585  0 1.28350515463922  C 0 1.14948453608247  0.0534402137609504 1.03092783505156  0.160320641282624 0.927835051546367  L 0.961923847695289 0.154639175257785  C 1.06880427521719 0.0515463917525949  1.1917167668671 0  1.33066132264526 0  C 1.46960587842341 0  1.59251837007355 0.0515463917525949  1.69939879759522 0.154639175257785  L 8 6.23195876288662  L 14.3006012024048 0.154639175257785  C 14.4074816299265 0.0515463917525949  14.5303941215766 0  14.6693386773547 0  C 14.8082832331329 0  14.9311957247828 0.0515463917525949  15.0380761523047 0.154639175257785  L 15.8396793587174 0.927835051546367  Z " fill-rule="nonzero" fill="#000000" stroke="none" transform="matrix(1 0 0 1 1258 265 )" />
  </g>
</svg>