<?xml version="1.0" encoding="utf-8"?>
<svg version="1.1" xmlns:xlink="http://www.w3.org/1999/xlink" width="58px" height="45px" xmlns="http://www.w3.org/2000/svg">
  <g transform="matrix(1 0 0 1 -323 -1643 )">
    <path d="M 323 1643  L 381 1643  L 381 1688  L 323 1688  L 323 1643  " fill-rule="nonzero" fill="#cccccc" stroke="none" />
    <path d="M 326 1646  L 378 1646  L 378 1685  L 326 1685  L 326 1646  " fill-rule="nonzero" fill="#ffffff" stroke="none" />
    <path d="M 356.535 1656.5  C 354.645 1656.5  353.16 1655.015  353.16 1653.125  C 353.16 1651.235  354.645 1649.75  356.535 1649.75  C 358.425 1649.75  359.91 1651.235  359.91 1653.125  C 359.91 1655.015  358.425 1656.5  356.535 1656.5  " fill-rule="nonzero" fill="#cccccc" stroke="none" />
    <path d="M 327 1684  L 327 1663.65  L 339.5 1654.4  L 357 1666.77586206897  L 367 1659.95  L 377 1666.77586206897  L 377 1684  L 327 1684  " fill-rule="nonzero" fill="#169bd5" stroke="none" />
  </g>
</svg>