<?xml version="1.0" encoding="utf-8"?>
<svg version="1.1" xmlns:xlink="http://www.w3.org/1999/xlink" width="21px" height="21px" xmlns="http://www.w3.org/2000/svg">
  <g transform="matrix(1 0 0 1 -113 -350 )">
    <path d="M 123.5 350  C 129.38 350  134 354.62  134 360.5  C 134 366.38  129.38 371  123.5 371  C 117.62 371  113 366.38  113 360.5  C 113 354.62  117.62 350  123.5 350  Z " fill-rule="nonzero" fill="#ffffff" stroke="none" />
    <path d="M 123.5 350.5  C 129.1 350.5  133.5 354.9  133.5 360.5  C 133.5 366.1  129.1 370.5  123.5 370.5  C 117.9 370.5  113.5 366.1  113.5 360.5  C 113.5 354.9  117.9 350.5  123.5 350.5  Z " stroke-width="1" stroke="#797979" fill="none" />
  </g>
</svg>