<?xml version="1.0" encoding="utf-8"?>
<svg version="1.1" xmlns:xlink="http://www.w3.org/1999/xlink" width="13px" height="13px" xmlns="http://www.w3.org/2000/svg">
  <g transform="matrix(1 0 0 1 -83 -143 )">
    <path d="M 89.5 143  C 93.14 143  96 145.86  96 149.5  C 96 153.14  93.14 156  89.5 156  C 85.86 156  83 153.14  83 149.5  C 83 145.86  85.86 143  89.5 143  Z " fill-rule="nonzero" fill="#ffffff" stroke="none" />
    <path d="M 89.5 143.5  C 92.86 143.5  95.5 146.14  95.5 149.5  C 95.5 152.86  92.86 155.5  89.5 155.5  C 86.14 155.5  83.5 152.86  83.5 149.5  C 83.5 146.14  86.14 143.5  89.5 143.5  Z " stroke-width="1" stroke="#70b603" fill="none" />
  </g>
</svg>