<?xml version="1.0" encoding="utf-8"?>
<svg version="1.1" xmlns:xlink="http://www.w3.org/1999/xlink" width="13px" height="19px" xmlns="http://www.w3.org/2000/svg">
  <g transform="matrix(1 0 0 1 -35 -75 )">
    <path d="M 8.7978515625 8.572265625  C 9.4326171875 7.95377604166667  9.75 7.20746527777778  9.75 6.33333333333333  C 9.75 5.45920138888889  9.4326171875 4.712890625  8.7978515625 4.09440104166667  C 8.1630859375 3.47591145833333  7.39713541666667 3.16666666666667  6.5 3.16666666666667  C 5.60286458333333 3.16666666666667  4.8369140625 3.47591145833333  4.2021484375 4.09440104166667  C 3.5673828125 4.712890625  3.25 5.45920138888889  3.25 6.33333333333333  C 3.25 7.20746527777778  3.5673828125 7.95377604166667  4.2021484375 8.572265625  C 4.8369140625 9.19075520833333  5.60286458333333 9.5  6.5 9.5  C 7.39713541666667 9.5  8.1630859375 9.19075520833333  8.7978515625 8.572265625  Z M 11.095703125 1.85546875  C 12.365234375 3.09244791666667  13 4.58506944444444  13 6.33333333333333  C 13 7.23220486111111  12.8603515625 7.97026909722222  12.5810546875 8.54752604166667  L 7.9599609375 18.1217447916667  C 7.82454427083333 18.3938802083333  7.62353515625 18.6082899305556  7.35693359375 18.7649739583333  C 7.09033203125 18.9216579861111  6.8046875 19  6.5 19  C 6.1953125 19  5.90966796875 18.9216579861111  5.64306640625 18.7649739583333  C 5.37646484375 18.6082899305556  5.1796875 18.3938802083333  5.052734375 18.1217447916667  L 0.4189453125 8.54752604166667  C 0.1396484375 7.97026909722222  0 7.23220486111111  0 6.33333333333333  C 0 4.58506944444444  0.634765625 3.09244791666667  1.904296875 1.85546875  C 3.173828125 0.618489583333334  4.70572916666667 0  6.5 0  C 8.29427083333333 0  9.826171875 0.618489583333334  11.095703125 1.85546875  Z " fill-rule="nonzero" fill="#ffffff" stroke="none" transform="matrix(1 0 0 1 35 75 )" />
  </g>
</svg>