<?xml version="1.0" encoding="utf-8"?>
<svg version="1.1" xmlns:xlink="http://www.w3.org/1999/xlink" width="14px" height="13px" xmlns="http://www.w3.org/2000/svg">
  <g transform="matrix(1 0 0 1 -1042 -543 )">
    <path d="M 0.875 5.57142857142857  L 13.125 5.57142857142857  C 13.3665364583333 5.57142857142857  13.57275390625 5.662109375  13.74365234375 5.84347098214286  C 13.91455078125 6.02483258928571  14 6.24367559523809  14 6.5  C 14 6.7563244047619  13.91455078125 6.97516741071429  13.74365234375 7.15652901785714  C 13.57275390625 7.337890625  13.3665364583333 7.42857142857143  13.125 7.42857142857143  L 13.0224609375 7.42857142857143  L 12.236328125 12.2310267857143  C 12.1998697916667 12.4534970238095  12.099609375 12.6372767857143  11.935546875 12.7823660714286  C 11.771484375 12.9274553571429  11.5846354166667 13  11.375 13  L 2.625 13  C 2.41536458333333 13  2.228515625 12.9274553571429  2.064453125 12.7823660714286  C 1.900390625 12.6372767857143  1.80013020833333 12.4534970238095  1.763671875 12.2310267857143  L 0.9775390625 7.42857142857143  L 0.875 7.42857142857143  C 0.633463541666667 7.42857142857143  0.42724609375 7.337890625  0.25634765625 7.15652901785714  C 0.08544921875 6.97516741071429  0 6.7563244047619  0 6.5  C 0 6.24367559523809  0.08544921875 6.02483258928571  0.25634765625 5.84347098214286  C 0.42724609375 5.662109375  0.633463541666667 5.57142857142857  0.875 5.57142857142857  Z M 3.28125 11.375  L 3.3154296875 11.375  C 3.43391927083333 11.3653273809524  3.53304036458333 11.3109188988095  3.61279296875 11.2117745535714  C 3.69254557291667 11.1126302083333  3.72786458333333 11.0001860119048  3.71875 10.8744419642857  L 3.5 7.85658482142857  C 3.49088541666667 7.73084077380952  3.43961588541667 7.62565104166667  3.34619140625 7.541015625  C 3.25276692708333 7.45638020833333  3.14680989583333 7.41889880952381  3.0283203125 7.42857142857143  C 2.90983072916667 7.43824404761905  2.81070963541667 7.4926525297619  2.73095703125 7.591796875  C 2.65120442708333 7.69094122023809  2.61588541666667 7.80338541666666  2.625 7.92912946428571  L 2.84375 10.9469866071429  C 2.85286458333333 11.0678943452381  2.89957682291667 11.1694568452381  2.98388671875 11.2516741071429  C 3.06819661458333 11.3338913690476  3.16731770833333 11.375  3.28125 11.375  Z M 5.9951171875 11.2371651785714  C 6.08170572916667 11.145275297619  6.125 11.0364583333333  6.125 10.9107142857143  L 6.125 7.89285714285714  C 6.125 7.76711309523809  6.08170572916667 7.65829613095238  5.9951171875 7.56640625  C 5.90852864583333 7.47451636904762  5.80598958333333 7.42857142857143  5.6875 7.42857142857143  C 5.56901041666667 7.42857142857143  5.46647135416667 7.47451636904762  5.3798828125 7.56640625  C 5.29329427083333 7.65829613095238  5.25 7.76711309523809  5.25 7.89285714285714  L 5.25 10.9107142857143  C 5.25 11.0364583333333  5.29329427083333 11.145275297619  5.3798828125 11.2371651785714  C 5.46647135416667 11.3290550595238  5.56901041666667 11.375  5.6875 11.375  C 5.80598958333333 11.375  5.90852864583333 11.3290550595238  5.9951171875 11.2371651785714  Z M 8.6201171875 11.2371651785714  C 8.70670572916667 11.145275297619  8.75 11.0364583333333  8.75 10.9107142857143  L 8.75 7.89285714285714  C 8.75 7.76711309523809  8.70670572916667 7.65829613095238  8.6201171875 7.56640625  C 8.53352864583333 7.47451636904762  8.43098958333333 7.42857142857143  8.3125 7.42857142857143  C 8.19401041666667 7.42857142857143  8.09147135416667 7.47451636904762  8.0048828125 7.56640625  C 7.91829427083333 7.65829613095238  7.875 7.76711309523809  7.875 7.89285714285714  L 7.875 10.9107142857143  C 7.875 11.0364583333333  7.91829427083333 11.145275297619  8.0048828125 11.2371651785714  C 8.09147135416667 11.3290550595238  8.19401041666667 11.375  8.3125 11.375  C 8.43098958333333 11.375  8.53352864583333 11.3290550595238  8.6201171875 11.2371651785714  Z M 11.01611328125 11.2516741071429  C 11.1004231770833 11.1694568452381  11.1471354166667 11.0678943452381  11.15625 10.9469866071429  L 11.375 7.92912946428571  C 11.3841145833333 7.80338541666666  11.3487955729167 7.69094122023809  11.26904296875 7.591796875  C 11.1892903645833 7.4926525297619  11.0901692708333 7.43824404761905  10.9716796875 7.42857142857143  C 10.8531901041667 7.41889880952381  10.7472330729167 7.45638020833333  10.65380859375 7.541015625  C 10.5603841145833 7.62565104166667  10.5091145833333 7.73084077380952  10.5 7.85658482142857  L 10.28125 10.8744419642857  C 10.2721354166667 11.0001860119048  10.3074544270833 11.1126302083333  10.38720703125 11.2117745535714  C 10.4669596354167 11.3109188988095  10.5660807291667 11.3653273809524  10.6845703125 11.375  L 10.71875 11.375  C 10.8326822916667 11.375  10.9318033854167 11.3338913690476  11.01611328125 11.2516741071429  Z M 3.56494140625 1.59598214285714  C 3.40771484375 1.73139880952381  3.30403645833333 1.90550595238095  3.25390625 2.11830357142857  L 2.6181640625 5.10714285714286  L 1.7158203125 5.10714285714286  L 2.40625 1.90792410714286  C 2.49283854166667 1.48232886904762  2.69563802083333 1.13532366071429  3.0146484375 0.866908482142858  C 3.33365885416667 0.598493303571428  3.6982421875 0.464285714285714  4.1083984375 0.464285714285714  L 5.25 0.464285714285714  C 5.25 0.338541666666666  5.29329427083333 0.229724702380951  5.3798828125 0.137834821428572  C 5.46647135416667 0.0459449404761916  5.56901041666667 0  5.6875 0  L 8.3125 0  C 8.43098958333333 0  8.53352864583333 0.0459449404761916  8.6201171875 0.137834821428572  C 8.70670572916667 0.229724702380951  8.75 0.338541666666666  8.75 0.464285714285714  L 9.8916015625 0.464285714285714  C 10.3017578125 0.464285714285714  10.6663411458333 0.598493303571428  10.9853515625 0.866908482142858  C 11.3043619791667 1.13532366071429  11.5071614583333 1.48232886904762  11.59375 1.90792410714286  L 12.2841796875 5.10714285714286  L 11.3818359375 5.10714285714286  L 10.74609375 2.11830357142857  C 10.6959635416667 1.90550595238095  10.59228515625 1.73139880952381  10.43505859375 1.59598214285714  C 10.27783203125 1.46056547619048  10.0966796875 1.39285714285714  9.8916015625 1.39285714285714  L 8.75 1.39285714285714  C 8.75 1.51860119047619  8.70670572916667 1.6274181547619  8.6201171875 1.71930803571429  C 8.53352864583333 1.81119791666667  8.43098958333333 1.85714285714286  8.3125 1.85714285714286  L 5.6875 1.85714285714286  C 5.56901041666667 1.85714285714286  5.46647135416667 1.81119791666667  5.3798828125 1.71930803571429  C 5.29329427083333 1.6274181547619  5.25 1.51860119047619  5.25 1.39285714285714  L 4.1083984375 1.39285714285714  C 3.9033203125 1.39285714285714  3.72216796875 1.46056547619048  3.56494140625 1.59598214285714  Z " fill-rule="nonzero" fill="#e00b35" stroke="none" transform="matrix(1 0 0 1 1042 543 )" />
  </g>
</svg>