<?xml version="1.0" encoding="utf-8"?>
<svg version="1.1" xmlns:xlink="http://www.w3.org/1999/xlink" width="20px" height="18px" xmlns="http://www.w3.org/2000/svg">
  <g transform="matrix(1 0 0 1 -824 -452 )">
    <path d="M 1.25 8  L 18.75 8  C 19.0950520833333 7.71428571428572  19.3896484375 7.83984375  19.6337890625 8.09095982142857  C 19.8779296875 8.34207589285714  20 8.64508928571428  20 9  C 20 9.35491071428571  19.8779296875 9.65792410714286  19.6337890625 9.90904017857143  C 19.3896484375 10.16015625  19.0950520833333 10.2857142857143  18.75 10.2857142857143  L 18.603515625 10.2857142857143  L 17.48046875 16.9352678571429  C 17.4283854166667 17.2433035714286  17.28515625 17.4977678571429  17.05078125 17.6986607142857  C 16.81640625 17.8995535714286  16.5494791666667 18  16.25 18  L 3.75 18  C 3.45052083333333 18  3.18359375 17.8995535714286  2.94921875 17.6986607142857  C 2.71484375 17.4977678571429  2.57161458333333 17.2433035714286  2.51953125 16.9352678571429  L 1.396484375 10.2857142857143  L 1.25 10.2857142857143  C 0.904947916666667 10.2857142857143  0.6103515625 10.16015625  0.3662109375 9.90904017857143  C 0.1220703125 9.65792410714286  0 9.35491071428571  0 9  C 0 8.64508928571428  0.1220703125 8.34207589285714  0.3662109375 8.09095982142857  C 0.6103515625 7.83984375  0.904947916666667 7.71428571428572  1.25 8  Z M 4.6875 15.75  L 4.736328125 15.75  C 4.90559895833333 15.7366071428571  5.04720052083333 15.6612723214286  5.1611328125 15.5239955357143  C 5.27506510416667 15.38671875  5.32552083333333 15.2310267857143  5.3125 15.0569196428571  L 5 10.8783482142857  C 4.98697916666667 10.7042410714286  4.91373697916667 10.55859375  4.7802734375 10.44140625  C 4.64680989583333 10.32421875  4.49544270833333 10.2723214285714  4.326171875 10.2857142857143  C 4.15690104166667 10.2991071428571  4.01529947916667 10.3744419642857  3.9013671875 10.51171875  C 3.78743489583333 10.6489955357143  3.73697916666667 10.8046875  3.75 10.9787946428571  L 4.0625 15.1573660714286  C 4.07552083333333 15.3247767857143  4.14225260416667 15.4654017857143  4.2626953125 15.5792410714286  C 4.38313802083333 15.6930803571429  4.52473958333333 15.75  4.6875 15.75  Z M 8.564453125 15.5591517857143  C 8.68815104166667 15.4319196428571  8.75 15.28125  8.75 15.1071428571429  L 8.75 10.9285714285714  C 8.75 10.7544642857143  8.68815104166667 10.6037946428571  8.564453125 10.4765625  C 8.44075520833334 10.3493303571429  8.29427083333334 10.2857142857143  8.125 10.2857142857143  C 7.95572916666667 10.2857142857143  7.80924479166667 10.3493303571429  7.685546875 10.4765625  C 7.56184895833333 10.6037946428571  7.5 10.7544642857143  7.5 10.9285714285714  L 7.5 15.1071428571429  C 7.5 15.28125  7.56184895833333 15.4319196428571  7.685546875 15.5591517857143  C 7.80924479166667 15.6863839285714  7.95572916666667 15.75  8.125 15.75  C 8.29427083333334 15.75  8.44075520833334 15.6863839285714  8.564453125 15.5591517857143  Z M 12.314453125 15.5591517857143  C 12.4381510416667 15.4319196428571  12.5 15.28125  12.5 15.1071428571429  L 12.5 10.9285714285714  C 12.5 10.7544642857143  12.4381510416667 10.6037946428571  12.314453125 10.4765625  C 12.1907552083333 10.3493303571429  12.0442708333333 10.2857142857143  11.875 10.2857142857143  C 11.7057291666667 10.2857142857143  11.5592447916667 10.3493303571429  11.435546875 10.4765625  C 11.3118489583333 10.6037946428571  11.25 10.7544642857143  11.25 10.9285714285714  L 11.25 15.1071428571429  C 11.25 15.28125  11.3118489583333 15.4319196428571  11.435546875 15.5591517857143  C 11.5592447916667 15.6863839285714  11.7057291666667 15.75  11.875 15.75  C 12.0442708333333 15.75  12.1907552083333 15.6863839285714  12.314453125 15.5591517857143  Z M 15.7373046875 15.5792410714286  C 15.8577473958333 15.4654017857143  15.9244791666667 15.3247767857143  15.9375 15.1573660714286  L 16.25 10.9787946428571  C 16.2630208333333 10.8046875  16.2125651041667 10.6489955357143  16.0986328125 10.51171875  C 15.9847005208333 10.3744419642857  15.8430989583333 10.2991071428571  15.673828125 10.2857142857143  C 15.5045572916667 10.2723214285714  15.3531901041667 10.32421875  15.2197265625 10.44140625  C 15.0862630208333 10.55859375  15.0130208333333 10.7042410714286  15 10.8783482142857  L 14.6875 15.0569196428571  C 14.6744791666667 15.2310267857143  14.7249348958333 15.38671875  14.8388671875 15.5239955357143  C 14.9527994791667 15.6612723214286  15.0944010416667 15.7366071428571  15.263671875 15.75  L 15.3125 15.75  C 15.4752604166667 15.75  15.6168619791667 15.6930803571429  15.7373046875 15.5792410714286  Z M 5.0927734375 2.20982142857143  C 4.8681640625 2.39732142857143  4.72005208333333 2.63839285714285  4.6484375 2.93303571428571  L 3.740234375 7.07142857142857  L 2.451171875 7.07142857142857  L 3.4375 2.64174107142857  C 3.56119791666667 2.05245535714286  3.85091145833333 1.57198660714286  4.306640625 1.20033482142857  C 4.76236979166667 0.828683035714285  5.283203125 0.642857142857143  5.869140625 0.642857142857143  L 7.5 0.642857142857143  C 7.5 0.468749999999999  7.56184895833333 0.318080357142855  7.685546875 0.190848214285715  C 7.80924479166667 0.063616071428573  7.95572916666667 0  8.125 0  L 11.875 0  C 12.0442708333333 0  12.1907552083333 0.063616071428573  12.314453125 0.190848214285715  C 12.4381510416667 0.318080357142855  12.5 0.468749999999999  12.5 0.642857142857143  L 14.130859375 0.642857142857143  C 14.716796875 0.642857142857143  15.2376302083333 0.828683035714285  15.693359375 1.20033482142857  C 16.1490885416667 1.57198660714286  16.4388020833333 2.05245535714286  16.5625 2.64174107142857  L 17.548828125 7.07142857142857  L 16.259765625 7.07142857142857  L 15.3515625 2.93303571428571  C 15.2799479166667 2.63839285714285  15.1318359375 2.39732142857143  14.9072265625 2.20982142857143  C 14.6826171875 2.02232142857143  14.423828125 1.92857142857143  14.130859375 1.92857142857143  L 12.5 1.92857142857143  C 12.5 2.10267857142857  12.4381510416667 2.25334821428571  12.314453125 2.38058035714286  C 12.1907552083333 2.5078125  12.0442708333333 2.57142857142857  11.875 2.57142857142857  L 8.125 2.57142857142857  C 7.95572916666667 2.57142857142857  7.80924479166667 2.5078125  7.685546875 2.38058035714286  C 7.56184895833333 2.25334821428571  7.5 2.10267857142857  7.5 1.92857142857143  L 5.869140625 1.92857142857143  C 5.576171875 1.92857142857143  5.3173828125 2.02232142857143  5.0927734375 2.20982142857143  Z " fill-rule="nonzero" fill="#e00b35" stroke="none" transform="matrix(1 0 0 1 824 452 )" />
  </g>
</svg>