<?xml version="1.0" encoding="utf-8"?>
<svg version="1.1" xmlns:xlink="http://www.w3.org/1999/xlink" width="16px" height="15px" xmlns="http://www.w3.org/2000/svg">
  <g transform="matrix(1 0 0 1 -1213 -767 )">
    <path d="M 1 6.42857142857143  L 15 6.42857142857143  C 15.2760416666667 6.42857142857143  15.51171875 6.533203125  15.70703125 6.74246651785714  C 15.90234375 6.95172991071429  16 7.20424107142857  16 7.5  C 16 7.79575892857143  15.90234375 8.04827008928572  15.70703125 8.25753348214286  C 15.51171875 8.466796875  15.2760416666667 8.57142857142857  15 8.57142857142857  L 14.8828125 8.57142857142857  L 13.984375 14.1127232142857  C 13.9427083333333 14.3694196428571  13.828125 14.5814732142857  13.640625 14.7488839285714  C 13.453125 14.9162946428571  13.2395833333333 15  13 15  L 3 15  C 2.76041666666667 15  2.546875 14.9162946428571  2.359375 14.7488839285714  C 2.171875 14.5814732142857  2.05729166666667 14.3694196428571  2.015625 14.1127232142857  L 1.1171875 8.57142857142857  L 1 8.57142857142857  C 0.723958333333333 8.57142857142857  0.48828125 8.466796875  0.29296875 8.25753348214286  C 0.09765625 8.04827008928572  0 7.79575892857143  0 7.5  C 0 7.20424107142857  0.09765625 6.95172991071429  0.29296875 6.74246651785714  C 0.48828125 6.533203125  0.723958333333333 6.42857142857143  1 6.42857142857143  Z M 3.75 13.125  L 3.7890625 13.125  C 3.92447916666667 13.1138392857143  4.03776041666667 13.0510602678571  4.12890625 12.9366629464286  C 4.22005208333333 12.822265625  4.26041666666667 12.6925223214286  4.25 12.5474330357143  L 4 9.06529017857143  C 3.98958333333333 8.92020089285714  3.93098958333333 8.798828125  3.82421875 8.701171875  C 3.71744791666667 8.603515625  3.59635416666667 8.56026785714286  3.4609375 8.57142857142857  C 3.32552083333333 8.58258928571429  3.21223958333333 8.64536830357143  3.12109375 8.759765625  C 3.02994791666667 8.87416294642857  2.98958333333333 9.00390625  3 9.14899553571428  L 3.25 12.6311383928571  C 3.26041666666667 12.7706473214286  3.31380208333333 12.8878348214286  3.41015625 12.9827008928571  C 3.50651041666667 13.0775669642857  3.61979166666667 13.125  3.75 13.125  Z M 6.8515625 12.9659598214286  C 6.95052083333333 12.8599330357143  7 12.734375  7 12.5892857142857  L 7 9.10714285714286  C 7 8.96205357142857  6.95052083333333 8.83649553571428  6.8515625 8.73046875  C 6.75260416666667 8.62444196428571  6.63541666666667 8.57142857142857  6.5 8.57142857142857  C 6.36458333333333 8.57142857142857  6.24739583333333 8.62444196428571  6.1484375 8.73046875  C 6.04947916666667 8.83649553571428  6 8.96205357142857  6 9.10714285714286  L 6 12.5892857142857  C 6 12.734375  6.04947916666667 12.8599330357143  6.1484375 12.9659598214286  C 6.24739583333333 13.0719866071429  6.36458333333333 13.125  6.5 13.125  C 6.63541666666667 13.125  6.75260416666667 13.0719866071429  6.8515625 12.9659598214286  Z M 9.8515625 12.9659598214286  C 9.95052083333333 12.8599330357143  10 12.734375  10 12.5892857142857  L 10 9.10714285714286  C 10 8.96205357142857  9.95052083333333 8.83649553571428  9.8515625 8.73046875  C 9.75260416666667 8.62444196428571  9.63541666666667 8.57142857142857  9.5 8.57142857142857  C 9.36458333333333 8.57142857142857  9.24739583333333 8.62444196428571  9.1484375 8.73046875  C 9.04947916666667 8.83649553571428  9 8.96205357142857  9 9.10714285714286  L 9 12.5892857142857  C 9 12.734375  9.04947916666667 12.8599330357143  9.1484375 12.9659598214286  C 9.24739583333333 13.0719866071429  9.36458333333333 13.125  9.5 13.125  C 9.63541666666667 13.125  9.75260416666667 13.0719866071429  9.8515625 12.9659598214286  Z M 12.58984375 12.9827008928571  C 12.6861979166667 12.8878348214286  12.7395833333333 12.7706473214286  12.75 12.6311383928571  L 13 9.14899553571428  C 13.0104166666667 9.00390625  12.9700520833333 8.87416294642857  12.87890625 8.759765625  C 12.7877604166667 8.64536830357143  12.6744791666667 8.58258928571429  12.5390625 8.57142857142857  C 12.4036458333333 8.56026785714286  12.2825520833333 8.603515625  12.17578125 8.701171875  C 12.0690104166667 8.798828125  12.0104166666667 8.92020089285714  12 9.06529017857143  L 11.75 12.5474330357143  C 11.7395833333333 12.6925223214286  11.7799479166667 12.822265625  11.87109375 12.9366629464286  C 11.9622395833333 13.0510602678571  12.0755208333333 13.1138392857143  12.2109375 13.125  L 12.25 13.125  C 12.3802083333333 13.125  12.4934895833333 13.0775669642857  12.58984375 12.9827008928571  Z M 4.07421875 1.84151785714286  C 3.89453125 1.99776785714286  3.77604166666667 2.19866071428571  3.71875 2.44419642857143  L 2.9921875 5.89285714285714  L 1.9609375 5.89285714285714  L 2.75 2.20145089285714  C 2.84895833333333 1.71037946428571  3.08072916666667 1.30998883928571  3.4453125 1.00027901785714  C 3.80989583333333 0.690569196428571  4.2265625 0.535714285714285  4.6953125 0.535714285714285  L 6 0.535714285714285  C 6 0.390624999999999  6.04947916666667 0.265066964285712  6.1484375 0.159040178571429  C 6.24739583333333 0.0530133928571441  6.36458333333333 0  6.5 0  L 9.5 0  C 9.63541666666667 0  9.75260416666667 0.0530133928571441  9.8515625 0.159040178571429  C 9.95052083333333 0.265066964285712  10 0.390624999999999  10 0.535714285714285  L 11.3046875 0.535714285714285  C 11.7734375 0.535714285714285  12.1901041666667 0.690569196428571  12.5546875 1.00027901785714  C 12.9192708333333 1.30998883928571  13.1510416666667 1.71037946428571  13.25 2.20145089285714  L 14.0390625 5.89285714285714  L 13.0078125 5.89285714285714  L 12.28125 2.44419642857143  C 12.2239583333333 2.19866071428571  12.10546875 1.99776785714286  11.92578125 1.84151785714286  C 11.74609375 1.68526785714286  11.5390625 1.60714285714286  11.3046875 1.60714285714286  L 10 1.60714285714286  C 10 1.75223214285714  9.95052083333333 1.87779017857143  9.8515625 1.98381696428571  C 9.75260416666667 2.08984375  9.63541666666667 2.14285714285714  9.5 2.14285714285714  L 6.5 2.14285714285714  C 6.36458333333333 2.14285714285714  6.24739583333333 2.08984375  6.1484375 1.98381696428571  C 6.04947916666667 1.87779017857143  6 1.75223214285714  6 1.60714285714286  L 4.6953125 1.60714285714286  C 4.4609375 1.60714285714286  4.25390625 1.68526785714286  4.07421875 1.84151785714286  Z " fill-rule="nonzero" fill="#e00b35" stroke="none" transform="matrix(1 0 0 1 1213 767 )" />
  </g>
</svg>