<?xml version="1.0" encoding="utf-8"?>
<svg version="1.1" xmlns:xlink="http://www.w3.org/1999/xlink" width="12px" height="12px" viewBox="438 398  12 12" xmlns="http://www.w3.org/2000/svg">
  <path d="M 444 398  C 447.36 398  450 400.64  450 404  C 450 407.36  447.36 410  444 410  C 440.64 410  438 407.36  438 404  C 438 400.64  440.64 398  444 398  Z " fill-rule="nonzero" fill="#ffffff" stroke="none" />
  <path d="M 444 398.5  C 447.08 398.5  449.5 400.92  449.5 404  C 449.5 407.08  447.08 409.5  444 409.5  C 440.92 409.5  438.5 407.08  438.5 404  C 438.5 400.92  440.92 398.5  444 398.5  Z " stroke-width="1" stroke="#797979" fill="none" />
  <path d="M 444 407  C 442.32 407  441 405.68  441 404  C 441 402.32  442.32 401  444 401  C 445.68 401  447 402.32  447 404  C 447 405.68  445.68 407  444 407  " fill-rule="nonzero" fill="#797979" stroke="none" />
</svg>