<?xml version="1.0" encoding="utf-8"?>
<svg version="1.1" xmlns:xlink="http://www.w3.org/1999/xlink" width="21px" height="16px" xmlns="http://www.w3.org/2000/svg">
  <g transform="matrix(1 0 0 1 -527 -332 )">
    <path d="M 20.6103515625 0.527777777777779  C 20.8701171875 0.879629629629628  21 1.29629629629629  21 1.77777777777778  C 21 2.25925925925926  20.8701171875 2.67592592592592  20.6103515625 3.02777777777778  L 11.4228515625 15.4722222222222  C 11.1630859375 15.8240740740741  10.85546875 16  10.5 16  C 10.14453125 16  9.8369140625 15.8240740740741  9.5771484375 15.4722222222222  L 0.3896484375 3.02777777777778  C 0.1298828125 2.67592592592592  0 2.25925925925926  0 1.77777777777778  C 0 1.29629629629629  0.1298828125 0.879629629629628  0.3896484375 0.527777777777779  C 0.6494140625 0.175925925925924  0.95703125 0  1.3125 0  L 19.6875 0  C 20.04296875 0  20.3505859375 0.175925925925924  20.6103515625 0.527777777777779  Z " fill-rule="nonzero" fill="#000000" stroke="none" transform="matrix(1 0 0 1 527 332 )" />
  </g>
</svg>