<?xml version="1.0" encoding="utf-8"?>
<svg version="1.1" xmlns:xlink="http://www.w3.org/1999/xlink" width="12px" height="12px" viewBox="412 248  12 12" xmlns="http://www.w3.org/2000/svg">
  <path d="M 418 248  C 421.36 248  424 250.64  424 254  C 424 257.36  421.36 260  418 260  C 414.64 260  412 257.36  412 254  C 412 250.64  414.64 248  418 248  Z " fill-rule="nonzero" fill="#ffffff" stroke="none" />
  <path d="M 418 248.5  C 421.08 248.5  423.5 250.92  423.5 254  C 423.5 257.08  421.08 259.5  418 259.5  C 414.92 259.5  412.5 257.08  412.5 254  C 412.5 250.92  414.92 248.5  418 248.5  Z " stroke-width="1" stroke="#797979" fill="none" />
  <path d="M 418 257  C 416.32 257  415 255.68  415 254  C 415 252.32  416.32 251  418 251  C 419.68 251  421 252.32  421 254  C 421 255.68  419.68 257  418 257  " fill-rule="nonzero" fill="#797979" stroke="none" />
</svg>