<?xml version="1.0" encoding="utf-8"?>
<svg version="1.1" xmlns:xlink="http://www.w3.org/1999/xlink" width="12px" height="12px" viewBox="437 368  12 12" xmlns="http://www.w3.org/2000/svg">
  <path d="M 443 368  C 446.36 368  449 370.64  449 374  C 449 377.36  446.36 380  443 380  C 439.64 380  437 377.36  437 374  C 437 370.64  439.64 368  443 368  Z " fill-rule="nonzero" fill="#ffffff" stroke="none" />
  <path d="M 443 368.5  C 446.08 368.5  448.5 370.92  448.5 374  C 448.5 377.08  446.08 379.5  443 379.5  C 439.92 379.5  437.5 377.08  437.5 374  C 437.5 370.92  439.92 368.5  443 368.5  Z " stroke-width="1" stroke="#797979" fill="none" />
  <path d="M 443 377  C 441.32 377  440 375.68  440 374  C 440 372.32  441.32 371  443 371  C 444.68 371  446 372.32  446 374  C 446 375.68  444.68 377  443 377  " fill-rule="nonzero" fill="#797979" stroke="none" />
</svg>