<?xml version="1.0" encoding="utf-8"?>
<svg version="1.1" xmlns:xlink="http://www.w3.org/1999/xlink" width="12px" height="12px" viewBox="370 398  12 12" xmlns="http://www.w3.org/2000/svg">
  <path d="M 376 398  C 379.36 398  382 400.64  382 404  C 382 407.36  379.36 410  376 410  C 372.64 410  370 407.36  370 404  C 370 400.64  372.64 398  376 398  Z " fill-rule="nonzero" fill="#ffffff" stroke="none" />
  <path d="M 376 398.5  C 379.08 398.5  381.5 400.92  381.5 404  C 381.5 407.08  379.08 409.5  376 409.5  C 372.92 409.5  370.5 407.08  370.5 404  C 370.5 400.92  372.92 398.5  376 398.5  Z " stroke-width="1" stroke="#797979" fill="none" />
  <path d="M 376 407  C 374.32 407  373 405.68  373 404  C 373 402.32  374.32 401  376 401  C 377.68 401  379 402.32  379 404  C 379 405.68  377.68 407  376 407  " fill-rule="nonzero" fill="#797979" stroke="none" />
</svg>