<?xml version="1.0" encoding="utf-8"?>
<svg version="1.1" xmlns:xlink="http://www.w3.org/1999/xlink" width="12px" height="12px" viewBox="369 368  12 12" xmlns="http://www.w3.org/2000/svg">
  <path d="M 375 368  C 378.36 368  381 370.64  381 374  C 381 377.36  378.36 380  375 380  C 371.64 380  369 377.36  369 374  C 369 370.64  371.64 368  375 368  Z " fill-rule="nonzero" fill="#ffffff" stroke="none" />
  <path d="M 375 368.5  C 378.08 368.5  380.5 370.92  380.5 374  C 380.5 377.08  378.08 379.5  375 379.5  C 371.92 379.5  369.5 377.08  369.5 374  C 369.5 370.92  371.92 368.5  375 368.5  Z " stroke-width="1" stroke="#797979" fill="none" />
  <path d="M 375 377  C 373.32 377  372 375.68  372 374  C 372 372.32  373.32 371  375 371  C 376.68 371  378 372.32  378 374  C 378 375.68  376.68 377  375 377  " fill-rule="nonzero" fill="#797979" stroke="none" />
</svg>