<?xml version="1.0" encoding="utf-8"?>
<svg version="1.1" xmlns:xlink="http://www.w3.org/1999/xlink" width="12px" height="12px" viewBox="244 635  12 12" xmlns="http://www.w3.org/2000/svg">
  <path d="M 250 635  C 253.36 635  256 637.64  256 641  C 256 644.36  253.36 647  250 647  C 246.64 647  244 644.36  244 641  C 244 637.64  246.64 635  250 635  Z " fill-rule="nonzero" fill="#ffffff" stroke="none" />
  <path d="M 250 635.5  C 253.08 635.5  255.5 637.92  255.5 641  C 255.5 644.08  253.08 646.5  250 646.5  C 246.92 646.5  244.5 644.08  244.5 641  C 244.5 637.92  246.92 635.5  250 635.5  Z " stroke-width="1" stroke="#797979" fill="none" />
  <path d="M 250 644  C 248.32 644  247 642.68  247 641  C 247 639.32  248.32 638  250 638  C 251.68 638  253 639.32  253 641  C 253 642.68  251.68 644  250 644  " fill-rule="nonzero" fill="#797979" stroke="none" />
</svg>