<?xml version="1.0" encoding="utf-8"?>
<svg version="1.1" xmlns:xlink="http://www.w3.org/1999/xlink" width="12px" height="12px" viewBox="960 1051  12 12" xmlns="http://www.w3.org/2000/svg">
  <path d="M 966 1051  C 969.36 1051  972 1053.64  972 1057  C 972 1060.36  969.36 1063  966 1063  C 962.64 1063  960 1060.36  960 1057  C 960 1053.64  962.64 1051  966 1051  Z " fill-rule="nonzero" fill="#ffffff" stroke="none" />
  <path d="M 966 1051.5  C 969.08 1051.5  971.5 1053.92  971.5 1057  C 971.5 1060.08  969.08 1062.5  966 1062.5  C 962.92 1062.5  960.5 1060.08  960.5 1057  C 960.5 1053.92  962.92 1051.5  966 1051.5  Z " stroke-width="1" stroke="#797979" fill="none" />
  <path d="M 966 1060  C 964.32 1060  963 1058.68  963 1057  C 963 1055.32  964.32 1054  966 1054  C 967.68 1054  969 1055.32  969 1057  C 969 1058.68  967.68 1060  966 1060  " fill-rule="nonzero" fill="#797979" stroke="none" />
</svg>