<?xml version="1.0" encoding="utf-8"?>
<svg version="1.1" xmlns:xlink="http://www.w3.org/1999/xlink" width="12px" height="12px" viewBox="1108 1051  12 12" xmlns="http://www.w3.org/2000/svg">
  <path d="M 1114 1051  C 1117.36 1051  1120 1053.64  1120 1057  C 1120 1060.36  1117.36 1063  1114 1063  C 1110.64 1063  1108 1060.36  1108 1057  C 1108 1053.64  1110.64 1051  1114 1051  Z " fill-rule="nonzero" fill="#ffffff" stroke="none" />
  <path d="M 1114 1051.5  C 1117.08 1051.5  1119.5 1053.92  1119.5 1057  C 1119.5 1060.08  1117.08 1062.5  1114 1062.5  C 1110.92 1062.5  1108.5 1060.08  1108.5 1057  C 1108.5 1053.92  1110.92 1051.5  1114 1051.5  Z " stroke-width="1" stroke="#797979" fill="none" />
  <path d="M 1114 1060  C 1112.32 1060  1111 1058.68  1111 1057  C 1111 1055.32  1112.32 1054  1114 1054  C 1115.68 1054  1117 1055.32  1117 1057  C 1117 1058.68  1115.68 1060  1114 1060  " fill-rule="nonzero" fill="#797979" stroke="none" />
</svg>