<?xml version="1.0" encoding="utf-8"?>
<svg version="1.1" xmlns:xlink="http://www.w3.org/1999/xlink" width="12px" height="12px" viewBox="972 1043  12 12" xmlns="http://www.w3.org/2000/svg">
  <path d="M 978 1043  C 981.36 1043  984 1045.64  984 1049  C 984 1052.36  981.36 1055  978 1055  C 974.64 1055  972 1052.36  972 1049  C 972 1045.64  974.64 1043  978 1043  Z " fill-rule="nonzero" fill="#ffffff" stroke="none" />
  <path d="M 978 1043.5  C 981.08 1043.5  983.5 1045.92  983.5 1049  C 983.5 1052.08  981.08 1054.5  978 1054.5  C 974.92 1054.5  972.5 1052.08  972.5 1049  C 972.5 1045.92  974.92 1043.5  978 1043.5  Z " stroke-width="1" stroke="#797979" fill="none" />
  <path d="M 978 1052  C 976.32 1052  975 1050.68  975 1049  C 975 1047.32  976.32 1046  978 1046  C 979.68 1046  981 1047.32  981 1049  C 981 1050.68  979.68 1052  978 1052  " fill-rule="nonzero" fill="#797979" stroke="none" />
</svg>