<?xml version="1.0" encoding="utf-8"?>
<svg version="1.1" xmlns:xlink="http://www.w3.org/1999/xlink" width="13px" height="13px" xmlns="http://www.w3.org/2000/svg">
  <g transform="matrix(1 0 0 1 -624 -746 )">
    <path d="M 12.6936026936027 9.71717171717171  C 12.8978675645342 9.92143658810323  13 10.1694725028059  13 10.4612794612794  C 13 10.7530864197531  12.8978675645342 11.0011223344557  12.6936026936027 11.2053872053872  L 11.2053872053872 12.6936026936027  C 11.0011223344557 12.8978675645342  10.7530864197531 13  10.4612794612794 13  C 10.1694725028059 13  9.92143658810323 12.8978675645342  9.71717171717171 12.6936026936027  L 6.5 9.47643097643095  L 3.28282828282829 12.6936026936027  C 3.07856341189677 12.8978675645342  2.83052749719411 13  2.53872053872055 13  C 2.24691358024688 13  1.99887766554434 12.8978675645342  1.79461279461282 12.6936026936027  L 0.306397306397344 11.2053872053872  C 0.102132435465819 11.0011223344557  0 10.7530864197531  0 10.4612794612794  C 0 10.1694725028059  0.102132435465819 9.92143658810323  0.306397306397344 9.71717171717171  L 3.52356902356905 6.5  L 0.306397306397344 3.28282828282829  C 0.102132435465819 3.07856341189677  0 2.83052749719411  0 2.53872053872055  C 0 2.24691358024688  0.102132435465819 1.99887766554434  0.306397306397344 1.79461279461282  L 1.79461279461282 0.306397306397344  C 1.99887766554434 0.102132435465819  2.24691358024688 0  2.53872053872055 0  C 2.83052749719411 0  3.07856341189677 0.102132435465819  3.28282828282829 0.306397306397344  L 6.5 3.52356902356905  L 9.71717171717171 0.306397306397344  C 9.92143658810323 0.102132435465819  10.1694725028059 0  10.4612794612794 0  C 10.7530864197531 0  11.0011223344557 0.102132435465819  11.2053872053872 0.306397306397344  L 12.6936026936027 1.79461279461282  C 12.8978675645342 1.99887766554434  13 2.24691358024688  13 2.53872053872055  C 13 2.83052749719411  12.8978675645342 3.07856341189677  12.6936026936027 3.28282828282829  L 9.47643097643095 6.5  L 12.6936026936027 9.71717171717171  Z " fill-rule="nonzero" fill="#000000" stroke="none" transform="matrix(1 0 0 1 624 746 )" />
  </g>
</svg>