<?xml version="1.0" encoding="utf-8"?>
<svg version="1.1" xmlns:xlink="http://www.w3.org/1999/xlink" width="57px" height="48px" xmlns="http://www.w3.org/2000/svg">
  <g transform="matrix(1 0 0 1 -380 -422 )">
    <path d="M 380 422  L 437 422  L 437 470  L 380 470  L 380 422  " fill-rule="nonzero" fill="#cccccc" stroke="none" />
    <path d="M 383 425  L 434 425  L 434 467  L 383 467  L 383 425  " fill-rule="nonzero" fill="#ffffff" stroke="none" />
    <path d="M 413.24 436.4  C 411.224 436.4  409.64 434.816  409.64 432.8  C 409.64 430.784  411.224 429.2  413.24 429.2  C 415.256 429.2  416.84 430.784  416.84 432.8  C 416.84 434.816  415.256 436.4  413.24 436.4  " fill-rule="nonzero" fill="#cccccc" stroke="none" />
    <path d="M 384 466  L 384 444  L 396.25 434  L 413.4 445.789473684211  L 423.2 440  L 433 445.789473684211  L 433 466  L 384 466  " fill-rule="nonzero" fill="#169bd5" stroke="none" />
  </g>
</svg>