<?xml version="1.0" encoding="utf-8"?>
<svg version="1.1" xmlns:xlink="http://www.w3.org/1999/xlink" width="186px" height="98px" xmlns="http://www.w3.org/2000/svg">
  <g transform="matrix(1 0 0 1 -267 -293 )">
    <path d="M 267 293  L 453 293  L 453 391  L 267 391  L 267 293  " fill-rule="nonzero" fill="#cccccc" stroke="none" />
    <path d="M 274 300  L 446 300  L 446 384  L 274 384  L 274 300  " fill-rule="nonzero" fill="#ffffff" stroke="none" />
    <path d="M 371.07 322.4  C 366.954 322.4  363.72 319.166  363.72 315.05  C 363.72 310.934  366.954 307.7  371.07 307.7  C 375.186 307.7  378.42 310.934  378.42 315.05  C 378.42 319.166  375.186 322.4  371.07 322.4  " fill-rule="nonzero" fill="#cccccc" stroke="none" />
    <path d="M 277 382  L 277 338.55  L 318.75 318.8  L 377.2 357.025806451613  L 410.6 330.65  L 444 357.025806451613  L 444 382  L 277 382  " fill-rule="nonzero" fill="#169bd5" stroke="none" />
  </g>
</svg>