<?xml version="1.0" encoding="utf-8"?>
<svg version="1.1" xmlns:xlink="http://www.w3.org/1999/xlink" width="11px" height="8px" xmlns="http://www.w3.org/2000/svg">
  <g transform="matrix(1 0 0 1 -609 -1077 )">
    <path d="M 10.7958984375 6.48611111111109  C 10.9319661458334 6.66203703703695  11 6.87037037037044  11 7.11111111111109  C 11 7.35185185185185  10.9319661458334 7.56018518518522  10.7958984375 7.73611111111109  C 10.6598307291666 7.91203703703695  10.4986979166666 8  10.3125 8  L 0.6875 8  C 0.501302083333371 8  0.340169270833371 7.91203703703695  0.2041015625 7.73611111111109  C 0.0680338541666288 7.56018518518522  0 7.35185185185185  0 7.11111111111109  C 0 6.87037037037044  0.0680338541666288 6.66203703703695  0.2041015625 6.48611111111109  L 5.0166015625 0.263888888888914  C 5.15266927083337 0.0879629629630472  5.31380208333337 0  5.5 0  C 5.68619791666663 0  5.84733072916663 0.0879629629630472  5.9833984375 0.263888888888914  L 10.7958984375 6.48611111111109  Z " fill-rule="nonzero" fill="#000000" stroke="none" transform="matrix(1 0 0 1 609 1077 )" />
  </g>
</svg>