<?xml version="1.0" encoding="utf-8"?>
<svg version="1.1" xmlns:xlink="http://www.w3.org/1999/xlink" width="14px" height="11px" xmlns="http://www.w3.org/2000/svg">
  <g transform="matrix(1 0 0 1 -1588 -735 )">
    <path d="M 13.7470967741936 1.51851851851859  C 13.9156989247313 1.69135802469134  14 1.90123456790116  14 2.14814814814815  C 14 2.39506172839515  13.9156989247313 2.60493827160496  13.7470967741936 2.77777777777783  L 7.20774193548391 9.48148148148141  L 5.9793548387097 10.7407407407408  C 5.81075268817222 10.9135802469135  5.60602150537625 11  5.36516129032248 11  C 5.12430107526893 11  4.91956989247319 10.9135802469135  4.75096774193548 10.7407407407408  L 3.52258064516127 9.48148148148141  L 0.252903225806449 6.12962962962968  C 0.0843010752687405 5.95679012345681  0 5.746913580247  0 5.5  C 0 5.253086419753  0.0843010752687405 5.04320987654319  0.252903225806449 4.87037037037032  L 1.48129032258066 3.61111111111109  C 1.64989247311837 3.43827160493834  1.85462365591388 3.35185185185185  2.09548387096766 3.35185185185185  C 2.33634408602165 3.35185185185185  2.54107526881717 3.43827160493834  2.70967741935488 3.61111111111109  L 5.36516129032248 6.34259259259272  L 11.2903225806451 0.259259259259238  C 11.4589247311828 0.0864197530864885  11.6636559139783 0  11.9045161290323 0  C 12.1453763440861 0  12.3501075268816 0.0864197530864885  12.5187096774193 0.259259259259238  L 13.7470967741936 1.51851851851859  Z " fill-rule="nonzero" fill="#000000" stroke="none" transform="matrix(1 0 0 1 1588 735 )" />
  </g>
</svg>