<?xml version="1.0" encoding="utf-8"?>
<svg version="1.1" xmlns:xlink="http://www.w3.org/1999/xlink" width="14px" height="14px" xmlns="http://www.w3.org/2000/svg">
  <g transform="matrix(1 0 0 1 -1588 -696 )">
    <path d="M 5.83333333333326 10.8463541666666  C 5.99131944444434 10.8463541666666  6.12803819444434 10.7886284722222  6.24348958333326 10.6731770833334  L 11.83984375 5.07682291666663  C 11.9552951388889 4.96137152777783  12.0130208333333 4.82465277777783  12.0130208333333 4.66666666666663  C 12.0130208333333 4.50868055555554  11.9552951388889 4.37196180555554  11.83984375 4.25651041666663  L 10.91015625 3.32682291666663  C 10.7947048611111 3.21137152777783  10.6579861111111 3.15364583333337  10.5 3.15364583333337  C 10.3420138888889 3.15364583333337  10.2052951388889 3.21137152777783  10.08984375 3.32682291666663  L 5.83333333333326 7.58333333333337  L 3.91015625 5.66015625  C 3.79470486111109 5.54470486111109  3.65798611111109 5.48697916666663  3.5 5.48697916666663  C 3.34201388888891 5.48697916666663  3.20529513888891 5.54470486111109  3.08984375 5.66015625  L 2.16015625 6.58984375  C 2.04470486111109 6.70529513888891  1.98697916666674 6.84201388888891  1.98697916666674 7  C 1.98697916666674 7.15798611111109  2.04470486111109 7.29470486111109  2.16015625 7.41015625  L 5.42317708333326 10.6731770833334  C 5.53862847222217 10.7886284722222  5.67534722222217 10.8463541666666  5.83333333333326 10.8463541666666  Z M 13.2298177083333 0.770182291666629  C 13.7432725694443 1.28363715277783  14 1.90190972222217  14 2.625  L 14 11.375  C 14 12.0980902777778  13.7432725694443 12.7163628472222  13.2298177083333 13.2298177083334  C 12.7163628472222 13.7432725694445  12.0980902777778 14  11.375 14  L 2.625 14  C 1.90190972222217 14  1.28363715277783 13.7432725694445  0.770182291666742 13.2298177083334  C 0.256727430555657 12.7163628472222  0 12.0980902777778  0 11.375  L 0 2.625  C 0 1.90190972222217  0.256727430555657 1.28363715277783  0.770182291666742 0.770182291666629  C 1.28363715277783 0.256727430555543  1.90190972222217 0  2.625 0  L 11.375 0  C 12.0980902777778 0  12.7163628472222 0.256727430555543  13.2298177083333 0.770182291666629  Z " fill-rule="nonzero" fill="#000000" stroke="none" transform="matrix(1 0 0 1 1588 696 )" />
  </g>
</svg>