<?xml version="1.0" encoding="utf-8"?>
<svg version="1.1" xmlns:xlink="http://www.w3.org/1999/xlink" width="13px" height="13px" xmlns="http://www.w3.org/2000/svg">
  <g transform="matrix(1 0 0 1 -372 -531 )">
    <path d="M 378.5 531  C 382.14 531  385 533.86  385 537.5  C 385 541.14  382.14 544  378.5 544  C 374.86 544  372 541.14  372 537.5  C 372 533.86  374.86 531  378.5 531  Z " fill-rule="nonzero" fill="#ffffff" stroke="none" />
    <path d="M 378.5 531.5  C 381.86 531.5  384.5 534.14  384.5 537.5  C 384.5 540.86  381.86 543.5  378.5 543.5  C 375.14 543.5  372.5 540.86  372.5 537.5  C 372.5 534.14  375.14 531.5  378.5 531.5  Z " stroke-width="1" stroke="#797979" fill="none" />
  </g>
</svg>