<?xml version="1.0" encoding="utf-8"?>
<svg version="1.1" xmlns:xlink="http://www.w3.org/1999/xlink" width="18px" height="23px" xmlns="http://www.w3.org/2000/svg">
  <g transform="matrix(1 0 0 1 -588 -528 )">
    <path d="M 1.63124999999991 0  L 16.3687500000001 0  C 16.584375 0  16.7906250000001 0.0456047587574631  16.9875 0.136814276272275  C 17.296875 0.268561357127169  17.54296875 0.476316369244273  17.72578125 0.76007931262393  C 17.9085937499999 1.04384225600347  18 1.3580083718881  18 1.7025776602776  L 18 21.2974223397224  C 18 21.6419916281119  17.9085937499999 21.9561577439965  17.72578125 22.2399206873761  C 17.54296875 22.5236836307557  17.296875 22.7314386428728  16.9875 22.8631857237277  C 16.809375 22.9442608504075  16.603125 22.9847984137475  16.3687500000001 22.9847984137475  C 15.91875 22.9847984137475  15.5296875 22.8226481603878  15.2015624999999 22.4983476536682  L 9 16.0528750826173  L 2.79843750000009 22.4983476536682  C 2.4609375 22.8327825512227  2.07187499999998 23  1.63124999999991 23  C 1.41562499999998 23  1.20937499999991 22.9543952412425  1.01250000000005 22.8631857237277  C 0.703125 22.7314386428728  0.45703125 22.5236836307557  0.274218750000045 22.2399206873761  C 0.0914062500000909 21.9561577439965  0 21.6419916281119  0 21.2974223397224  L 0 1.7025776602776  C 0 1.3580083718881  0.0914062500000909 1.04384225600347  0.274218750000045 0.76007931262393  C 0.45703125 0.476316369244273  0.703125 0.268561357127169  1.01250000000005 0.136814276272275  C 1.20937499999991 0.0456047587574631  1.41562499999998 0  1.63124999999991 0  Z " fill-rule="nonzero" fill="#ff6600" stroke="none" transform="matrix(1 0 0 1 588 528 )" />
  </g>
</svg>