<?xml version="1.0" encoding="utf-8"?>
<svg version="1.1" xmlns:xlink="http://www.w3.org/1999/xlink" width="6px" height="8px" xmlns="http://www.w3.org/2000/svg">
  <g transform="matrix(1 0 0 1 -1210 -968 )">
    <path d="M 5.888671875 6.48611111111131  C 5.962890625 6.66203703703695  6 6.87037037037044  6 7.11111111111131  C 6 7.35185185185173  5.962890625 7.56018518518522  5.888671875 7.73611111111131  C 5.814453125 7.91203703703695  5.7265625 8  5.625 8  L 0.375 8  C 0.2734375 8  0.185546875 7.91203703703695  0.111328125 7.73611111111131  C 0.037109375 7.56018518518522  0 7.35185185185173  0 7.11111111111131  C 0 6.87037037037044  0.037109375 6.66203703703695  0.111328125 6.48611111111131  L 2.736328125 0.263888888888687  C 2.810546875 0.0879629629630472  2.8984375 0  3 0  C 3.1015625 0  3.189453125 0.0879629629630472  3.263671875 0.263888888888687  L 5.888671875 6.48611111111131  Z " fill-rule="nonzero" fill="#000000" stroke="none" transform="matrix(1 0 0 1 1210 968 )" />
  </g>
</svg>