<?xml version="1.0" encoding="utf-8"?>
<svg version="1.1" xmlns:xlink="http://www.w3.org/1999/xlink" width="20px" height="20px" xmlns="http://www.w3.org/2000/svg">
  <g transform="matrix(1 0 0 1 -655 -1122 )">
    <path d="M 17.5142045454546 2.4857954545455  C 17.0691287878788 2.04071969696963  16.5340909090909 1.81818181818187  15.9090909090909 2  L 4.09090909090907 2  C 3.46590909090907 1.81818181818187  2.93087121212119 2.04071969696963  2.48579545454544 2.4857954545455  C 2.04071969696969 2.93087121212125  1.81818181818181 3.46590909090912  2 4.09090909090912  L 2 15.9090909090909  C 1.81818181818181 16.5340909090909  2.04071969696969 17.0691287878788  2.48579545454544 17.5142045454545  C 2.93087121212119 17.9592803030304  3.46590909090907 18.1818181818181  4.09090909090907 18  L 15.9090909090909 18  C 16.5340909090909 18.1818181818181  17.0691287878788 17.9592803030304  17.5142045454546 17.5142045454545  C 17.9592803030304 17.0691287878788  18.1818181818182 16.5340909090909  18 15.9090909090909  L 18 4.09090909090912  C 18.1818181818182 3.46590909090912  17.9592803030304 2.93087121212125  17.5142045454546 2.4857954545455  Z M 18.7997159090909 1.20028409090912  C 19.5999053030304 2.0004734848485  20 2.96401515151513  20 4.09090909090912  L 20 15.9090909090909  C 20 17.0359848484849  19.5999053030304 17.9995265151515  18.7997159090909 18.7997159090909  C 17.9995265151516 19.5999053030304  17.0359848484848 20  15.9090909090909 20  L 4.09090909090907 20  C 2.96401515151518 20  2.00047348484844 19.5999053030304  1.20028409090907 18.7997159090909  C 0.400094696969688 17.9995265151515  0 17.0359848484849  0 15.9090909090909  L 0 4.09090909090912  C 0 2.96401515151513  0.400094696969688 2.0004734848485  1.20028409090907 1.20028409090912  C 2.00047348484844 0.400094696969632  2.96401515151518 0  4.09090909090907 0  L 15.9090909090909 0  C 17.0359848484848 0  17.9995265151516 0.400094696969632  18.7997159090909 1.20028409090912  Z " fill-rule="nonzero" fill="#000000" stroke="none" transform="matrix(1 0 0 1 655 1122 )" />
  </g>
</svg>