<?xml version="1.0" encoding="utf-8"?>
<svg version="1.1" xmlns:xlink="http://www.w3.org/1999/xlink" width="21px" height="23px" xmlns="http://www.w3.org/2000/svg">
  <g transform="matrix(1 0 0 1 -483 -1359 )">
    <path d="M 7.50213068181819 8.759765625  C 7.59161931818181 8.849609375  7.63636363636363 8.96440972222217  7.63636363636363 9.10416666666674  L 7.63636363636363 17.7291666666667  C 7.63636363636363 17.8689236111111  7.59161931818181 17.9837239583333  7.50213068181819 18.0735677083333  C 7.41264204545456 18.1634114583333  7.29829545454544 18.2083333333333  7.15909090909093 18.2083333333333  L 6.20454545454544 18.2083333333333  C 6.06534090909093 18.2083333333333  5.95099431818181 18.1634114583333  5.86150568181819 18.0735677083333  C 5.77201704545456 17.9837239583333  5.72727272727275 17.8689236111111  5.72727272727275 17.7291666666667  L 5.72727272727275 9.10416666666674  C 5.72727272727275 8.96440972222217  5.77201704545456 8.849609375  5.86150568181819 8.759765625  C 5.95099431818181 8.669921875  6.06534090909093 8.625  6.20454545454544 8.625  L 7.15909090909093 8.625  C 7.29829545454544 8.625  7.41264204545456 8.669921875  7.50213068181819 8.759765625  Z M 11.3203125 8.759765625  C 11.4098011363636 8.849609375  11.4545454545454 8.96440972222217  11.4545454545454 9.10416666666674  L 11.4545454545454 17.7291666666667  C 11.4545454545454 17.8689236111111  11.4098011363636 17.9837239583333  11.3203125 18.0735677083333  C 11.2308238636364 18.1634114583333  11.1164772727273 18.2083333333333  10.9772727272727 18.2083333333333  L 10.0227272727273 18.2083333333333  C 9.88352272727275 18.2083333333333  9.76917613636363 18.1634114583333  9.6796875 18.0735677083333  C 9.59019886363637 17.9837239583333  9.54545454545456 17.8689236111111  9.54545454545456 17.7291666666667  L 9.54545454545456 9.10416666666674  C 9.54545454545456 8.96440972222217  9.59019886363637 8.849609375  9.6796875 8.759765625  C 9.76917613636363 8.669921875  9.88352272727275 8.625  10.0227272727273 8.625  L 10.9772727272727 8.625  C 11.1164772727273 8.625  11.2308238636364 8.669921875  11.3203125 8.759765625  Z M 15.1384943181818 8.759765625  C 15.2279829545454 8.849609375  15.2727272727273 8.96440972222217  15.2727272727273 9.10416666666674  L 15.2727272727273 17.7291666666667  C 15.2727272727273 17.8689236111111  15.2279829545454 17.9837239583333  15.1384943181818 18.0735677083333  C 15.0490056818182 18.1634114583333  14.9346590909091 18.2083333333333  14.7954545454546 18.2083333333333  L 13.8409090909091 18.2083333333333  C 13.7017045454546 18.2083333333333  13.5873579545454 18.1634114583333  13.4978693181818 18.0735677083333  C 13.4083806818182 17.9837239583333  13.3636363636364 17.8689236111111  13.3636363636364 17.7291666666667  L 13.3636363636364 9.10416666666674  C 13.3636363636364 8.96440972222217  13.4083806818182 8.849609375  13.4978693181818 8.759765625  C 13.5873579545454 8.669921875  13.7017045454546 8.625  13.8409090909091 8.625  L 14.7954545454546 8.625  C 14.9346590909091 8.625  15.0490056818182 8.669921875  15.1384943181818 8.759765625  Z M 17.0774147727273 20.5517578125  C 17.1470170454546 20.3670789930557  17.1818181818182 20.1649305555557  17 19.9453125  L 17 6  L 4 6  L 4 19.9453125  C 3.81818181818181 20.1649305555557  3.85298295454544 20.3670789930557  3.92258522727275 20.5517578125  C 3.9921875 20.7364366319443  4.06427556818181 20.8712022569443  4.13884943181819 20.9560546875  C 4.21342329545456 21.0409071180557  4.265625 21.0833333333333  4.29545454545456 21  L 16.7045454545454 21  C 16.734375 21.0833333333333  16.7865767045454 21.0409071180557  16.8611505681818 20.9560546875  C 16.9357244318182 20.8712022569443  17.0078125 20.7364366319443  17.0774147727273 20.5517578125  Z M 7.88991477272725 2.08138020833326  L 7.15909090909093 3.83333333333326  L 13.8409090909091 3.83333333333326  L 13.125 2.08138020833326  C 13.0553977272727 1.99153645833326  12.9708806818182 1.93663194444434  12.8714488636364 1.91666666666674  L 8.14346590909093 1.91666666666674  C 8.04403409090907 1.93663194444434  7.95951704545456 1.99153645833326  7.88991477272725 2.08138020833326  Z M 20.8657670454546 3.96809895833326  C 20.9552556818182 4.05794270833326  21 4.17274305555566  21 4.3125  L 21 5.27083333333326  C 21 5.41059027777783  20.9552556818182 5.525390625  20.8657670454546 5.615234375  C 20.7762784090909 5.705078125  20.6619318181818 5.75  20.5227272727273 5.75  L 19 5.75  L 19 19.9453125  C 19.0909090909091 20.7738715277778  18.8572443181818 21.4901258680557  18.3899147727273 22.0940755208333  C 17.9225852272727 22.6980251736111  17.3607954545454 23  16.7045454545454 23  L 4.29545454545456 23  C 3.63920454545456 23  3.07741477272725 22.7080078125  2.61008522727275 22.1240234375  C 2.14275568181819 21.5400390625  1.90909090909093 20.8337673611111  2 20.0052083333333  L 2 5.75  L 0.477272727272748 5.75  C 0.338068181818187 5.75  0.223721590909065 5.705078125  0.134232954545439 5.615234375  C 0.044744318181813 5.525390625  0 5.41059027777783  0 5.27083333333326  L 0 4.3125  C 0 4.17274305555566  0.044744318181813 4.05794270833326  0.134232954545439 3.96809895833326  C 0.223721590909065 3.87825520833326  0.338068181818187 3.83333333333326  0.477272727272748 3.83333333333326  L 5.0859375 3.83333333333326  L 6.12997159090907 1.33268229166674  C 6.27911931818181 0.963324652777828  6.54758522727275 0.648871527777828  6.93536931818181 0.389322916666742  C 7.32315340909093 0.129774305555657  7.71590909090907 0  8.11363636363637 0  L 12.8863636363636 0  C 13.2840909090909 0  13.6768465909091 0.129774305555657  14.0646306818182 0.389322916666742  C 14.4524147727273 0.648871527777828  14.7208806818182 0.963324652777828  14.8700284090909 1.33268229166674  L 15.9140625 3.83333333333326  L 20.5227272727273 3.83333333333326  C 20.6619318181818 3.83333333333326  20.7762784090909 3.87825520833326  20.8657670454546 3.96809895833326  Z " fill-rule="nonzero" fill="#000000" stroke="none" transform="matrix(1 0 0 1 483 1359 )" />
  </g>
</svg>