<?xml version="1.0" encoding="utf-8"?>
<svg version="1.1" xmlns:xlink="http://www.w3.org/1999/xlink" width="14px" height="14px" xmlns="http://www.w3.org/2000/svg">
  <g transform="matrix(1 0 0 1 -240 -134 )">
    <path d="M 3.486328125 0.938802083333485  C 4.55881076388886 0.312934027777828  5.73003472222223 0  7 0  C 8.26996527777777 0  9.44118923611114 0.312934027777828  10.513671875 0.938802083333485  C 11.5861545138889 1.56467013888914  12.4353298611111 2.41384548611086  13.0611979166667 3.486328125  C 13.6870659722222 4.55881076388914  14 5.73003472222217  14 7  C 14 8.26996527777783  13.6870659722222 9.44118923611086  13.0611979166667 10.513671875  C 12.4353298611111 11.5861545138891  11.5861545138889 12.4353298611109  10.513671875 13.0611979166665  C 9.44118923611114 13.6870659722222  8.26996527777777 14  7 14  C 5.73003472222223 14  4.55881076388886 13.6870659722222  3.486328125 13.0611979166665  C 2.41384548611114 12.4353298611109  1.56467013888886 11.5861545138891  0.938802083333314 10.513671875  C 0.312934027777771 9.44118923611086  0 8.26996527777783  0 7  C 0 5.73003472222217  0.312934027777771 4.55881076388914  0.938802083333314 3.486328125  C 1.56467013888886 2.41384548611086  2.41384548611114 1.56467013888914  3.486328125 0.938802083333485  Z M 8.08463541666669 11.580078125  C 8.13932291666669 11.5223524305557  8.16666666666669 11.4509548611109  8.16666666666669 11.3658854166665  L 8.16666666666669 9.63411458333348  C 8.16666666666669 9.54904513888914  8.13932291666669 9.47764756944434  8.08463541666669 9.419921875  C 8.02994791666669 9.36219618055566  7.96310763888886 9.33333333333348  7.88411458333331 9.33333333333348  L 6.13411458333331 9.33333333333348  C 6.05512152777777 9.33333333333348  5.98524305555554 9.36371527777783  5.92447916666669 9.42447916666652  C 5.86371527777777 9.48524305555566  5.83333333333331 9.55512152777783  5.83333333333331 9.63411458333348  L 5.83333333333331 11.3658854166665  C 5.83333333333331 11.4448784722222  5.86371527777777 11.5147569444443  5.92447916666669 11.5755208333335  C 5.98524305555554 11.6362847222222  6.05512152777777 11.6666666666665  6.13411458333331 11.6666666666665  L 7.88411458333331 11.6666666666665  C 7.96310763888886 11.6666666666665  8.02994791666669 11.6378038194443  8.08463541666669 11.580078125  Z M 8.052734375 8.38997395833348  C 8.11046006944446 8.34440104166652  8.14236111111114 8.29123263888914  8.1484375 8.23046875  L 8.3125 2.5703125  C 8.3125 2.49739583333348  8.28211805555554 2.44270833333348  8.22135416666669 2.40625  C 8.16059027777777 2.35763888888914  8.08767361111114 2.33333333333348  8.00260416666669 2.33333333333348  L 5.99739583333331 2.33333333333348  C 5.91232638888886 2.33333333333348  5.83940972222223 2.35763888888914  5.77864583333331 2.40625  C 5.71788194444446 2.44270833333348  5.6875 2.49739583333348  5.6875 2.5703125  L 5.84244791666669 8.23046875  C 5.84244791666669 8.29123263888914  5.87282986111114 8.34440104166652  5.93359375 8.38997395833348  C 5.99435763888886 8.435546875  6.06727430555554 8.45833333333348  6.15234375 8.45833333333348  L 7.83854166666669 8.45833333333348  C 7.92361111111114 8.45833333333348  7.99500868055554 8.435546875  8.052734375 8.38997395833348  Z " fill-rule="nonzero" fill="#ff0000" stroke="none" transform="matrix(1 0 0 1 240 134 )" />
  </g>
</svg>