<?xml version="1.0" encoding="utf-8"?>
<svg version="1.1" xmlns:xlink="http://www.w3.org/1999/xlink" width="19px" height="19px" xmlns="http://www.w3.org/2000/svg">
  <g transform="matrix(1 0 0 1 -1176 -941 )">
    <path d="M 7.91666666666667 14.7200520833333  C 8.13107638888889 14.7200520833333  8.31662326388889 14.6417100694444  8.47330729166667 14.4850260416667  L 16.068359375 6.88997395833333  C 16.2250434027778 6.73328993055555  16.3033854166667 6.54774305555555  16.3033854166667 6.33333333333333  C 16.3033854166667 6.11892361111111  16.2250434027778 5.93337673611111  16.068359375 5.77669270833333  L 14.806640625 4.51497395833333  C 14.6499565972222 4.35828993055555  14.4644097222222 4.27994791666667  14.25 4.27994791666667  C 14.0355902777778 4.27994791666667  13.8500434027778 4.35828993055555  13.693359375 4.51497395833333  L 7.91666666666667 10.2916666666667  L 5.306640625 7.681640625  C 5.14995659722222 7.52495659722222  4.96440972222222 7.44661458333333  4.75 7.44661458333333  C 4.53559027777778 7.44661458333333  4.35004340277778 7.52495659722222  4.193359375 7.681640625  L 2.931640625 8.943359375  C 2.77495659722222 9.10004340277778  2.69661458333333 9.28559027777778  2.69661458333333 9.5  C 2.69661458333333 9.71440972222222  2.77495659722222 9.89995659722222  2.931640625 10.056640625  L 7.36002604166667 14.4850260416667  C 7.51671006944444 14.6417100694444  7.70225694444444 14.7200520833333  7.91666666666667 14.7200520833333  Z M 17.9547526041667 1.04524739583333  C 18.6515842013889 1.74207899305555  19 2.58116319444444  19 3.5625  L 19 15.4375  C 19 16.4188368055556  18.6515842013889 17.2579210069444  17.9547526041667 17.9547526041667  C 17.2579210069444 18.6515842013889  16.4188368055556 19  15.4375 19  L 3.5625 19  C 2.58116319444444 19  1.74207899305556 18.6515842013889  1.04524739583333 17.9547526041667  C 0.348415798611111 17.2579210069444  0 16.4188368055556  0 15.4375  L 0 3.5625  C 0 2.58116319444444  0.348415798611111 1.74207899305555  1.04524739583333 1.04524739583333  C 1.74207899305556 0.34841579861111  2.58116319444444 0  3.5625 0  L 15.4375 0  C 16.4188368055556 0  17.2579210069444 0.34841579861111  17.9547526041667 1.04524739583333  Z " fill-rule="nonzero" fill="#aaaaaa" stroke="none" transform="matrix(1 0 0 1 1176 941 )" />
  </g>
</svg>