<?xml version="1.0" encoding="utf-8"?>
<svg version="1.1" xmlns:xlink="http://www.w3.org/1999/xlink" width="19px" height="19px" xmlns="http://www.w3.org/2000/svg">
  <g transform="matrix(1 0 0 1 -1176 -998 )">
    <path d="M 16.6384943181818 2.36150568181818  C 16.2156723484849 1.93868371212121  15.7073863636364 1.72727272727273  15.1136363636364 2  L 3.88636363636364 2  C 3.29261363636364 1.72727272727273  2.78432765151515 1.93868371212121  2.36150568181818 2.36150568181818  C 1.93868371212121 2.78432765151515  1.72727272727273 3.29261363636364  2 3.88636363636364  L 2 15.1136363636364  C 1.72727272727273 15.7073863636364  1.93868371212121 16.2156723484848  2.36150568181818 16.6384943181818  C 2.78432765151515 17.0613162878788  3.29261363636364 17.2727272727273  3.88636363636364 17  L 15.1136363636364 17  C 15.7073863636364 17.2727272727273  16.2156723484849 17.0613162878788  16.6384943181818 16.6384943181818  C 17.0613162878788 16.2156723484848  17.2727272727273 15.7073863636364  17 15.1136363636364  L 17 3.88636363636364  C 17.2727272727273 3.29261363636364  17.0613162878788 2.78432765151515  16.6384943181818 2.36150568181818  Z M 17.8597301136364 1.14026988636364  C 18.6199100378788 1.90044981060606  19 2.81581439393939  19 3.88636363636364  L 19 15.1136363636364  C 19 16.1841856060606  18.6199100378788 17.0995501893939  17.8597301136364 17.8597301136364  C 17.0995501893939 18.6199100378788  16.1841856060606 19  15.1136363636364 19  L 3.88636363636364 19  C 2.81581439393939 19  1.90044981060606 18.6199100378788  1.14026988636364 17.8597301136364  C 0.380089962121212 17.0995501893939  0 16.1841856060606  0 15.1136363636364  L 0 3.88636363636364  C 0 2.81581439393939  0.380089962121212 1.90044981060606  1.14026988636364 1.14026988636364  C 1.90044981060606 0.38008996212121  2.81581439393939 0  3.88636363636364 0  L 15.1136363636364 0  C 16.1841856060606 0  17.0995501893939 0.38008996212121  17.8597301136364 1.14026988636364  Z " fill-rule="nonzero" fill="#000000" stroke="none" transform="matrix(1 0 0 1 1176 998 )" />
  </g>
</svg>