<?xml version="1.0" encoding="utf-8"?>
<svg version="1.1" xmlns:xlink="http://www.w3.org/1999/xlink" width="16px" height="16px" xmlns="http://www.w3.org/2000/svg">
  <g transform="matrix(1 0 0 1 -2741 -610 )">
    <path d="M 14.0113636363636 1.98863636363636  C 13.655303030303 1.63257575757576  13.2272727272727 1.45454545454546  12.7272727272727 1.45454545454546  L 3.27272727272727 1.45454545454546  C 2.77272727272727 1.45454545454546  2.34469696969697 1.63257575757576  1.98863636363636 1.98863636363636  C 1.63257575757576 2.34469696969697  1.45454545454545 2.77272727272727  1.45454545454545 3.27272727272727  L 1.45454545454545 12.7272727272727  C 1.45454545454545 13.2272727272727  1.63257575757576 13.655303030303  1.98863636363636 14.0113636363636  C 2.34469696969697 14.3674242424242  2.77272727272727 14.5454545454545  3.27272727272727 14.5454545454545  L 12.7272727272727 14.5454545454545  C 13.2272727272727 14.5454545454545  13.655303030303 14.3674242424242  14.0113636363636 14.0113636363636  C 14.3674242424242 13.655303030303  14.5454545454545 13.2272727272727  14.5454545454545 12.7272727272727  L 14.5454545454545 3.27272727272727  C 14.5454545454545 2.77272727272727  14.3674242424242 2.34469696969697  14.0113636363636 1.98863636363636  Z M 15.0397727272727 0.960227272727273  C 15.6799242424242 1.60037878787879  16 2.37121212121212  16 3.27272727272727  L 16 12.7272727272727  C 16 13.6287878787879  15.6799242424242 14.3996212121212  15.0397727272727 15.0397727272727  C 14.3996212121212 15.6799242424242  13.6287878787879 16  12.7272727272727 16  L 3.27272727272727 16  C 2.37121212121212 16  1.60037878787879 15.6799242424242  0.960227272727273 15.0397727272727  C 0.320075757575758 14.3996212121212  0 13.6287878787879  0 12.7272727272727  L 0 3.27272727272727  C 0 2.37121212121212  0.320075757575758 1.60037878787879  0.960227272727273 0.960227272727273  C 1.60037878787879 0.320075757575756  2.37121212121212 0  3.27272727272727 0  L 12.7272727272727 0  C 13.6287878787879 0  14.3996212121212 0.320075757575756  15.0397727272727 0.960227272727273  Z " fill-rule="nonzero" fill="#000000" stroke="none" transform="matrix(1 0 0 1 2741 610 )" />
  </g>
</svg>