<?xml version="1.0" encoding="utf-8"?>
<svg version="1.1" xmlns:xlink="http://www.w3.org/1999/xlink" width="33px" height="39px" xmlns="http://www.w3.org/2000/svg">
  <g transform="matrix(1 0 0 1 -317 -1007 )">
    <path d="M 2.990625 0  L 30.009375 0  C 30.4046875 0  30.7828125 0.0773298083278262  31.14375 0.231989424983479  C 31.7109375 0.455386649041634  32.162109375 0.807666886979509  32.497265625 1.28883013879709  C 32.832421875 1.76999339061467  33 2.30270984798413  33 2.88697951090548  L 33 36.1130204890945  C 33 36.6972901520159  32.832421875 37.2300066093853  32.497265625 37.7111698612029  C 32.162109375 38.1923331130205  31.7109375 38.5446133509584  31.14375 38.7680105750165  C 30.8171875 38.9054857898215  30.4390625 38.9742233972241  30.009375 38.9742233972241  C 29.184375 38.9742233972241  28.47109375 38.699272967614  27.86953125 38.1493721083939  L 16.5 27.2200925313946  L 5.13046875 38.1493721083939  C 4.51171875 38.7164573694646  3.7984375 39  2.990625 39  C 2.5953125 39  2.2171875 38.9226701916722  1.85625 38.7680105750165  C 1.2890625 38.5446133509584  0.837890625 38.1923331130205  0.502734375 37.7111698612029  C 0.167578125 37.2300066093853  0 36.6972901520159  0 36.1130204890945  L 0 2.88697951090548  C 0 2.30270984798413  0.167578125 1.76999339061467  0.502734375 1.28883013879709  C 0.837890625 0.807666886979509  1.2890625 0.455386649041634  1.85625 0.231989424983479  C 2.2171875 0.0773298083278262  2.5953125 0  2.990625 0  Z " fill-rule="nonzero" fill="#000000" stroke="none" transform="matrix(1 0 0 1 317 1007 )" />
  </g>
</svg>