<?xml version="1.0" encoding="utf-8"?>
<svg version="1.1" xmlns:xlink="http://www.w3.org/1999/xlink" width="22px" height="22px" xmlns="http://www.w3.org/2000/svg">
  <g transform="matrix(1 0 0 1 -2242 -331 )">
    <path d="M 19.265625 2.734375  C 18.7760416666667 2.24479166666666  18.1875 2  17.5 2  L 4.5 2  C 3.8125 2  3.22395833333333 2.24479166666666  2.734375 2.734375  C 2.24479166666667 3.22395833333333  2 3.8125  2 4.5  L 2 17.5  C 2 18.1875  2.24479166666667 18.7760416666667  2.734375 19.265625  C 3.22395833333333 19.7552083333333  3.8125 20  4.5 20  L 17.5 20  C 18.1875 20  18.7760416666667 19.7552083333333  19.265625 19.265625  C 19.7552083333333 18.7760416666667  20 18.1875  20 17.5  L 20 4.5  C 20 3.8125  19.7552083333333 3.22395833333333  19.265625 2.734375  Z M 20.6796875 1.3203125  C 21.5598958333333 2.20052083333333  22 3.26041666666666  22 4.5  L 22 17.5  C 22 18.7395833333333  21.5598958333333 19.7994791666667  20.6796875 20.6796875  C 19.7994791666667 21.5598958333333  18.7395833333333 22  17.5 22  L 4.5 22  C 3.26041666666667 22  2.20052083333333 21.5598958333333  1.3203125 20.6796875  C 0.440104166666667 19.7994791666667  0 18.7395833333333  0 17.5  L 0 4.5  C 0 3.26041666666666  0.440104166666667 2.20052083333333  1.3203125 1.3203125  C 2.20052083333333 0.440104166666665  3.26041666666667 0  4.5 0  L 17.5 0  C 18.7395833333333 0  19.7994791666667 0.440104166666665  20.6796875 1.3203125  Z " fill-rule="nonzero" fill="#000000" stroke="none" transform="matrix(1 0 0 1 2242 331 )" />
  </g>
</svg>