<?xml version="1.0" encoding="utf-8"?>
<svg version="1.1" xmlns:xlink="http://www.w3.org/1999/xlink" width="22px" height="22px" xmlns="http://www.w3.org/2000/svg">
  <g transform="matrix(1 0 0 1 -1022 -1224 )">
    <path d="M 1033 1224  C 1039.16 1224  1044 1228.84  1044 1235  C 1044 1241.16  1039.16 1246  1033 1246  C 1026.84 1246  1022 1241.16  1022 1235  C 1022 1228.84  1026.84 1224  1033 1224  Z " fill-rule="nonzero" fill="#ffffff" stroke="none" />
    <path d="M 1033 1224.5  C 1038.88 1224.5  1043.5 1229.12  1043.5 1235  C 1043.5 1240.88  1038.88 1245.5  1033 1245.5  C 1027.12 1245.5  1022.5 1240.88  1022.5 1235  C 1022.5 1229.12  1027.12 1224.5  1033 1224.5  Z " stroke-width="1" stroke="#797979" fill="none" />
  </g>
</svg>