<?xml version="1.0" encoding="utf-8"?>
<svg version="1.1" xmlns:xlink="http://www.w3.org/1999/xlink" width="84px" height="71px" xmlns="http://www.w3.org/2000/svg">
  <g transform="matrix(1 0 0 1 -271 -499 )">
    <path d="M 68.1903409090909 32.7265625  C 68.5482954545454 33.0291193181818  68.7272727272727 33.4157196969697  68.7272727272727 33.8863636363637  L 68.7272727272727 37.1136363636363  C 68.7272727272727 37.5842803030303  68.5482954545454 37.9708806818182  68.1903409090909 38.2734375  C 67.8323863636364 38.5759943181818  67.375 38.7272727272727  66.8181818181818 38  L 45 38  L 45 56.4772727272727  C 45.8181818181818 56.9479166666667  45.6392045454546 57.3345170454545  45.28125 57.6370738636363  C 44.9232954545454 57.9396306818182  44.4659090909091 58.090909090909  43.9090909090909 58.090909090909  L 40.0909090909091 58.090909090909  C 39.5340909090909 58.090909090909  39.0767045454546 57.9396306818182  38.71875 57.6370738636363  C 38.3607954545454 57.3345170454545  38.1818181818182 56.9479166666667  39 56.4772727272727  L 39 38  L 17.1818181818182 38  C 16.625 38.7272727272727  16.1676136363636 38.5759943181818  15.8096590909091 38.2734375  C 15.4517045454546 37.9708806818182  15.2727272727273 37.5842803030303  15.2727272727273 37.1136363636363  L 15.2727272727273 33.8863636363637  C 15.2727272727273 33.4157196969697  15.4517045454546 33.0291193181818  15.8096590909091 32.7265625  C 16.1676136363636 32.4240056818182  16.625 32.2727272727273  17.1818181818182 33  L 39 33  L 39 14.5227272727273  C 38.1818181818182 14.0520833333333  38.3607954545454 13.6654829545455  38.71875 13.3629261363637  C 39.0767045454546 13.0603693181818  39.5340909090909 12.909090909091  40.0909090909091 12.909090909091  L 43.9090909090909 12.909090909091  C 44.4659090909091 12.909090909091  44.9232954545454 13.0603693181818  45.28125 13.3629261363637  C 45.6392045454546 13.6654829545455  45.8181818181818 14.0520833333333  45 14.5227272727273  L 45 33  L 66.8181818181818 33  C 67.375 32.2727272727273  67.8323863636364 32.4240056818182  68.1903409090909 32.7265625  Z M 73.5596590909091 62.1754261363637  C 75.4289772727273 60.5954071969697  76.3636363636364 58.6960227272727  76 56.4772727272727  L 76 14.5227272727273  C 76.3636363636364 12.3039772727273  75.4289772727273 10.4045928030303  73.5596590909091 8.82457386363626  C 71.6903409090909 7.24455492424249  69.4431818181818 6.4545454545455  66.8181818181818 7  L 17.1818181818182 7  C 14.5568181818182 6.4545454545455  12.3096590909091 7.24455492424249  10.4403409090909 8.82457386363626  C 8.57102272727275 10.4045928030303  7.63636363636363 12.3039772727273  8 14.5227272727273  L 8 56.4772727272727  C 7.63636363636363 58.6960227272727  8.57102272727275 60.5954071969697  10.4403409090909 62.1754261363637  C 12.3096590909091 63.7554450757575  14.5568181818182 64.5454545454545  17.1818181818182 64  L 66.8181818181818 64  C 69.4431818181818 64.5454545454545  71.6903409090909 63.7554450757575  73.5596590909091 62.1754261363637  Z M 78.9588068181818 4.26100852272725  C 82.3196022727273 7.10168087121201  84 10.5222537878788  84 14.5227272727273  L 84 56.4772727272727  C 84 60.4777462121212  82.3196022727273 63.898319128788  78.9588068181818 66.7389914772727  C 75.5980113636364 69.5796638257575  71.5511363636364 71  66.8181818181818 71  L 17.1818181818182 71  C 12.4488636363637 71  8.40198863636363 69.5796638257575  5.04119318181819 66.7389914772727  C 1.68039772727272 63.898319128788  0 60.4777462121212  0 56.4772727272727  L 0 14.5227272727273  C 0 10.5222537878788  1.68039772727272 7.10168087121201  5.04119318181819 4.26100852272725  C 8.40198863636363 1.42033617424249  12.4488636363637 0  17.1818181818182 0  L 66.8181818181818 0  C 71.5511363636364 0  75.5980113636364 1.42033617424249  78.9588068181818 4.26100852272725  Z " fill-rule="nonzero" fill="#cccccc" stroke="none" transform="matrix(1 0 0 1 271 499 )" />
  </g>
</svg>