<?xml version="1.0" encoding="utf-8"?>
<svg version="1.1" xmlns:xlink="http://www.w3.org/1999/xlink" width="136px" height="114px" xmlns="http://www.w3.org/2000/svg">
  <g transform="matrix(1 0 0 1 -261 -759 )">
    <path d="M 261 759  L 397 759  L 397 873  L 261 873  L 261 759  " fill-rule="nonzero" fill="#cccccc" stroke="none" />
    <path d="M 269 767  L 389 767  L 389 865  L 269 865  L 269 767  " fill-rule="nonzero" fill="#ffffff" stroke="none" />
    <path d="M 340.27 793.2  C 335.482 793.2  331.72 789.438  331.72 784.65  C 331.72 779.862  335.482 776.1  340.27 776.1  C 345.058 776.1  348.82 779.862  348.82 784.65  C 348.82 789.438  345.058 793.2  340.27 793.2  " fill-rule="nonzero" fill="#cccccc" stroke="none" />
    <path d="M 272 862  L 272 811.4  L 300.5 788.4  L 340.4 815.729411764706  L 363.2 802.2  L 386 815.729411764706  L 386 862  L 272 862  " fill-rule="nonzero" fill="#169bd5" stroke="none" />
  </g>
</svg>