<?xml version="1.0" encoding="utf-8"?>
<svg version="1.1" xmlns:xlink="http://www.w3.org/1999/xlink" width="149px" height="114px" xmlns="http://www.w3.org/2000/svg">
  <g transform="matrix(1 0 0 1 -1036 -759 )">
    <path d="M 120.956676136364 52.546875  C 121.591619318182 53.0326704545453  121.909090909091 53.6534090909092  121.909090909091 54.409090909091  L 121.909090909091 59.590909090909  C 121.909090909091 60.3465909090908  121.591619318182 60.9673295454547  120.956676136364 61.453125  C 120.321732954545 61.9389204545453  119.510416666667 62.1818181818182  118.522727272727 62  L 81 62  L 81 90.6818181818182  C 81.2727272727273 91.4375  80.9552556818182 92.0582386363635  80.3203125 92.544034090909  C 79.6853693181818 93.0298295454547  78.874053030303 93.2727272727273  77.8863636363636 93.2727272727273  L 71.1136363636364 93.2727272727273  C 70.125946969697 93.2727272727273  69.3146306818181 93.0298295454547  68.6796875 92.544034090909  C 68.0447443181819 92.0582386363635  67.7272727272727 91.4375  68 90.6818181818182  L 68 62  L 30.4772727272728 62  C 29.4895833333334 62.1818181818182  28.6782670454545 61.9389204545453  28.0433238636363 61.453125  C 27.4083806818182 60.9673295454547  27.0909090909091 60.3465909090908  27.0909090909091 59.590909090909  L 27.0909090909091 54.409090909091  C 27.0909090909091 53.6534090909092  27.4083806818182 53.0326704545453  28.0433238636363 52.546875  C 28.6782670454545 52.0610795454547  29.4895833333334 51.8181818181818  30.4772727272728 52  L 68 52  L 68 23.3181818181818  C 67.7272727272727 22.5625  68.0447443181819 21.9417613636365  68.6796875 21.455965909091  C 69.3146306818181 20.9701704545453  70.125946969697 20.7272727272727  71.1136363636364 20.7272727272727  L 77.8863636363636 20.7272727272727  C 78.874053030303 20.7272727272727  79.6853693181818 20.9701704545453  80.3203125 21.455965909091  C 80.9552556818182 21.9417613636365  81.2727272727273 22.5625  81 23.3181818181818  L 81 52  L 118.522727272727 52  C 119.510416666667 51.8181818181818  120.321732954545 52.0610795454547  120.956676136364 52.546875  Z M 130.480823863636 99.830965909091  C 133.796638257576 97.2940340909092  135.454545454545 94.2443181818182  135 90.6818181818182  L 135 23.3181818181818  C 135.454545454545 19.7556818181818  133.796638257576 16.7059659090908  130.480823863636 14.169034090909  C 127.165009469697 11.6321022727275  123.178977272727 10.3636363636365  118.522727272727 11  L 30.4772727272728 11  C 25.8210227272728 10.3636363636365  21.8349905303031 11.6321022727275  18.5191761363637 14.169034090909  C 15.2033617424242 16.7059659090908  13.5454545454545 19.7556818181818  14 23.3181818181818  L 14 90.6818181818182  C 13.5454545454545 94.2443181818182  15.2033617424242 97.2940340909092  18.5191761363637 99.830965909091  C 21.8349905303031 102.367897727273  25.8210227272728 103.636363636364  30.4772727272728 103  L 118.522727272727 103  C 123.178977272727 103.636363636364  127.165009469697 102.367897727273  130.480823863636 99.830965909091  Z M 140.057883522727 6.84161931818176  C 146.019294507576 11.402698863636  149 16.8948863636365  149 23.3181818181818  L 149 90.6818181818182  C 149 97.1051136363635  146.019294507576 102.597301136364  140.057883522727 107.158380681818  C 134.096472537879 111.719460227273  126.918087121212 114  118.522727272727 114  L 30.4772727272728 114  C 22.0819128787879 114  14.9035274621212 111.719460227273  8.94211647727275 107.158380681818  C 2.98070549242419 102.597301136364  0 97.1051136363635  0 90.6818181818182  L 0 23.3181818181818  C 0 16.8948863636365  2.98070549242419 11.402698863636  8.94211647727275 6.84161931818176  C 14.9035274621212 2.28053977272748  22.0819128787879 0  30.4772727272728 0  L 118.522727272727 0  C 126.918087121212 0  134.096472537879 2.28053977272748  140.057883522727 6.84161931818176  Z " fill-rule="nonzero" fill="#cccccc" stroke="none" transform="matrix(1 0 0 1 1036 759 )" />
  </g>
</svg>