<?xml version="1.0" encoding="utf-8"?>
<svg version="1.1" xmlns:xlink="http://www.w3.org/1999/xlink" width="309px" height="93px" xmlns="http://www.w3.org/2000/svg">
  <g transform="matrix(1 0 0 1 -281 -1307 )">
    <path d="M 281 1307  L 590 1307  L 590 1400  L 281 1400  L 281 1307  " fill-rule="nonzero" fill="#cccccc" stroke="none" />
    <path d="M 288 1314  L 583 1314  L 583 1393  L 288 1393  L 288 1314  " fill-rule="nonzero" fill="#ffffff" stroke="none" />
    <path d="M 448.655 1334.9  C 444.749 1334.9  441.68 1331.831  441.68 1327.925  C 441.68 1324.019  444.749 1320.95  448.655 1320.95  C 452.561 1320.95  455.63 1324.019  455.63 1327.925  C 455.63 1331.831  452.561 1334.9  448.655 1334.9  " fill-rule="nonzero" fill="#cccccc" stroke="none" />
    <path d="M 291 1391  L 291 1350.3  L 363.5 1331.8  L 465 1377.63689320388  L 523 1342.9  L 581 1377.63689320388  L 581 1391  L 291 1391  " fill-rule="nonzero" fill="#169bd5" stroke="none" />
  </g>
</svg>