<?xml version="1.0" encoding="utf-8"?>
<svg version="1.1" xmlns:xlink="http://www.w3.org/1999/xlink" width="28px" height="31px" xmlns="http://www.w3.org/2000/svg">
  <g transform="matrix(1 0 0 1 -1341 -939 )">
    <path d="M 10.0028409090909 11.806640625  C 10.1221590909091 11.927734375  10.1818181818182 12.0824652777778  10.1818181818182 12.2708333333333  L 10.1818181818182 23.8958333333333  C 10.1818181818182 24.0842013888889  10.1221590909091 24.2389322916667  10.0028409090909 24.3600260416667  C 9.88352272727273 24.4811197916667  9.73106060606061 24.5416666666667  9.54545454545454 24.5416666666667  L 8.27272727272727 24.5416666666667  C 8.08712121212121 24.5416666666667  7.93465909090909 24.4811197916667  7.81534090909091 24.3600260416667  C 7.69602272727273 24.2389322916667  7.63636363636364 24.0842013888889  8 23.8958333333333  L 8 12.2708333333333  C 7.63636363636364 12.0824652777778  7.69602272727273 11.927734375  7.81534090909091 11.806640625  C 7.93465909090909 11.685546875  8.08712121212121 11.625  8.27272727272727 11.625  L 9.54545454545454 11.625  C 9.73106060606061 11.625  9.88352272727273 11.685546875  10.0028409090909 11.806640625  Z M 15.09375 11.806640625  C 15.2130681818182 11.927734375  15.2727272727273 12.0824652777778  15 12.2708333333333  L 15 23.8958333333333  C 15.2727272727273 24.0842013888889  15.2130681818182 24.2389322916667  15.09375 24.3600260416667  C 14.9744318181818 24.4811197916667  14.8219696969697 24.5416666666667  14.6363636363636 24.5416666666667  L 13.3636363636364 24.5416666666667  C 13.1780303030303 24.5416666666667  13.0255681818182 24.4811197916667  12.90625 24.3600260416667  C 12.7869318181818 24.2389322916667  12.7272727272727 24.0842013888889  13 23.8958333333333  L 13 12.2708333333333  C 12.7272727272727 12.0824652777778  12.7869318181818 11.927734375  12.90625 11.806640625  C 13.0255681818182 11.685546875  13.1780303030303 11.625  13.3636363636364 11.625  L 14.6363636363636 11.625  C 14.8219696969697 11.625  14.9744318181818 11.685546875  15.09375 11.806640625  Z M 20.1846590909091 11.806640625  C 20.3039772727273 11.927734375  20.3636363636364 12.0824652777778  20 12.2708333333333  L 20 23.8958333333333  C 20.3636363636364 24.0842013888889  20.3039772727273 24.2389322916667  20.1846590909091 24.3600260416667  C 20.0653409090909 24.4811197916667  19.9128787878788 24.5416666666667  19.7272727272727 24.5416666666667  L 18.4545454545455 24.5416666666667  C 18.2689393939394 24.5416666666667  18.1164772727273 24.4811197916667  17.9971590909091 24.3600260416667  C 17.8778409090909 24.2389322916667  17.8181818181818 24.0842013888889  17.8181818181818 23.8958333333333  L 17.8181818181818 12.2708333333333  C 17.8181818181818 12.0824652777778  17.8778409090909 11.927734375  17.9971590909091 11.806640625  C 18.1164772727273 11.685546875  18.2689393939394 11.625  18.4545454545455 11.625  L 19.7272727272727 11.625  C 19.9128787878788 11.625  20.0653409090909 11.685546875  20.1846590909091 11.806640625  Z M 22.7698863636364 27.7001953125  C 22.8626893939394 27.4512803819444  22.9090909090909 27.1788194444444  23 26.8828125  L 23 8  L 5 8  L 5 26.8828125  C 5.09090909090909 27.1788194444444  5.13731060606061 27.4512803819444  5.23011363636364 27.7001953125  C 5.32291666666667 27.9491102430556  5.41903409090909 28.1307508680556  5.51846590909091 28.2451171875  C 5.61789772727273 28.3594835069444  5.6875 28.4166666666667  5.72727272727273 28  L 22.2727272727273 28  C 22.3125 28.4166666666667  22.3821022727273 28.3594835069444  22.4815340909091 28.2451171875  C 22.5809659090909 28.1307508680556  22.6770833333333 27.9491102430556  22.7698863636364 27.7001953125  Z M 10.5198863636364 2.80533854166667  L 9.54545454545454 5.16666666666667  L 18.4545454545455 5.16666666666667  L 17.5 2.80533854166667  C 17.407196969697 2.68424479166667  17.2945075757576 2.61024305555555  17.1619318181818 2.58333333333333  L 10.8579545454545 2.58333333333333  C 10.7253787878788 2.61024305555555  10.6126893939394 2.68424479166667  10.5198863636364 2.80533854166667  Z M 27.8210227272727 5.34830729166667  C 27.9403409090909 5.46940104166667  28 5.62413194444444  28 5.8125  L 28 7.10416666666667  C 28 7.29253472222222  27.9403409090909 7.447265625  27.8210227272727 7.568359375  C 27.7017045454545 7.689453125  27.5492424242424 7.75  27.3636363636364 7.75  L 25 7.75  L 25 26.8828125  C 25.4545454545455 27.9995659722222  25.1429924242424 28.9649522569444  24.5198863636364 29.7789713541667  C 23.8967803030303 30.5929904513889  23.1477272727273 31  22.2727272727273 31  L 5.72727272727273 31  C 4.85227272727273 31  4.1032196969697 30.6064453125  3.48011363636364 29.8193359375  C 2.85700757575758 29.0322265625  2.54545454545455 28.0802951388889  3 26.9635416666667  L 3 7.75  L 0.636363636363636 7.75  C 0.450757575757576 7.75  0.298295454545455 7.689453125  0.178977272727273 7.568359375  C 0.0596590909090909 7.447265625  0 7.29253472222222  0 7.10416666666667  L 0 5.8125  C 0 5.62413194444444  0.0596590909090909 5.46940104166667  0.178977272727273 5.34830729166667  C 0.298295454545455 5.22721354166667  0.450757575757576 5.16666666666667  0.636363636363636 5.16666666666667  L 6.78125 5.16666666666667  L 8.17329545454546 1.79622395833333  C 8.37215909090909 1.29839409722222  8.73011363636364 0.87456597222222  9.24715909090909 0.524739583333334  C 9.76420454545455 0.174913194444443  10.2878787878788 0  10.8181818181818 0  L 17.1818181818182 0  C 17.7121212121212 0  18.2357954545455 0.174913194444443  18.7528409090909 0.524739583333334  C 19.2698863636364 0.87456597222222  19.6278409090909 1.29839409722222  19.8267045454545 1.79622395833333  L 21.21875 5.16666666666667  L 27.3636363636364 5.16666666666667  C 27.5492424242424 5.16666666666667  27.7017045454545 5.22721354166667  27.8210227272727 5.34830729166667  Z " fill-rule="nonzero" fill="#000000" stroke="none" transform="matrix(1 0 0 1 1341 939 )" />
  </g>
</svg>