<?xml version="1.0" encoding="utf-8"?>
<svg version="1.1" xmlns:xlink="http://www.w3.org/1999/xlink" width="34px" height="34px" xmlns="http://www.w3.org/2000/svg">
  <defs>
    <filter x="2130px" y="2560px" width="34px" height="34px" filterUnits="userSpaceOnUse" id="filter103">
      <feOffset dx="1" dy="0" in="SourceAlpha" result="shadowOffsetInner" />
      <feGaussianBlur stdDeviation="1" in="shadowOffsetInner" result="shadowGaussian" />
      <feComposite in2="shadowGaussian" operator="atop" in="SourceAlpha" result="shadowComposite" />
      <feColorMatrix type="matrix" values="0 0 0 0 0.788235294117647  0 0 0 0 0.788235294117647  0 0 0 0 0.788235294117647  0 0 0 0.349019607843137 0  " in="shadowComposite" />
    </filter>
    <g id="widget104">
      <path d="M 2146 2562  C 2154.4 2562  2161 2568.6  2161 2577  C 2161 2585.4  2154.4 2592  2146 2592  C 2137.6 2592  2131 2585.4  2131 2577  C 2131 2568.6  2137.6 2562  2146 2562  Z " fill-rule="nonzero" fill="#ffffff" stroke="none" />
      <path d="M 2146 2562.5  C 2154.12 2562.5  2160.5 2568.88  2160.5 2577  C 2160.5 2585.12  2154.12 2591.5  2146 2591.5  C 2137.88 2591.5  2131.5 2585.12  2131.5 2577  C 2131.5 2568.88  2137.88 2562.5  2146 2562.5  Z " stroke-width="1" stroke="#c9c9c9" fill="none" />
    </g>
  </defs>
  <g transform="matrix(1 0 0 1 -2130 -2560 )">
    <use xlink:href="#widget104" filter="url(#filter103)" />
    <use xlink:href="#widget104" />
  </g>
</svg>