<?xml version="1.0" encoding="utf-8"?>
<svg version="1.1" xmlns:xlink="http://www.w3.org/1999/xlink" width="12px" height="12px" viewBox="215 297  12 12" xmlns="http://www.w3.org/2000/svg">
  <path d="M 221 297  C 224.36 297  227 299.64  227 303  C 227 306.36  224.36 309  221 309  C 217.64 309  215 306.36  215 303  C 215 299.64  217.64 297  221 297  Z " fill-rule="nonzero" fill="#ffffff" stroke="none" />
  <path d="M 221 297.5  C 224.08 297.5  226.5 299.92  226.5 303  C 226.5 306.08  224.08 308.5  221 308.5  C 217.92 308.5  215.5 306.08  215.5 303  C 215.5 299.92  217.92 297.5  221 297.5  Z " stroke-width="1" stroke="#797979" fill="none" />
  <path d="M 221 306  C 219.32 306  218 304.68  218 303  C 218 301.32  219.32 300  221 300  C 222.68 300  224 301.32  224 303  C 224 304.68  222.68 306  221 306  " fill-rule="nonzero" fill="#797979" stroke="none" />
</svg>