<?xml version="1.0" encoding="utf-8"?>
<svg version="1.1" xmlns:xlink="http://www.w3.org/1999/xlink" width="73px" height="57px" xmlns="http://www.w3.org/2000/svg">
  <g transform="matrix(1 0 0 1 -294 -648 )">
    <path d="M 22.2041666666667 11.578125  C 23.6236111111111 12.9635416666667  24.3333333333333 14.6458333333333  24.3333333333333 16.625  C 24.3333333333333 18.6041666666667  23.6236111111111 20.2864583333333  22.2041666666667 21.671875  C 20.7847222222222 23.0572916666667  19.0611111111111 23.75  17.0333333333333 23.75  C 15.0055555555556 23.75  13.2819444444444 23.0572916666667  11.8625 21.671875  C 10.4430555555556 20.2864583333333  9.73333333333333 18.6041666666667  9.73333333333333 16.625  C 9.73333333333333 14.6458333333333  10.4430555555556 12.9635416666667  11.8625 11.578125  C 13.2819444444444 10.1927083333333  15.0055555555556 9.5  17.0333333333333 9.5  C 19.0611111111111 9.5  20.7847222222222 10.1927083333333  22.2041666666667 11.578125  Z M 47.45 15.4375  L 63 30.875  L 63 47  L 9.73333333333333 47  L 9.73333333333333 40.375  L 21.9 28.5  L 27.9833333333333 34.4375  L 47.45 15.4375  Z M 67.7721354166667 5.1025390625  C 67.5313368055556 4.86751302083333  67.2461805555556 4.75  66.9166666666667 5  L 6.08333333333333 5  C 5.75381944444445 4.75  5.46866319444445 4.86751302083333  5.22786458333333 5.1025390625  C 4.98706597222222 5.33756510416666  4.86666666666667 5.61588541666666  5 5.9375  L 5 51.0625  C 4.86666666666667 51.3841145833333  4.98706597222222 51.6624348958333  5.22786458333333 51.8974609375  C 5.46866319444445 52.1324869791667  5.75381944444445 52.25  6.08333333333333 52  L 66.9166666666667 52  C 67.2461805555556 52.25  67.5313368055556 52.1324869791667  67.7721354166667 51.8974609375  C 68.0129340277778 51.6624348958333  68.1333333333333 51.3841145833333  68 51.0625  L 68 5.9375  C 68.1333333333333 5.61588541666666  68.0129340277778 5.33756510416666  67.7721354166667 5.1025390625  Z M 71.2130208333333 1.744140625  C 72.4043402777778 2.90690104166666  73 4.3046875  73 5.9375  L 73 51.0625  C 73 52.6953125  72.4043402777778 54.0930989583333  71.2130208333333 55.255859375  C 70.0217013888889 56.4186197916667  68.5895833333333 57  66.9166666666667 57  L 6.08333333333333 57  C 4.41041666666667 57  2.97829861111111 56.4186197916667  1.78697916666667 55.255859375  C 0.595659722222222 54.0930989583333  0 52.6953125  0 51.0625  L 0 5.9375  C 0 4.3046875  0.595659722222222 2.90690104166666  1.78697916666667 1.744140625  C 2.97829861111111 0.581380208333328  4.41041666666667 0  6.08333333333333 0  L 66.9166666666667 0  C 68.5895833333333 0  70.0217013888889 0.581380208333328  71.2130208333333 1.744140625  Z " fill-rule="nonzero" fill="#d7d7d7" stroke="none" transform="matrix(1 0 0 1 294 648 )" />
  </g>
</svg>