<?xml version="1.0" encoding="utf-8"?>
<svg version="1.1" xmlns:xlink="http://www.w3.org/1999/xlink" width="146px" height="114px" xmlns="http://www.w3.org/2000/svg">
  <g transform="matrix(1 0 0 1 -387 -335 )">
    <path d="M 44.4083333333333 23.15625  C 47.2472222222222 25.9270833333333  48.6666666666667 29.2916666666667  48.6666666666667 33.25  C 48.6666666666667 37.2083333333333  47.2472222222222 40.5729166666667  44.4083333333333 43.34375  C 41.5694444444444 46.1145833333333  38.1222222222222 47.5  34.0666666666667 47.5  C 30.0111111111111 47.5  26.5638888888889 46.1145833333333  23.725 43.34375  C 20.8861111111111 40.5729166666667  19.4666666666667 37.2083333333333  19.4666666666667 33.25  C 19.4666666666667 29.2916666666667  20.8861111111111 25.9270833333333  23.725 23.15625  C 26.5638888888889 20.3854166666667  30.0111111111111 19  34.0666666666667 19  C 38.1222222222222 19  41.5694444444444 20.3854166666667  44.4083333333333 23.15625  Z M 94.9 30.875  L 126 61.75  L 126 95  L 20 95  L 20 80.75  L 43.8 57  L 55.9666666666667 68.875  L 94.9 30.875  Z M 135.544270833333 10.205078125  C 135.062673611111 9.73502604166666  134.492361111111 9.5  133.833333333333 10  L 12.1666666666667 10  C 11.5076388888889 9.5  10.9373263888889 9.73502604166666  10.4557291666667 10.205078125  C 9.97413194444445 10.6751302083333  9.73333333333333 11.2317708333333  10 11.875  L 10 102.125  C 9.73333333333333 102.768229166667  9.97413194444445 103.324869791667  10.4557291666667 103.794921875  C 10.9373263888889 104.264973958333  11.5076388888889 104.5  12.1666666666667 104  L 133.833333333333 104  C 134.492361111111 104.5  135.062673611111 104.264973958333  135.544270833333 103.794921875  C 136.025868055556 103.324869791667  136.266666666667 102.768229166667  136 102.125  L 136 11.875  C 136.266666666667 11.2317708333333  136.025868055556 10.6751302083333  135.544270833333 10.205078125  Z M 142.426041666667 3.48828125  C 144.808680555556 5.81380208333333  146 8.609375  146 11.875  L 146 102.125  C 146 105.390625  144.808680555556 108.186197916667  142.426041666667 110.51171875  C 140.043402777778 112.837239583333  137.179166666667 114  133.833333333333 114  L 12.1666666666667 114  C 8.82083333333333 114  5.95659722222222 112.837239583333  3.57395833333333 110.51171875  C 1.19131944444444 108.186197916667  0 105.390625  0 102.125  L 0 11.875  C 0 8.609375  1.19131944444444 5.81380208333333  3.57395833333333 3.48828125  C 5.95659722222222 1.16276041666666  8.82083333333333 0  12.1666666666667 0  L 133.833333333333 0  C 137.179166666667 0  140.043402777778 1.16276041666666  142.426041666667 3.48828125  Z " fill-rule="nonzero" fill="#d7d7d7" stroke="none" transform="matrix(1 0 0 1 387 335 )" />
  </g>
</svg>