<?xml version="1.0" encoding="utf-8"?>
<svg version="1.1" xmlns:xlink="http://www.w3.org/1999/xlink" width="133px" height="104px" xmlns="http://www.w3.org/2000/svg">
  <g transform="matrix(1 0 0 1 -393 -795 )">
    <path d="M 40.4541666666667 21.125  C 43.0402777777778 23.6527777777778  44.3333333333333 26.7222222222222  44.3333333333333 30.3333333333333  C 44.3333333333333 33.9444444444444  43.0402777777778 37.0138888888889  40.4541666666667 39.5416666666667  C 37.8680555555556 42.0694444444444  34.7277777777778 43.3333333333333  31.0333333333333 43.3333333333333  C 27.3388888888889 43.3333333333333  24.1986111111111 42.0694444444444  21.6125 39.5416666666667  C 19.0263888888889 37.0138888888889  17.7333333333333 33.9444444444444  17.7333333333333 30.3333333333333  C 17.7333333333333 26.7222222222222  19.0263888888889 23.6527777777778  21.6125 21.125  C 24.1986111111111 18.5972222222222  27.3388888888889 17.3333333333333  31.0333333333333 17.3333333333333  C 34.7277777777778 17.3333333333333  37.8680555555556 18.5972222222222  40.4541666666667 21.125  Z M 86.45 28.1666666666667  L 115 56.3333333333333  L 115 86  L 18 86  L 18 73.6666666666667  L 39.9 52  L 50.9833333333333 62.8333333333333  L 86.45 28.1666666666667  Z M 123.475260416667 9.30989583333333  C 123.036545138889 8.88107638888888  122.517013888889 8.66666666666667  121.916666666667 9  L 11.0833333333333 9  C 10.4829861111111 8.66666666666667  9.96345486111111 8.88107638888888  9.52473958333333 9.30989583333333  C 9.08602430555556 9.73871527777777  8.86666666666667 10.2465277777778  9 10.8333333333333  L 9 93.1666666666667  C 8.86666666666667 93.7534722222222  9.08602430555556 94.2612847222222  9.52473958333333 94.6901041666667  C 9.96345486111111 95.1189236111111  10.4829861111111 95.3333333333333  11.0833333333333 95  L 121.916666666667 95  C 122.517013888889 95.3333333333333  123.036545138889 95.1189236111111  123.475260416667 94.6901041666667  C 123.913975694444 94.2612847222222  124.133333333333 93.7534722222222  124 93.1666666666667  L 124 10.8333333333333  C 124.133333333333 10.2465277777778  123.913975694444 9.73871527777777  123.475260416667 9.30989583333333  Z M 129.744270833333 3.18229166666667  C 131.914756944444 5.30381944444444  133 7.85416666666667  133 10.8333333333333  L 133 93.1666666666667  C 133 96.1458333333333  131.914756944444 98.6961805555556  129.744270833333 100.817708333333  C 127.573784722222 102.939236111111  124.964583333333 104  121.916666666667 104  L 11.0833333333333 104  C 8.03541666666667 104  5.42621527777778 102.939236111111  3.25572916666667 100.817708333333  C 1.08524305555556 98.6961805555556  0 96.1458333333333  0 93.1666666666667  L 0 10.8333333333333  C 0 7.85416666666667  1.08524305555556 5.30381944444444  3.25572916666667 3.18229166666667  C 5.42621527777778 1.06076388888888  8.03541666666667 0  11.0833333333333 0  L 121.916666666667 0  C 124.964583333333 0  127.573784722222 1.06076388888888  129.744270833333 3.18229166666667  Z " fill-rule="nonzero" fill="#d7d7d7" stroke="none" transform="matrix(1 0 0 1 393 795 )" />
  </g>
</svg>