<?xml version="1.0" encoding="utf-8"?>
<svg version="1.1" xmlns:xlink="http://www.w3.org/1999/xlink" width="31px" height="31px" xmlns="http://www.w3.org/2000/svg">
  <g transform="matrix(1 0 0 1 -1036 -1335 )">
    <path d="M 30.3835227272727 11.8892045454545  C 30.7945075757576 12.3001893939394  31 12.7992424242424  31 13.3863636363636  L 31 17.6136363636364  C 31 18.2007575757576  30.7945075757576 18.6998106060606  30.3835227272727 19.1107954545455  C 29.9725378787879 19.5217803030303  29.4734848484849 19.7272727272727  28.8863636363636 19.7272727272727  L 19.7272727272727 19.7272727272727  L 19.7272727272727 28.8863636363636  C 19.7272727272727 29.4734848484849  19.5217803030303 29.9725378787879  19.1107954545455 30.3835227272727  C 18.6998106060606 30.7945075757576  18.2007575757576 31  17.6136363636364 31  L 13.3863636363636 31  C 12.7992424242424 31  12.3001893939394 30.7945075757576  11.8892045454545 30.3835227272727  C 11.4782196969697 29.9725378787879  11.2727272727273 29.4734848484849  11.2727272727273 28.8863636363636  L 11.2727272727273 19.7272727272727  L 2.11363636363636 19.7272727272727  C 1.52651515151515 19.7272727272727  1.02746212121212 19.5217803030303  0.616477272727273 19.1107954545455  C 0.205492424242424 18.6998106060606  0 18.2007575757576  0 17.6136363636364  L 0 13.3863636363636  C 0 12.7992424242424  0.205492424242424 12.3001893939394  0.616477272727273 11.8892045454545  C 1.02746212121212 11.4782196969697  1.52651515151515 11.2727272727273  2.11363636363636 11.2727272727273  L 11.2727272727273 11.2727272727273  L 11.2727272727273 2.11363636363637  C 11.2727272727273 1.52651515151515  11.4782196969697 1.02746212121212  11.8892045454545 0.616477272727273  C 12.3001893939394 0.205492424242423  12.7992424242424 0  13.3863636363636 0  L 17.6136363636364 0  C 18.2007575757576 0  18.6998106060606 0.205492424242423  19.1107954545455 0.616477272727273  C 19.5217803030303 1.02746212121212  19.7272727272727 1.52651515151515  19.7272727272727 2.11363636363637  L 19.7272727272727 11.2727272727273  L 28.8863636363636 11.2727272727273  C 29.4734848484849 11.2727272727273  29.9725378787879 11.4782196969697  30.3835227272727 11.8892045454545  Z " fill-rule="nonzero" fill="#3f8fff" stroke="none" transform="matrix(1 0 0 1 1036 1335 )" />
  </g>
</svg>