<?xml version="1.0" encoding="utf-8"?>
<svg version="1.1" xmlns:xlink="http://www.w3.org/1999/xlink" width="16px" height="16px" xmlns="http://www.w3.org/2000/svg">
  <g transform="matrix(1 0 0 1 -833 -1020 )">
    <path d="M 841 1020  C 845.48 1020  849 1023.52  849 1028  C 849 1032.48  845.48 1036  841 1036  C 836.52 1036  833 1032.48  833 1028  C 833 1023.52  836.52 1020  841 1020  Z " fill-rule="nonzero" fill="#ffffff" stroke="none" />
    <path d="M 841 1020.5  C 845.2 1020.5  848.5 1023.8  848.5 1028  C 848.5 1032.2  845.2 1035.5  841 1035.5  C 836.8 1035.5  833.5 1032.2  833.5 1028  C 833.5 1023.8  836.8 1020.5  841 1020.5  Z " stroke-width="1" stroke="#797979" fill="none" />
  </g>
</svg>