<?xml version="1.0" encoding="utf-8"?>
<svg version="1.1" xmlns:xlink="http://www.w3.org/1999/xlink" width="20px" height="14px" xmlns="http://www.w3.org/2000/svg">
  <g transform="matrix(1 0 0 1 -232 -182 )">
    <path d="M 19.62890625 11.3506944444444  C 19.8763020833333 11.6585648148148  20 12.0231481481481  20 12.4444444444444  C 20 12.8657407407407  19.8763020833333 13.2303240740741  19.62890625 13.5381944444444  C 19.3815104166667 13.8460648148148  19.0885416666667 14  18.75 14  L 1.25 14  C 0.911458333333333 14  0.618489583333333 13.8460648148148  0.37109375 13.5381944444444  C 0.123697916666667 13.2303240740741  0 12.8657407407407  0 12.4444444444444  C 0 12.0231481481481  0.123697916666667 11.6585648148148  0.37109375 11.3506944444444  L 9.12109375 0.461805555555556  C 9.36848958333334 0.153935185185183  9.66145833333334 0  10 0  C 10.3385416666667 0  10.6315104166667 0.153935185185183  10.87890625 0.461805555555556  L 19.62890625 11.3506944444444  Z " fill-rule="nonzero" fill="#ffffff" stroke="none" transform="matrix(1 0 0 1 232 182 )" />
  </g>
</svg>