<?xml version="1.0" encoding="utf-8"?>
<svg version="1.1" xmlns:xlink="http://www.w3.org/1999/xlink" width="10px" height="3px" xmlns="http://www.w3.org/2000/svg">
  <g transform="matrix(1 0 0 1 -404 -57 )">
    <path d="M 2.52840909090909 0.21875  C 2.66098484848485 0.364583333333332  2.72727272727273 0.541666666666666  2.72727272727273 0.75  L 2.72727272727273 2.25  C 2.72727272727273 2.45833333333333  2.66098484848485 2.63541666666667  2.52840909090909 2.78125  C 2.39583333333333 2.92708333333333  2.23484848484849 3  2.04545454545455 3  L 0.681818181818182 3  C 0.492424242424242 3  0.331439393939394 2.92708333333333  0.198863636363636 2.78125  C 0.0662878787878788 2.63541666666667  0 2.45833333333333  0 2.25  L 0 0.75  C 0 0.541666666666666  0.0662878787878788 0.364583333333332  0.198863636363636 0.21875  C 0.331439393939394 0.0729166666666661  0.492424242424242 0  0.681818181818182 0  L 2.04545454545455 0  C 2.23484848484849 0  2.39583333333333 0.0729166666666661  2.52840909090909 0.21875  Z M 6.16477272727273 0.21875  C 6.29734848484849 0.364583333333332  6.36363636363636 0.541666666666666  6.36363636363636 0.75  L 6.36363636363636 2.25  C 6.36363636363636 2.45833333333333  6.29734848484849 2.63541666666667  6.16477272727273 2.78125  C 6.03219696969697 2.92708333333333  5.87121212121212 3  5.68181818181818 3  L 4.31818181818182 3  C 4.12878787878788 3  3.96780303030303 2.92708333333333  3.83522727272727 2.78125  C 3.70265151515152 2.63541666666667  3.63636363636364 2.45833333333333  3.63636363636364 2.25  L 3.63636363636364 0.75  C 3.63636363636364 0.541666666666666  3.70265151515152 0.364583333333332  3.83522727272727 0.21875  C 3.96780303030303 0.0729166666666661  4.12878787878788 0  4.31818181818182 0  L 5.68181818181818 0  C 5.87121212121212 0  6.03219696969697 0.0729166666666661  6.16477272727273 0.21875  Z M 9.80113636363636 0.21875  C 9.93371212121212 0.364583333333332  10 0.541666666666666  10 0.75  L 10 2.25  C 10 2.45833333333333  9.93371212121212 2.63541666666667  9.80113636363636 2.78125  C 9.66856060606061 2.92708333333333  9.50757575757576 3  9.31818181818182 3  L 7.95454545454545 3  C 7.76515151515152 3  7.60416666666667 2.92708333333333  7.47159090909091 2.78125  C 7.33901515151515 2.63541666666667  7.27272727272727 2.45833333333333  7.27272727272727 2.25  L 7.27272727272727 0.75  C 7.27272727272727 0.541666666666666  7.33901515151515 0.364583333333332  7.47159090909091 0.21875  C 7.60416666666667 0.0729166666666661  7.76515151515152 0  7.95454545454545 0  L 9.31818181818182 0  C 9.50757575757576 0  9.66856060606061 0.0729166666666661  9.80113636363636 0.21875  Z " fill-rule="nonzero" fill="#ffffff" stroke="none" transform="matrix(1 0 0 1 404 57 )" />
  </g>
</svg>