<?xml version="1.0" encoding="utf-8"?>
<svg version="1.1" xmlns:xlink="http://www.w3.org/1999/xlink" width="10px" height="5px" xmlns="http://www.w3.org/2000/svg">
  <g transform="matrix(1 0 0 1 -63 -56 )">
    <path d="M 9.8997995991984 0.515463917525773  C 9.96659986639947 0.572737686139747  10 0.638602520045818  10 0.713058419243986  C 10 0.787514318442153  9.96659986639947 0.853379152348224  9.8997995991984 0.910652920962199  L 5.23046092184369 4.91408934707904  C 5.16366065464262 4.97136311569301  5.08684034736139 5  5 5  C 4.91315965263861 5  4.83633934535738 4.97136311569301  4.76953907815631 4.91408934707904  L 0.100200400801603 0.910652920962199  C 0.0334001336005345 0.853379152348224  0 0.787514318442153  0 0.713058419243986  C 0 0.638602520045818  0.0334001336005345 0.572737686139747  0.100200400801603 0.515463917525773  L 0.601202404809619 0.0859106529209624  C 0.668002672010688 0.0286368843069867  0.744822979291917 0  0.831663326653307 0  C 0.918503674014696 0  0.995323981295925 0.0286368843069867  1.06212424849699 0.0859106529209624  L 5 3.46219931271478  L 8.93787575150301 0.0859106529209624  C 9.00467601870407 0.0286368843069867  9.0814963259853 0  9.16833667334669 0  C 9.25517702070808 0  9.33199732798931 0.0286368843069867  9.39879759519038 0.0859106529209624  L 9.8997995991984 0.515463917525773  Z " fill-rule="nonzero" fill="#ffffff" stroke="none" transform="matrix(1 0 0 1 63 56 )" />
  </g>
</svg>